G04*
G04 #@! TF.GenerationSoftware,Altium Limited,Altium Designer,23.9.2 (47)*
G04*
G04 Layer_Physical_Order=1*
G04 Layer_Color=255*
%FSLAX25Y25*%
%MOIN*%
G70*
G04*
G04 #@! TF.SameCoordinates,7D7DC0CB-560A-4B43-BD03-011E7A05A225*
G04*
G04*
G04 #@! TF.FilePolarity,Positive*
G04*
G01*
G75*
%ADD13C,0.01000*%
%ADD14O,0.04134X0.05709*%
%ADD15O,0.04331X0.07087*%
G04:AMPARAMS|DCode=16|XSize=59.06mil|YSize=59.06mil|CornerRadius=11.81mil|HoleSize=0mil|Usage=FLASHONLY|Rotation=180.000|XOffset=0mil|YOffset=0mil|HoleType=Round|Shape=RoundedRectangle|*
%AMROUNDEDRECTD16*
21,1,0.05906,0.03543,0,0,180.0*
21,1,0.03543,0.05906,0,0,180.0*
1,1,0.02362,-0.01772,0.01772*
1,1,0.02362,0.01772,0.01772*
1,1,0.02362,0.01772,-0.01772*
1,1,0.02362,-0.01772,-0.01772*
%
%ADD16ROUNDEDRECTD16*%
%ADD17R,0.02362X0.01850*%
%ADD18R,0.04724X0.05709*%
%ADD24R,0.06850X0.06850*%
%ADD25C,0.06850*%
%ADD32R,0.03937X0.03937*%
%ADD33C,0.06000*%
%ADD34C,0.06299*%
G04:AMPARAMS|DCode=35|XSize=62.99mil|YSize=62.99mil|CornerRadius=15.75mil|HoleSize=0mil|Usage=FLASHONLY|Rotation=270.000|XOffset=0mil|YOffset=0mil|HoleType=Round|Shape=RoundedRectangle|*
%AMROUNDEDRECTD35*
21,1,0.06299,0.03150,0,0,270.0*
21,1,0.03150,0.06299,0,0,270.0*
1,1,0.03150,-0.01575,-0.01575*
1,1,0.03150,-0.01575,0.01575*
1,1,0.03150,0.01575,0.01575*
1,1,0.03150,0.01575,-0.01575*
%
%ADD35ROUNDEDRECTD35*%
%ADD36C,0.07087*%
%ADD37R,0.07087X0.07087*%
%ADD38C,0.02300*%
%ADD39C,0.15748*%
G36*
X428949Y198350D02*
X419500D01*
X419335Y198354D01*
X419169Y198366D01*
X419008Y198390D01*
X418847Y198417D01*
X418685Y198457D01*
X418528Y198504D01*
X418370Y198559D01*
X418221Y198622D01*
X418071Y198693D01*
X417925Y198772D01*
X417783Y198858D01*
X417650Y198953D01*
X417520Y199051D01*
X417394Y199158D01*
X417272Y199272D01*
X417158Y199394D01*
X417051Y199520D01*
X416953Y199650D01*
X416858Y199784D01*
X416772Y199925D01*
X416693Y200071D01*
X416622Y200220D01*
X416559Y200370D01*
X416504Y200528D01*
X416457Y200685D01*
X416417Y200847D01*
X416390Y201008D01*
X416366Y201169D01*
X416354Y201335D01*
X416350Y201500D01*
X416354Y201665D01*
X416366Y201831D01*
X416390Y201992D01*
X416417Y202153D01*
X416457Y202315D01*
X416504Y202472D01*
X416559Y202630D01*
X416622Y202780D01*
X416693Y202929D01*
X416772Y203075D01*
X416858Y203217D01*
X416953Y203350D01*
X417051Y203480D01*
X417158Y203606D01*
X417272Y203728D01*
X417394Y203842D01*
X417520Y203949D01*
X417650Y204047D01*
X417783Y204142D01*
X417925Y204228D01*
X418071Y204307D01*
X418221Y204378D01*
X418370Y204441D01*
X418528Y204496D01*
X418685Y204543D01*
X418847Y204583D01*
X419008Y204610D01*
X419169Y204634D01*
X419335Y204646D01*
X419500Y204650D01*
X428949D01*
Y198350D01*
D02*
G37*
G36*
X349665Y204646D02*
X349831Y204634D01*
X349992Y204610D01*
X350153Y204583D01*
X350315Y204543D01*
X350472Y204496D01*
X350630Y204441D01*
X350780Y204378D01*
X350929Y204307D01*
X351075Y204228D01*
X351217Y204142D01*
X351350Y204047D01*
X351480Y203949D01*
X351606Y203842D01*
X351728Y203728D01*
X351842Y203606D01*
X351949Y203480D01*
X352047Y203350D01*
X352142Y203217D01*
X352228Y203075D01*
X352307Y202929D01*
X352378Y202780D01*
X352441Y202630D01*
X352496Y202472D01*
X352543Y202315D01*
X352583Y202153D01*
X352610Y201992D01*
X352634Y201831D01*
X352646Y201665D01*
X352650Y201500D01*
X352646Y201335D01*
X352634Y201169D01*
X352610Y201008D01*
X352583Y200847D01*
X352543Y200685D01*
X352496Y200528D01*
X352441Y200370D01*
X352378Y200220D01*
X352307Y200071D01*
X352228Y199925D01*
X352142Y199784D01*
X352047Y199650D01*
X351949Y199520D01*
X351842Y199394D01*
X351728Y199272D01*
X351606Y199158D01*
X351480Y199051D01*
X351350Y198953D01*
X351217Y198858D01*
X351075Y198772D01*
X350929Y198693D01*
X350780Y198622D01*
X350630Y198559D01*
X350472Y198504D01*
X350315Y198457D01*
X350153Y198417D01*
X349992Y198390D01*
X349831Y198366D01*
X349665Y198354D01*
X349500Y198350D01*
X340051D01*
Y204650D01*
X349500D01*
X349665Y204646D01*
D02*
G37*
G36*
X397650Y200594D02*
X397646Y200429D01*
X397634Y200264D01*
X397610Y200102D01*
X397583Y199941D01*
X397543Y199779D01*
X397496Y199622D01*
X397441Y199465D01*
X397378Y199315D01*
X397307Y199165D01*
X397228Y199020D01*
X397142Y198878D01*
X397047Y198744D01*
X396949Y198614D01*
X396843Y198488D01*
X396728Y198366D01*
X396606Y198252D01*
X396480Y198146D01*
X396350Y198047D01*
X396217Y197953D01*
X396075Y197866D01*
X395929Y197787D01*
X395779Y197716D01*
X395630Y197653D01*
X395472Y197598D01*
X395315Y197551D01*
X395153Y197512D01*
X394992Y197484D01*
X394831Y197461D01*
X394665Y197449D01*
X394500Y197445D01*
X394335Y197449D01*
X394169Y197461D01*
X394008Y197484D01*
X393847Y197512D01*
X393685Y197551D01*
X393528Y197598D01*
X393370Y197653D01*
X393220Y197716D01*
X393071Y197787D01*
X392925Y197866D01*
X392783Y197953D01*
X392650Y198047D01*
X392520Y198146D01*
X392394Y198252D01*
X392272Y198366D01*
X392158Y198488D01*
X392051Y198614D01*
X391953Y198744D01*
X391858Y198878D01*
X391772Y199020D01*
X391693Y199165D01*
X391622Y199315D01*
X391559Y199465D01*
X391504Y199622D01*
X391457Y199779D01*
X391417Y199941D01*
X391390Y200102D01*
X391366Y200264D01*
X391354Y200429D01*
X391350Y200594D01*
Y210043D01*
X397650D01*
Y200594D01*
D02*
G37*
G36*
X387650Y198232D02*
Y198193D01*
X387646Y198150D01*
X387642Y198110D01*
X387634Y198067D01*
X387622Y198028D01*
X387610Y197988D01*
X387598Y197949D01*
X387583Y197913D01*
X387563Y197874D01*
X387543Y197839D01*
X387524Y197803D01*
X387500Y197768D01*
X387472Y197736D01*
X387449Y197705D01*
X387417Y197677D01*
X387390Y197646D01*
X387358Y197622D01*
X387327Y197594D01*
X387291Y197571D01*
X387256Y197551D01*
X387221Y197531D01*
X387181Y197512D01*
X387146Y197496D01*
X387106Y197484D01*
X387067Y197472D01*
X387028Y197461D01*
X386984Y197453D01*
X386945Y197449D01*
X386902Y197445D01*
X382098D01*
X382055Y197449D01*
X382016Y197453D01*
X381972Y197461D01*
X381933Y197472D01*
X381894Y197484D01*
X381854Y197496D01*
X381819Y197512D01*
X381780Y197531D01*
X381744Y197551D01*
X381709Y197571D01*
X381673Y197594D01*
X381642Y197622D01*
X381610Y197646D01*
X381583Y197677D01*
X381551Y197705D01*
X381528Y197736D01*
X381500Y197768D01*
X381476Y197803D01*
X381457Y197839D01*
X381437Y197874D01*
X381417Y197913D01*
X381402Y197949D01*
X381390Y197988D01*
X381378Y198028D01*
X381366Y198067D01*
X381358Y198110D01*
X381354Y198150D01*
X381350Y198193D01*
Y198232D01*
Y210043D01*
X387650D01*
Y198232D01*
D02*
G37*
G36*
X377650Y200594D02*
X377646Y200429D01*
X377634Y200264D01*
X377610Y200102D01*
X377583Y199941D01*
X377543Y199779D01*
X377496Y199622D01*
X377441Y199465D01*
X377378Y199315D01*
X377307Y199165D01*
X377228Y199020D01*
X377142Y198878D01*
X377047Y198744D01*
X376949Y198614D01*
X376842Y198488D01*
X376728Y198366D01*
X376606Y198252D01*
X376480Y198146D01*
X376350Y198047D01*
X376217Y197953D01*
X376075Y197866D01*
X375929Y197787D01*
X375780Y197716D01*
X375630Y197653D01*
X375472Y197598D01*
X375315Y197551D01*
X375153Y197512D01*
X374992Y197484D01*
X374831Y197461D01*
X374665Y197449D01*
X374500Y197445D01*
X374335Y197449D01*
X374169Y197461D01*
X374008Y197484D01*
X373847Y197512D01*
X373685Y197551D01*
X373528Y197598D01*
X373370Y197653D01*
X373220Y197716D01*
X373071Y197787D01*
X372925Y197866D01*
X372783Y197953D01*
X372650Y198047D01*
X372520Y198146D01*
X372394Y198252D01*
X372272Y198366D01*
X372158Y198488D01*
X372051Y198614D01*
X371953Y198744D01*
X371858Y198878D01*
X371772Y199020D01*
X371693Y199165D01*
X371622Y199315D01*
X371559Y199465D01*
X371504Y199622D01*
X371457Y199779D01*
X371417Y199941D01*
X371390Y200102D01*
X371366Y200264D01*
X371354Y200429D01*
X371350Y200594D01*
Y210043D01*
X377650D01*
Y200594D01*
D02*
G37*
G36*
X428949Y188350D02*
X419500D01*
X419335Y188354D01*
X419169Y188366D01*
X419008Y188390D01*
X418847Y188417D01*
X418685Y188457D01*
X418528Y188504D01*
X418370Y188559D01*
X418221Y188622D01*
X418071Y188693D01*
X417925Y188772D01*
X417783Y188858D01*
X417650Y188953D01*
X417520Y189051D01*
X417394Y189157D01*
X417272Y189272D01*
X417158Y189394D01*
X417051Y189520D01*
X416953Y189650D01*
X416858Y189784D01*
X416772Y189925D01*
X416693Y190071D01*
X416622Y190220D01*
X416559Y190370D01*
X416504Y190528D01*
X416457Y190685D01*
X416417Y190847D01*
X416390Y191008D01*
X416366Y191169D01*
X416354Y191335D01*
X416350Y191500D01*
X416354Y191665D01*
X416366Y191831D01*
X416390Y191992D01*
X416417Y192154D01*
X416457Y192315D01*
X416504Y192472D01*
X416559Y192630D01*
X416622Y192780D01*
X416693Y192929D01*
X416772Y193075D01*
X416858Y193217D01*
X416953Y193350D01*
X417051Y193480D01*
X417158Y193606D01*
X417272Y193728D01*
X417394Y193842D01*
X417520Y193949D01*
X417650Y194047D01*
X417783Y194142D01*
X417925Y194228D01*
X418071Y194307D01*
X418221Y194378D01*
X418370Y194441D01*
X418528Y194496D01*
X418685Y194543D01*
X418847Y194583D01*
X419008Y194610D01*
X419169Y194634D01*
X419335Y194646D01*
X419500Y194650D01*
X428949D01*
Y188350D01*
D02*
G37*
G36*
X349665Y194646D02*
X349831Y194634D01*
X349992Y194610D01*
X350153Y194583D01*
X350315Y194543D01*
X350472Y194496D01*
X350630Y194441D01*
X350780Y194378D01*
X350929Y194307D01*
X351075Y194228D01*
X351217Y194142D01*
X351350Y194047D01*
X351480Y193949D01*
X351606Y193842D01*
X351728Y193728D01*
X351842Y193606D01*
X351949Y193480D01*
X352047Y193350D01*
X352142Y193217D01*
X352228Y193075D01*
X352307Y192929D01*
X352378Y192780D01*
X352441Y192630D01*
X352496Y192472D01*
X352543Y192315D01*
X352583Y192154D01*
X352610Y191992D01*
X352634Y191831D01*
X352646Y191665D01*
X352650Y191500D01*
X352646Y191335D01*
X352634Y191169D01*
X352610Y191008D01*
X352583Y190847D01*
X352543Y190685D01*
X352496Y190528D01*
X352441Y190370D01*
X352378Y190220D01*
X352307Y190071D01*
X352228Y189925D01*
X352142Y189784D01*
X352047Y189650D01*
X351949Y189520D01*
X351842Y189394D01*
X351728Y189272D01*
X351606Y189157D01*
X351480Y189051D01*
X351350Y188953D01*
X351217Y188858D01*
X351075Y188772D01*
X350929Y188693D01*
X350780Y188622D01*
X350630Y188559D01*
X350472Y188504D01*
X350315Y188457D01*
X350153Y188417D01*
X349992Y188390D01*
X349831Y188366D01*
X349665Y188354D01*
X349500Y188350D01*
X340051D01*
Y194650D01*
X349500D01*
X349665Y194646D01*
D02*
G37*
G36*
X428949Y178350D02*
X417098D01*
X417055Y178354D01*
X417016Y178358D01*
X416972Y178366D01*
X416933Y178378D01*
X416894Y178390D01*
X416854Y178402D01*
X416819Y178417D01*
X416780Y178437D01*
X416744Y178457D01*
X416709Y178476D01*
X416673Y178500D01*
X416642Y178528D01*
X416610Y178551D01*
X416583Y178583D01*
X416551Y178610D01*
X416528Y178642D01*
X416500Y178673D01*
X416476Y178709D01*
X416457Y178744D01*
X416437Y178779D01*
X416417Y178819D01*
X416402Y178854D01*
X416390Y178894D01*
X416378Y178933D01*
X416366Y178972D01*
X416358Y179016D01*
X416354Y179055D01*
X416350Y179098D01*
Y179138D01*
Y183862D01*
Y183902D01*
X416354Y183945D01*
X416358Y183984D01*
X416366Y184028D01*
X416378Y184067D01*
X416390Y184106D01*
X416402Y184146D01*
X416417Y184181D01*
X416437Y184221D01*
X416457Y184256D01*
X416476Y184291D01*
X416500Y184327D01*
X416528Y184358D01*
X416551Y184390D01*
X416583Y184417D01*
X416610Y184449D01*
X416642Y184472D01*
X416673Y184500D01*
X416709Y184524D01*
X416744Y184543D01*
X416780Y184563D01*
X416819Y184583D01*
X416854Y184598D01*
X416894Y184610D01*
X416933Y184622D01*
X416972Y184634D01*
X417016Y184642D01*
X417055Y184646D01*
X417098Y184650D01*
X428949D01*
Y178350D01*
D02*
G37*
G36*
X351945Y184646D02*
X351984Y184642D01*
X352028Y184634D01*
X352067Y184622D01*
X352106Y184610D01*
X352146Y184598D01*
X352181Y184583D01*
X352221Y184563D01*
X352256Y184543D01*
X352291Y184524D01*
X352327Y184500D01*
X352358Y184472D01*
X352390Y184449D01*
X352417Y184417D01*
X352449Y184390D01*
X352472Y184358D01*
X352500Y184327D01*
X352524Y184291D01*
X352543Y184256D01*
X352563Y184221D01*
X352583Y184181D01*
X352598Y184146D01*
X352610Y184106D01*
X352622Y184067D01*
X352634Y184028D01*
X352642Y183984D01*
X352646Y183945D01*
X352650Y183902D01*
Y183862D01*
Y179138D01*
Y179098D01*
X352646Y179055D01*
X352642Y179016D01*
X352634Y178972D01*
X352622Y178933D01*
X352610Y178894D01*
X352598Y178854D01*
X352583Y178819D01*
X352563Y178779D01*
X352543Y178744D01*
X352524Y178709D01*
X352500Y178673D01*
X352472Y178642D01*
X352449Y178610D01*
X352417Y178583D01*
X352390Y178551D01*
X352358Y178528D01*
X352327Y178500D01*
X352291Y178476D01*
X352256Y178457D01*
X352221Y178437D01*
X352181Y178417D01*
X352146Y178402D01*
X352106Y178390D01*
X352067Y178378D01*
X352028Y178366D01*
X351984Y178358D01*
X351945Y178354D01*
X351902Y178350D01*
X340051D01*
Y184650D01*
X351902D01*
X351945Y184646D01*
D02*
G37*
G36*
X428949Y168350D02*
X419500D01*
X419335Y168354D01*
X419169Y168366D01*
X419008Y168390D01*
X418847Y168417D01*
X418685Y168457D01*
X418528Y168504D01*
X418370Y168559D01*
X418221Y168622D01*
X418071Y168693D01*
X417925Y168772D01*
X417783Y168858D01*
X417650Y168953D01*
X417520Y169051D01*
X417394Y169158D01*
X417272Y169272D01*
X417158Y169394D01*
X417051Y169520D01*
X416953Y169650D01*
X416858Y169783D01*
X416772Y169925D01*
X416693Y170071D01*
X416622Y170220D01*
X416559Y170370D01*
X416504Y170528D01*
X416457Y170685D01*
X416417Y170846D01*
X416390Y171008D01*
X416366Y171169D01*
X416354Y171335D01*
X416350Y171500D01*
X416354Y171665D01*
X416366Y171831D01*
X416390Y171992D01*
X416417Y172153D01*
X416457Y172315D01*
X416504Y172472D01*
X416559Y172630D01*
X416622Y172780D01*
X416693Y172929D01*
X416772Y173075D01*
X416858Y173216D01*
X416953Y173350D01*
X417051Y173480D01*
X417158Y173606D01*
X417272Y173728D01*
X417394Y173843D01*
X417520Y173949D01*
X417650Y174047D01*
X417783Y174142D01*
X417925Y174228D01*
X418071Y174307D01*
X418221Y174378D01*
X418370Y174441D01*
X418528Y174496D01*
X418685Y174543D01*
X418847Y174583D01*
X419008Y174610D01*
X419169Y174634D01*
X419335Y174646D01*
X419500Y174650D01*
X428949D01*
Y168350D01*
D02*
G37*
G36*
X349665Y174646D02*
X349831Y174634D01*
X349992Y174610D01*
X350153Y174583D01*
X350315Y174543D01*
X350472Y174496D01*
X350630Y174441D01*
X350780Y174378D01*
X350929Y174307D01*
X351075Y174228D01*
X351217Y174142D01*
X351350Y174047D01*
X351480Y173949D01*
X351606Y173843D01*
X351728Y173728D01*
X351842Y173606D01*
X351949Y173480D01*
X352047Y173350D01*
X352142Y173216D01*
X352228Y173075D01*
X352307Y172929D01*
X352378Y172780D01*
X352441Y172630D01*
X352496Y172472D01*
X352543Y172315D01*
X352583Y172153D01*
X352610Y171992D01*
X352634Y171831D01*
X352646Y171665D01*
X352650Y171500D01*
X352646Y171335D01*
X352634Y171169D01*
X352610Y171008D01*
X352583Y170846D01*
X352543Y170685D01*
X352496Y170528D01*
X352441Y170370D01*
X352378Y170220D01*
X352307Y170071D01*
X352228Y169925D01*
X352142Y169783D01*
X352047Y169650D01*
X351949Y169520D01*
X351842Y169394D01*
X351728Y169272D01*
X351606Y169158D01*
X351480Y169051D01*
X351350Y168953D01*
X351217Y168858D01*
X351075Y168772D01*
X350929Y168693D01*
X350780Y168622D01*
X350630Y168559D01*
X350472Y168504D01*
X350315Y168457D01*
X350153Y168417D01*
X349992Y168390D01*
X349831Y168366D01*
X349665Y168354D01*
X349500Y168350D01*
X340051D01*
Y174650D01*
X349500D01*
X349665Y174646D01*
D02*
G37*
G36*
X428949Y158350D02*
X419500D01*
X419335Y158354D01*
X419169Y158366D01*
X419008Y158390D01*
X418847Y158417D01*
X418685Y158457D01*
X418528Y158504D01*
X418370Y158559D01*
X418221Y158622D01*
X418071Y158693D01*
X417925Y158772D01*
X417783Y158858D01*
X417650Y158953D01*
X417520Y159051D01*
X417394Y159158D01*
X417272Y159272D01*
X417158Y159394D01*
X417051Y159520D01*
X416953Y159650D01*
X416858Y159783D01*
X416772Y159925D01*
X416693Y160071D01*
X416622Y160221D01*
X416559Y160370D01*
X416504Y160528D01*
X416457Y160685D01*
X416417Y160846D01*
X416390Y161008D01*
X416366Y161169D01*
X416354Y161335D01*
X416350Y161500D01*
X416354Y161665D01*
X416366Y161831D01*
X416390Y161992D01*
X416417Y162153D01*
X416457Y162315D01*
X416504Y162472D01*
X416559Y162630D01*
X416622Y162779D01*
X416693Y162929D01*
X416772Y163075D01*
X416858Y163216D01*
X416953Y163350D01*
X417051Y163480D01*
X417158Y163606D01*
X417272Y163728D01*
X417394Y163842D01*
X417520Y163949D01*
X417650Y164047D01*
X417783Y164142D01*
X417925Y164228D01*
X418071Y164307D01*
X418221Y164378D01*
X418370Y164441D01*
X418528Y164496D01*
X418685Y164543D01*
X418847Y164583D01*
X419008Y164610D01*
X419169Y164634D01*
X419335Y164646D01*
X419500Y164650D01*
X428949D01*
Y158350D01*
D02*
G37*
G36*
X349665Y164646D02*
X349831Y164634D01*
X349992Y164610D01*
X350153Y164583D01*
X350315Y164543D01*
X350472Y164496D01*
X350630Y164441D01*
X350780Y164378D01*
X350929Y164307D01*
X351075Y164228D01*
X351217Y164142D01*
X351350Y164047D01*
X351480Y163949D01*
X351606Y163842D01*
X351728Y163728D01*
X351842Y163606D01*
X351949Y163480D01*
X352047Y163350D01*
X352142Y163216D01*
X352228Y163075D01*
X352307Y162929D01*
X352378Y162779D01*
X352441Y162630D01*
X352496Y162472D01*
X352543Y162315D01*
X352583Y162153D01*
X352610Y161992D01*
X352634Y161831D01*
X352646Y161665D01*
X352650Y161500D01*
X352646Y161335D01*
X352634Y161169D01*
X352610Y161008D01*
X352583Y160846D01*
X352543Y160685D01*
X352496Y160528D01*
X352441Y160370D01*
X352378Y160221D01*
X352307Y160071D01*
X352228Y159925D01*
X352142Y159783D01*
X352047Y159650D01*
X351949Y159520D01*
X351842Y159394D01*
X351728Y159272D01*
X351606Y159158D01*
X351480Y159051D01*
X351350Y158953D01*
X351217Y158858D01*
X351075Y158772D01*
X350929Y158693D01*
X350780Y158622D01*
X350630Y158559D01*
X350472Y158504D01*
X350315Y158457D01*
X350153Y158417D01*
X349992Y158390D01*
X349831Y158366D01*
X349665Y158354D01*
X349500Y158350D01*
X340051D01*
Y164650D01*
X349500D01*
X349665Y164646D01*
D02*
G37*
G36*
X428949Y148350D02*
X419500D01*
X419335Y148354D01*
X419169Y148366D01*
X419008Y148390D01*
X418847Y148417D01*
X418685Y148457D01*
X418528Y148504D01*
X418370Y148559D01*
X418221Y148622D01*
X418071Y148693D01*
X417925Y148772D01*
X417783Y148858D01*
X417650Y148953D01*
X417520Y149051D01*
X417394Y149158D01*
X417272Y149272D01*
X417158Y149394D01*
X417051Y149520D01*
X416953Y149650D01*
X416858Y149784D01*
X416772Y149925D01*
X416693Y150071D01*
X416622Y150221D01*
X416559Y150370D01*
X416504Y150528D01*
X416457Y150685D01*
X416417Y150847D01*
X416390Y151008D01*
X416366Y151169D01*
X416354Y151335D01*
X416350Y151500D01*
X416354Y151665D01*
X416366Y151831D01*
X416390Y151992D01*
X416417Y152154D01*
X416457Y152315D01*
X416504Y152472D01*
X416559Y152630D01*
X416622Y152779D01*
X416693Y152929D01*
X416772Y153075D01*
X416858Y153217D01*
X416953Y153350D01*
X417051Y153480D01*
X417158Y153606D01*
X417272Y153728D01*
X417394Y153842D01*
X417520Y153949D01*
X417650Y154047D01*
X417783Y154142D01*
X417925Y154228D01*
X418071Y154307D01*
X418221Y154378D01*
X418370Y154441D01*
X418528Y154496D01*
X418685Y154543D01*
X418847Y154583D01*
X419008Y154610D01*
X419169Y154634D01*
X419335Y154646D01*
X419500Y154650D01*
X428949D01*
Y148350D01*
D02*
G37*
G36*
X349665Y154646D02*
X349831Y154634D01*
X349992Y154610D01*
X350153Y154583D01*
X350315Y154543D01*
X350472Y154496D01*
X350630Y154441D01*
X350780Y154378D01*
X350929Y154307D01*
X351075Y154228D01*
X351217Y154142D01*
X351350Y154047D01*
X351480Y153949D01*
X351606Y153842D01*
X351728Y153728D01*
X351842Y153606D01*
X351949Y153480D01*
X352047Y153350D01*
X352142Y153217D01*
X352228Y153075D01*
X352307Y152929D01*
X352378Y152779D01*
X352441Y152630D01*
X352496Y152472D01*
X352543Y152315D01*
X352583Y152154D01*
X352610Y151992D01*
X352634Y151831D01*
X352646Y151665D01*
X352650Y151500D01*
X352646Y151335D01*
X352634Y151169D01*
X352610Y151008D01*
X352583Y150847D01*
X352543Y150685D01*
X352496Y150528D01*
X352441Y150370D01*
X352378Y150221D01*
X352307Y150071D01*
X352228Y149925D01*
X352142Y149784D01*
X352047Y149650D01*
X351949Y149520D01*
X351842Y149394D01*
X351728Y149272D01*
X351606Y149158D01*
X351480Y149051D01*
X351350Y148953D01*
X351217Y148858D01*
X351075Y148772D01*
X350929Y148693D01*
X350780Y148622D01*
X350630Y148559D01*
X350472Y148504D01*
X350315Y148457D01*
X350153Y148417D01*
X349992Y148390D01*
X349831Y148366D01*
X349665Y148354D01*
X349500Y148350D01*
X340051D01*
Y154650D01*
X349500D01*
X349665Y154646D01*
D02*
G37*
G36*
X428949Y138350D02*
X419500D01*
X419335Y138354D01*
X419169Y138366D01*
X419008Y138390D01*
X418847Y138417D01*
X418685Y138457D01*
X418528Y138504D01*
X418370Y138559D01*
X418221Y138622D01*
X418071Y138693D01*
X417925Y138772D01*
X417783Y138858D01*
X417650Y138953D01*
X417520Y139051D01*
X417394Y139157D01*
X417272Y139272D01*
X417158Y139394D01*
X417051Y139520D01*
X416953Y139650D01*
X416858Y139784D01*
X416772Y139925D01*
X416693Y140071D01*
X416622Y140220D01*
X416559Y140370D01*
X416504Y140528D01*
X416457Y140685D01*
X416417Y140847D01*
X416390Y141008D01*
X416366Y141169D01*
X416354Y141335D01*
X416350Y141500D01*
X416354Y141665D01*
X416366Y141831D01*
X416390Y141992D01*
X416417Y142154D01*
X416457Y142315D01*
X416504Y142472D01*
X416559Y142630D01*
X416622Y142780D01*
X416693Y142929D01*
X416772Y143075D01*
X416858Y143217D01*
X416953Y143350D01*
X417051Y143480D01*
X417158Y143606D01*
X417272Y143728D01*
X417394Y143842D01*
X417520Y143949D01*
X417650Y144047D01*
X417783Y144142D01*
X417925Y144228D01*
X418071Y144307D01*
X418221Y144378D01*
X418370Y144441D01*
X418528Y144496D01*
X418685Y144543D01*
X418847Y144583D01*
X419008Y144610D01*
X419169Y144634D01*
X419335Y144646D01*
X419500Y144650D01*
X428949D01*
Y138350D01*
D02*
G37*
G36*
X349665Y144646D02*
X349831Y144634D01*
X349992Y144610D01*
X350153Y144583D01*
X350315Y144543D01*
X350472Y144496D01*
X350630Y144441D01*
X350780Y144378D01*
X350929Y144307D01*
X351075Y144228D01*
X351217Y144142D01*
X351350Y144047D01*
X351480Y143949D01*
X351606Y143842D01*
X351728Y143728D01*
X351842Y143606D01*
X351949Y143480D01*
X352047Y143350D01*
X352142Y143217D01*
X352228Y143075D01*
X352307Y142929D01*
X352378Y142780D01*
X352441Y142630D01*
X352496Y142472D01*
X352543Y142315D01*
X352583Y142154D01*
X352610Y141992D01*
X352634Y141831D01*
X352646Y141665D01*
X352650Y141500D01*
X352646Y141335D01*
X352634Y141169D01*
X352610Y141008D01*
X352583Y140847D01*
X352543Y140685D01*
X352496Y140528D01*
X352441Y140370D01*
X352378Y140220D01*
X352307Y140071D01*
X352228Y139925D01*
X352142Y139784D01*
X352047Y139650D01*
X351949Y139520D01*
X351842Y139394D01*
X351728Y139272D01*
X351606Y139157D01*
X351480Y139051D01*
X351350Y138953D01*
X351217Y138858D01*
X351075Y138772D01*
X350929Y138693D01*
X350780Y138622D01*
X350630Y138559D01*
X350472Y138504D01*
X350315Y138457D01*
X350153Y138417D01*
X349992Y138390D01*
X349831Y138366D01*
X349665Y138354D01*
X349500Y138350D01*
X340051D01*
Y144650D01*
X349500D01*
X349665Y144646D01*
D02*
G37*
G36*
X428949Y128350D02*
X417098D01*
X417055Y128354D01*
X417016Y128358D01*
X416972Y128366D01*
X416933Y128378D01*
X416894Y128390D01*
X416854Y128402D01*
X416819Y128417D01*
X416780Y128437D01*
X416744Y128457D01*
X416709Y128476D01*
X416673Y128500D01*
X416642Y128528D01*
X416610Y128551D01*
X416583Y128583D01*
X416551Y128610D01*
X416528Y128642D01*
X416500Y128673D01*
X416476Y128709D01*
X416457Y128744D01*
X416437Y128779D01*
X416417Y128819D01*
X416402Y128854D01*
X416390Y128894D01*
X416378Y128933D01*
X416366Y128972D01*
X416358Y129016D01*
X416354Y129055D01*
X416350Y129098D01*
Y129138D01*
Y133862D01*
Y133902D01*
X416354Y133945D01*
X416358Y133984D01*
X416366Y134028D01*
X416378Y134067D01*
X416390Y134106D01*
X416402Y134146D01*
X416417Y134181D01*
X416437Y134221D01*
X416457Y134256D01*
X416476Y134291D01*
X416500Y134327D01*
X416528Y134358D01*
X416551Y134390D01*
X416583Y134417D01*
X416610Y134449D01*
X416642Y134472D01*
X416673Y134500D01*
X416709Y134524D01*
X416744Y134543D01*
X416780Y134563D01*
X416819Y134583D01*
X416854Y134598D01*
X416894Y134610D01*
X416933Y134622D01*
X416972Y134634D01*
X417016Y134642D01*
X417055Y134646D01*
X417098Y134650D01*
X428949D01*
Y128350D01*
D02*
G37*
G36*
X351945Y134646D02*
X351984Y134642D01*
X352028Y134634D01*
X352067Y134622D01*
X352106Y134610D01*
X352146Y134598D01*
X352181Y134583D01*
X352221Y134563D01*
X352256Y134543D01*
X352291Y134524D01*
X352327Y134500D01*
X352358Y134472D01*
X352390Y134449D01*
X352417Y134417D01*
X352449Y134390D01*
X352472Y134358D01*
X352500Y134327D01*
X352524Y134291D01*
X352543Y134256D01*
X352563Y134221D01*
X352583Y134181D01*
X352598Y134146D01*
X352610Y134106D01*
X352622Y134067D01*
X352634Y134028D01*
X352642Y133984D01*
X352646Y133945D01*
X352650Y133902D01*
Y133862D01*
Y129138D01*
Y129098D01*
X352646Y129055D01*
X352642Y129016D01*
X352634Y128972D01*
X352622Y128933D01*
X352610Y128894D01*
X352598Y128854D01*
X352583Y128819D01*
X352563Y128779D01*
X352543Y128744D01*
X352524Y128709D01*
X352500Y128673D01*
X352472Y128642D01*
X352449Y128610D01*
X352417Y128583D01*
X352390Y128551D01*
X352358Y128528D01*
X352327Y128500D01*
X352291Y128476D01*
X352256Y128457D01*
X352221Y128437D01*
X352181Y128417D01*
X352146Y128402D01*
X352106Y128390D01*
X352067Y128378D01*
X352028Y128366D01*
X351984Y128358D01*
X351945Y128354D01*
X351902Y128350D01*
X340051D01*
Y134650D01*
X351902D01*
X351945Y134646D01*
D02*
G37*
G36*
X428949Y118350D02*
X419500D01*
X419335Y118354D01*
X419169Y118366D01*
X419008Y118390D01*
X418847Y118417D01*
X418685Y118457D01*
X418528Y118504D01*
X418370Y118559D01*
X418221Y118622D01*
X418071Y118693D01*
X417925Y118772D01*
X417783Y118858D01*
X417650Y118953D01*
X417520Y119051D01*
X417394Y119158D01*
X417272Y119272D01*
X417158Y119394D01*
X417051Y119520D01*
X416953Y119650D01*
X416858Y119783D01*
X416772Y119925D01*
X416693Y120071D01*
X416622Y120220D01*
X416559Y120370D01*
X416504Y120528D01*
X416457Y120685D01*
X416417Y120846D01*
X416390Y121008D01*
X416366Y121169D01*
X416354Y121335D01*
X416350Y121500D01*
X416354Y121665D01*
X416366Y121831D01*
X416390Y121992D01*
X416417Y122153D01*
X416457Y122315D01*
X416504Y122472D01*
X416559Y122630D01*
X416622Y122780D01*
X416693Y122929D01*
X416772Y123075D01*
X416858Y123216D01*
X416953Y123350D01*
X417051Y123480D01*
X417158Y123606D01*
X417272Y123728D01*
X417394Y123843D01*
X417520Y123949D01*
X417650Y124047D01*
X417783Y124142D01*
X417925Y124228D01*
X418071Y124307D01*
X418221Y124378D01*
X418370Y124441D01*
X418528Y124496D01*
X418685Y124543D01*
X418847Y124583D01*
X419008Y124610D01*
X419169Y124634D01*
X419335Y124646D01*
X419500Y124650D01*
X428949D01*
Y118350D01*
D02*
G37*
G36*
X349665Y124646D02*
X349831Y124634D01*
X349992Y124610D01*
X350153Y124583D01*
X350315Y124543D01*
X350472Y124496D01*
X350630Y124441D01*
X350780Y124378D01*
X350929Y124307D01*
X351075Y124228D01*
X351217Y124142D01*
X351350Y124047D01*
X351480Y123949D01*
X351606Y123843D01*
X351728Y123728D01*
X351842Y123606D01*
X351949Y123480D01*
X352047Y123350D01*
X352142Y123216D01*
X352228Y123075D01*
X352307Y122929D01*
X352378Y122780D01*
X352441Y122630D01*
X352496Y122472D01*
X352543Y122315D01*
X352583Y122153D01*
X352610Y121992D01*
X352634Y121831D01*
X352646Y121665D01*
X352650Y121500D01*
X352646Y121335D01*
X352634Y121169D01*
X352610Y121008D01*
X352583Y120846D01*
X352543Y120685D01*
X352496Y120528D01*
X352441Y120370D01*
X352378Y120220D01*
X352307Y120071D01*
X352228Y119925D01*
X352142Y119783D01*
X352047Y119650D01*
X351949Y119520D01*
X351842Y119394D01*
X351728Y119272D01*
X351606Y119158D01*
X351480Y119051D01*
X351350Y118953D01*
X351217Y118858D01*
X351075Y118772D01*
X350929Y118693D01*
X350780Y118622D01*
X350630Y118559D01*
X350472Y118504D01*
X350315Y118457D01*
X350153Y118417D01*
X349992Y118390D01*
X349831Y118366D01*
X349665Y118354D01*
X349500Y118350D01*
X340051D01*
Y124650D01*
X349500D01*
X349665Y124646D01*
D02*
G37*
G36*
X428949Y108350D02*
X419500D01*
X419335Y108354D01*
X419169Y108366D01*
X419008Y108390D01*
X418847Y108417D01*
X418685Y108457D01*
X418528Y108504D01*
X418370Y108559D01*
X418221Y108622D01*
X418071Y108693D01*
X417925Y108772D01*
X417783Y108858D01*
X417650Y108953D01*
X417520Y109051D01*
X417394Y109158D01*
X417272Y109272D01*
X417158Y109394D01*
X417051Y109520D01*
X416953Y109650D01*
X416858Y109783D01*
X416772Y109925D01*
X416693Y110071D01*
X416622Y110221D01*
X416559Y110370D01*
X416504Y110528D01*
X416457Y110685D01*
X416417Y110846D01*
X416390Y111008D01*
X416366Y111169D01*
X416354Y111335D01*
X416350Y111500D01*
X416354Y111665D01*
X416366Y111831D01*
X416390Y111992D01*
X416417Y112153D01*
X416457Y112315D01*
X416504Y112472D01*
X416559Y112630D01*
X416622Y112779D01*
X416693Y112929D01*
X416772Y113075D01*
X416858Y113216D01*
X416953Y113350D01*
X417051Y113480D01*
X417158Y113606D01*
X417272Y113728D01*
X417394Y113842D01*
X417520Y113949D01*
X417650Y114047D01*
X417783Y114142D01*
X417925Y114228D01*
X418071Y114307D01*
X418221Y114378D01*
X418370Y114441D01*
X418528Y114496D01*
X418685Y114543D01*
X418847Y114583D01*
X419008Y114610D01*
X419169Y114634D01*
X419335Y114646D01*
X419500Y114650D01*
X428949D01*
Y108350D01*
D02*
G37*
G36*
X349665Y114646D02*
X349831Y114634D01*
X349992Y114610D01*
X350153Y114583D01*
X350315Y114543D01*
X350472Y114496D01*
X350630Y114441D01*
X350780Y114378D01*
X350929Y114307D01*
X351075Y114228D01*
X351217Y114142D01*
X351350Y114047D01*
X351480Y113949D01*
X351606Y113842D01*
X351728Y113728D01*
X351842Y113606D01*
X351949Y113480D01*
X352047Y113350D01*
X352142Y113216D01*
X352228Y113075D01*
X352307Y112929D01*
X352378Y112779D01*
X352441Y112630D01*
X352496Y112472D01*
X352543Y112315D01*
X352583Y112153D01*
X352610Y111992D01*
X352634Y111831D01*
X352646Y111665D01*
X352650Y111500D01*
X352646Y111335D01*
X352634Y111169D01*
X352610Y111008D01*
X352583Y110846D01*
X352543Y110685D01*
X352496Y110528D01*
X352441Y110370D01*
X352378Y110221D01*
X352307Y110071D01*
X352228Y109925D01*
X352142Y109783D01*
X352047Y109650D01*
X351949Y109520D01*
X351842Y109394D01*
X351728Y109272D01*
X351606Y109158D01*
X351480Y109051D01*
X351350Y108953D01*
X351217Y108858D01*
X351075Y108772D01*
X350929Y108693D01*
X350780Y108622D01*
X350630Y108559D01*
X350472Y108504D01*
X350315Y108457D01*
X350153Y108417D01*
X349992Y108390D01*
X349831Y108366D01*
X349665Y108354D01*
X349500Y108350D01*
X340051D01*
Y114650D01*
X349500D01*
X349665Y114646D01*
D02*
G37*
G36*
X428949Y98350D02*
X419500D01*
X419335Y98354D01*
X419169Y98366D01*
X419008Y98390D01*
X418847Y98417D01*
X418685Y98457D01*
X418528Y98504D01*
X418370Y98559D01*
X418221Y98622D01*
X418071Y98693D01*
X417925Y98772D01*
X417783Y98858D01*
X417650Y98953D01*
X417520Y99051D01*
X417394Y99158D01*
X417272Y99272D01*
X417158Y99394D01*
X417051Y99520D01*
X416953Y99650D01*
X416858Y99783D01*
X416772Y99925D01*
X416693Y100071D01*
X416622Y100221D01*
X416559Y100370D01*
X416504Y100528D01*
X416457Y100685D01*
X416417Y100847D01*
X416390Y101008D01*
X416366Y101169D01*
X416354Y101335D01*
X416350Y101500D01*
X416354Y101665D01*
X416366Y101831D01*
X416390Y101992D01*
X416417Y102154D01*
X416457Y102315D01*
X416504Y102472D01*
X416559Y102630D01*
X416622Y102779D01*
X416693Y102929D01*
X416772Y103075D01*
X416858Y103217D01*
X416953Y103350D01*
X417051Y103480D01*
X417158Y103606D01*
X417272Y103728D01*
X417394Y103842D01*
X417520Y103949D01*
X417650Y104047D01*
X417783Y104142D01*
X417925Y104228D01*
X418071Y104307D01*
X418221Y104378D01*
X418370Y104441D01*
X418528Y104496D01*
X418685Y104543D01*
X418847Y104583D01*
X419008Y104610D01*
X419169Y104634D01*
X419335Y104646D01*
X419500Y104650D01*
X428949D01*
Y98350D01*
D02*
G37*
G36*
X349665Y104646D02*
X349831Y104634D01*
X349992Y104610D01*
X350153Y104583D01*
X350315Y104543D01*
X350472Y104496D01*
X350630Y104441D01*
X350780Y104378D01*
X350929Y104307D01*
X351075Y104228D01*
X351217Y104142D01*
X351350Y104047D01*
X351480Y103949D01*
X351606Y103842D01*
X351728Y103728D01*
X351842Y103606D01*
X351949Y103480D01*
X352047Y103350D01*
X352142Y103217D01*
X352228Y103075D01*
X352307Y102929D01*
X352378Y102779D01*
X352441Y102630D01*
X352496Y102472D01*
X352543Y102315D01*
X352583Y102154D01*
X352610Y101992D01*
X352634Y101831D01*
X352646Y101665D01*
X352650Y101500D01*
X352646Y101335D01*
X352634Y101169D01*
X352610Y101008D01*
X352583Y100847D01*
X352543Y100685D01*
X352496Y100528D01*
X352441Y100370D01*
X352378Y100221D01*
X352307Y100071D01*
X352228Y99925D01*
X352142Y99783D01*
X352047Y99650D01*
X351949Y99520D01*
X351842Y99394D01*
X351728Y99272D01*
X351606Y99158D01*
X351480Y99051D01*
X351350Y98953D01*
X351217Y98858D01*
X351075Y98772D01*
X350929Y98693D01*
X350780Y98622D01*
X350630Y98559D01*
X350472Y98504D01*
X350315Y98457D01*
X350153Y98417D01*
X349992Y98390D01*
X349831Y98366D01*
X349665Y98354D01*
X349500Y98350D01*
X340051D01*
Y104650D01*
X349500D01*
X349665Y104646D01*
D02*
G37*
G36*
X428949Y88350D02*
X419500D01*
X419335Y88354D01*
X419169Y88366D01*
X419008Y88390D01*
X418847Y88417D01*
X418685Y88457D01*
X418528Y88504D01*
X418370Y88559D01*
X418221Y88622D01*
X418071Y88693D01*
X417925Y88772D01*
X417783Y88858D01*
X417650Y88953D01*
X417520Y89051D01*
X417394Y89157D01*
X417272Y89272D01*
X417158Y89394D01*
X417051Y89520D01*
X416953Y89650D01*
X416858Y89784D01*
X416772Y89925D01*
X416693Y90071D01*
X416622Y90220D01*
X416559Y90370D01*
X416504Y90528D01*
X416457Y90685D01*
X416417Y90847D01*
X416390Y91008D01*
X416366Y91169D01*
X416354Y91335D01*
X416350Y91500D01*
X416354Y91665D01*
X416366Y91831D01*
X416390Y91992D01*
X416417Y92154D01*
X416457Y92315D01*
X416504Y92472D01*
X416559Y92630D01*
X416622Y92779D01*
X416693Y92929D01*
X416772Y93075D01*
X416858Y93217D01*
X416953Y93350D01*
X417051Y93480D01*
X417158Y93606D01*
X417272Y93728D01*
X417394Y93843D01*
X417520Y93949D01*
X417650Y94047D01*
X417783Y94142D01*
X417925Y94228D01*
X418071Y94307D01*
X418221Y94378D01*
X418370Y94441D01*
X418528Y94496D01*
X418685Y94543D01*
X418847Y94583D01*
X419008Y94610D01*
X419169Y94634D01*
X419335Y94646D01*
X419500Y94650D01*
X428949D01*
Y88350D01*
D02*
G37*
G36*
X349665Y94646D02*
X349831Y94634D01*
X349992Y94610D01*
X350153Y94583D01*
X350315Y94543D01*
X350472Y94496D01*
X350630Y94441D01*
X350780Y94378D01*
X350929Y94307D01*
X351075Y94228D01*
X351217Y94142D01*
X351350Y94047D01*
X351480Y93949D01*
X351606Y93843D01*
X351728Y93728D01*
X351842Y93606D01*
X351949Y93480D01*
X352047Y93350D01*
X352142Y93217D01*
X352228Y93075D01*
X352307Y92929D01*
X352378Y92779D01*
X352441Y92630D01*
X352496Y92472D01*
X352543Y92315D01*
X352583Y92154D01*
X352610Y91992D01*
X352634Y91831D01*
X352646Y91665D01*
X352650Y91500D01*
X352646Y91335D01*
X352634Y91169D01*
X352610Y91008D01*
X352583Y90847D01*
X352543Y90685D01*
X352496Y90528D01*
X352441Y90370D01*
X352378Y90220D01*
X352307Y90071D01*
X352228Y89925D01*
X352142Y89784D01*
X352047Y89650D01*
X351949Y89520D01*
X351842Y89394D01*
X351728Y89272D01*
X351606Y89157D01*
X351480Y89051D01*
X351350Y88953D01*
X351217Y88858D01*
X351075Y88772D01*
X350929Y88693D01*
X350780Y88622D01*
X350630Y88559D01*
X350472Y88504D01*
X350315Y88457D01*
X350153Y88417D01*
X349992Y88390D01*
X349831Y88366D01*
X349665Y88354D01*
X349500Y88350D01*
X340051D01*
Y94650D01*
X349500D01*
X349665Y94646D01*
D02*
G37*
G36*
X428949Y78350D02*
X417098D01*
X417055Y78354D01*
X417016Y78358D01*
X416972Y78366D01*
X416933Y78378D01*
X416894Y78390D01*
X416854Y78402D01*
X416819Y78417D01*
X416780Y78437D01*
X416744Y78457D01*
X416709Y78476D01*
X416673Y78500D01*
X416642Y78528D01*
X416610Y78551D01*
X416583Y78583D01*
X416551Y78610D01*
X416528Y78642D01*
X416500Y78673D01*
X416476Y78709D01*
X416457Y78744D01*
X416437Y78780D01*
X416417Y78819D01*
X416402Y78854D01*
X416390Y78894D01*
X416378Y78933D01*
X416366Y78972D01*
X416358Y79016D01*
X416354Y79055D01*
X416350Y79098D01*
Y79138D01*
Y83862D01*
Y83902D01*
X416354Y83945D01*
X416358Y83984D01*
X416366Y84028D01*
X416378Y84067D01*
X416390Y84106D01*
X416402Y84146D01*
X416417Y84181D01*
X416437Y84220D01*
X416457Y84256D01*
X416476Y84291D01*
X416500Y84327D01*
X416528Y84358D01*
X416551Y84390D01*
X416583Y84417D01*
X416610Y84449D01*
X416642Y84472D01*
X416673Y84500D01*
X416709Y84524D01*
X416744Y84543D01*
X416780Y84563D01*
X416819Y84583D01*
X416854Y84598D01*
X416894Y84610D01*
X416933Y84622D01*
X416972Y84634D01*
X417016Y84642D01*
X417055Y84646D01*
X417098Y84650D01*
X428949D01*
Y78350D01*
D02*
G37*
G36*
X351945Y84646D02*
X351984Y84642D01*
X352028Y84634D01*
X352067Y84622D01*
X352106Y84610D01*
X352146Y84598D01*
X352181Y84583D01*
X352221Y84563D01*
X352256Y84543D01*
X352291Y84524D01*
X352327Y84500D01*
X352358Y84472D01*
X352390Y84449D01*
X352417Y84417D01*
X352449Y84390D01*
X352472Y84358D01*
X352500Y84327D01*
X352524Y84291D01*
X352543Y84256D01*
X352563Y84220D01*
X352583Y84181D01*
X352598Y84146D01*
X352610Y84106D01*
X352622Y84067D01*
X352634Y84028D01*
X352642Y83984D01*
X352646Y83945D01*
X352650Y83902D01*
Y83862D01*
Y79138D01*
Y79098D01*
X352646Y79055D01*
X352642Y79016D01*
X352634Y78972D01*
X352622Y78933D01*
X352610Y78894D01*
X352598Y78854D01*
X352583Y78819D01*
X352563Y78780D01*
X352543Y78744D01*
X352524Y78709D01*
X352500Y78673D01*
X352472Y78642D01*
X352449Y78610D01*
X352417Y78583D01*
X352390Y78551D01*
X352358Y78528D01*
X352327Y78500D01*
X352291Y78476D01*
X352256Y78457D01*
X352221Y78437D01*
X352181Y78417D01*
X352146Y78402D01*
X352106Y78390D01*
X352067Y78378D01*
X352028Y78366D01*
X351984Y78358D01*
X351945Y78354D01*
X351902Y78350D01*
X340051D01*
Y84650D01*
X351902D01*
X351945Y84646D01*
D02*
G37*
G36*
X428949Y68350D02*
X419500D01*
X419335Y68354D01*
X419169Y68366D01*
X419008Y68390D01*
X418847Y68417D01*
X418685Y68457D01*
X418528Y68504D01*
X418370Y68559D01*
X418221Y68622D01*
X418071Y68693D01*
X417925Y68772D01*
X417783Y68858D01*
X417650Y68953D01*
X417520Y69051D01*
X417394Y69157D01*
X417272Y69272D01*
X417158Y69394D01*
X417051Y69520D01*
X416953Y69650D01*
X416858Y69784D01*
X416772Y69925D01*
X416693Y70071D01*
X416622Y70221D01*
X416559Y70370D01*
X416504Y70528D01*
X416457Y70685D01*
X416417Y70846D01*
X416390Y71008D01*
X416366Y71169D01*
X416354Y71335D01*
X416350Y71500D01*
X416354Y71665D01*
X416366Y71831D01*
X416390Y71992D01*
X416417Y72154D01*
X416457Y72315D01*
X416504Y72472D01*
X416559Y72630D01*
X416622Y72780D01*
X416693Y72929D01*
X416772Y73075D01*
X416858Y73216D01*
X416953Y73350D01*
X417051Y73480D01*
X417158Y73606D01*
X417272Y73728D01*
X417394Y73843D01*
X417520Y73949D01*
X417650Y74047D01*
X417783Y74142D01*
X417925Y74228D01*
X418071Y74307D01*
X418221Y74378D01*
X418370Y74441D01*
X418528Y74496D01*
X418685Y74543D01*
X418847Y74583D01*
X419008Y74610D01*
X419169Y74634D01*
X419335Y74646D01*
X419500Y74650D01*
X428949D01*
Y68350D01*
D02*
G37*
G36*
X349665Y74646D02*
X349831Y74634D01*
X349992Y74610D01*
X350153Y74583D01*
X350315Y74543D01*
X350472Y74496D01*
X350630Y74441D01*
X350780Y74378D01*
X350929Y74307D01*
X351075Y74228D01*
X351217Y74142D01*
X351350Y74047D01*
X351480Y73949D01*
X351606Y73843D01*
X351728Y73728D01*
X351842Y73606D01*
X351949Y73480D01*
X352047Y73350D01*
X352142Y73216D01*
X352228Y73075D01*
X352307Y72929D01*
X352378Y72780D01*
X352441Y72630D01*
X352496Y72472D01*
X352543Y72315D01*
X352583Y72154D01*
X352610Y71992D01*
X352634Y71831D01*
X352646Y71665D01*
X352650Y71500D01*
X352646Y71335D01*
X352634Y71169D01*
X352610Y71008D01*
X352583Y70846D01*
X352543Y70685D01*
X352496Y70528D01*
X352441Y70370D01*
X352378Y70221D01*
X352307Y70071D01*
X352228Y69925D01*
X352142Y69784D01*
X352047Y69650D01*
X351949Y69520D01*
X351842Y69394D01*
X351728Y69272D01*
X351606Y69157D01*
X351480Y69051D01*
X351350Y68953D01*
X351217Y68858D01*
X351075Y68772D01*
X350929Y68693D01*
X350780Y68622D01*
X350630Y68559D01*
X350472Y68504D01*
X350315Y68457D01*
X350153Y68417D01*
X349992Y68390D01*
X349831Y68366D01*
X349665Y68354D01*
X349500Y68350D01*
X340051D01*
Y74650D01*
X349500D01*
X349665Y74646D01*
D02*
G37*
G36*
X428949Y58350D02*
X419500D01*
X419335Y58354D01*
X419169Y58366D01*
X419008Y58390D01*
X418847Y58417D01*
X418685Y58457D01*
X418528Y58504D01*
X418370Y58559D01*
X418221Y58622D01*
X418071Y58693D01*
X417925Y58772D01*
X417783Y58858D01*
X417650Y58953D01*
X417520Y59051D01*
X417394Y59158D01*
X417272Y59272D01*
X417158Y59394D01*
X417051Y59520D01*
X416953Y59650D01*
X416858Y59784D01*
X416772Y59925D01*
X416693Y60071D01*
X416622Y60220D01*
X416559Y60370D01*
X416504Y60528D01*
X416457Y60685D01*
X416417Y60847D01*
X416390Y61008D01*
X416366Y61169D01*
X416354Y61335D01*
X416350Y61500D01*
X416354Y61665D01*
X416366Y61831D01*
X416390Y61992D01*
X416417Y62154D01*
X416457Y62315D01*
X416504Y62472D01*
X416559Y62630D01*
X416622Y62779D01*
X416693Y62929D01*
X416772Y63075D01*
X416858Y63217D01*
X416953Y63350D01*
X417051Y63480D01*
X417158Y63606D01*
X417272Y63728D01*
X417394Y63842D01*
X417520Y63949D01*
X417650Y64047D01*
X417783Y64142D01*
X417925Y64228D01*
X418071Y64307D01*
X418221Y64378D01*
X418370Y64441D01*
X418528Y64496D01*
X418685Y64543D01*
X418847Y64583D01*
X419008Y64610D01*
X419169Y64634D01*
X419335Y64646D01*
X419500Y64650D01*
X428949D01*
Y58350D01*
D02*
G37*
G36*
X349665Y64646D02*
X349831Y64634D01*
X349992Y64610D01*
X350153Y64583D01*
X350315Y64543D01*
X350472Y64496D01*
X350630Y64441D01*
X350780Y64378D01*
X350929Y64307D01*
X351075Y64228D01*
X351217Y64142D01*
X351350Y64047D01*
X351480Y63949D01*
X351606Y63842D01*
X351728Y63728D01*
X351842Y63606D01*
X351949Y63480D01*
X352047Y63350D01*
X352142Y63217D01*
X352228Y63075D01*
X352307Y62929D01*
X352378Y62779D01*
X352441Y62630D01*
X352496Y62472D01*
X352543Y62315D01*
X352583Y62154D01*
X352610Y61992D01*
X352634Y61831D01*
X352646Y61665D01*
X352650Y61500D01*
X352646Y61335D01*
X352634Y61169D01*
X352610Y61008D01*
X352583Y60847D01*
X352543Y60685D01*
X352496Y60528D01*
X352441Y60370D01*
X352378Y60220D01*
X352307Y60071D01*
X352228Y59925D01*
X352142Y59784D01*
X352047Y59650D01*
X351949Y59520D01*
X351842Y59394D01*
X351728Y59272D01*
X351606Y59158D01*
X351480Y59051D01*
X351350Y58953D01*
X351217Y58858D01*
X351075Y58772D01*
X350929Y58693D01*
X350780Y58622D01*
X350630Y58559D01*
X350472Y58504D01*
X350315Y58457D01*
X350153Y58417D01*
X349992Y58390D01*
X349831Y58366D01*
X349665Y58354D01*
X349500Y58350D01*
X340051D01*
Y64650D01*
X349500D01*
X349665Y64646D01*
D02*
G37*
G36*
X428949Y48350D02*
X419500D01*
X419335Y48354D01*
X419169Y48366D01*
X419008Y48390D01*
X418847Y48417D01*
X418685Y48457D01*
X418528Y48504D01*
X418370Y48559D01*
X418221Y48622D01*
X418071Y48693D01*
X417925Y48772D01*
X417783Y48858D01*
X417650Y48953D01*
X417520Y49051D01*
X417394Y49158D01*
X417272Y49272D01*
X417158Y49394D01*
X417051Y49520D01*
X416953Y49650D01*
X416858Y49784D01*
X416772Y49925D01*
X416693Y50071D01*
X416622Y50221D01*
X416559Y50370D01*
X416504Y50528D01*
X416457Y50685D01*
X416417Y50846D01*
X416390Y51008D01*
X416366Y51169D01*
X416354Y51335D01*
X416350Y51500D01*
X416354Y51665D01*
X416366Y51831D01*
X416390Y51992D01*
X416417Y52153D01*
X416457Y52315D01*
X416504Y52472D01*
X416559Y52630D01*
X416622Y52780D01*
X416693Y52929D01*
X416772Y53075D01*
X416858Y53216D01*
X416953Y53350D01*
X417051Y53480D01*
X417158Y53606D01*
X417272Y53728D01*
X417394Y53843D01*
X417520Y53949D01*
X417650Y54047D01*
X417783Y54142D01*
X417925Y54228D01*
X418071Y54307D01*
X418221Y54378D01*
X418370Y54441D01*
X418528Y54496D01*
X418685Y54543D01*
X418847Y54583D01*
X419008Y54610D01*
X419169Y54634D01*
X419335Y54646D01*
X419500Y54650D01*
X428949D01*
Y48350D01*
D02*
G37*
G36*
X349665Y54646D02*
X349831Y54634D01*
X349992Y54610D01*
X350153Y54583D01*
X350315Y54543D01*
X350472Y54496D01*
X350630Y54441D01*
X350780Y54378D01*
X350929Y54307D01*
X351075Y54228D01*
X351217Y54142D01*
X351350Y54047D01*
X351480Y53949D01*
X351606Y53843D01*
X351728Y53728D01*
X351842Y53606D01*
X351949Y53480D01*
X352047Y53350D01*
X352142Y53216D01*
X352228Y53075D01*
X352307Y52929D01*
X352378Y52780D01*
X352441Y52630D01*
X352496Y52472D01*
X352543Y52315D01*
X352583Y52153D01*
X352610Y51992D01*
X352634Y51831D01*
X352646Y51665D01*
X352650Y51500D01*
X352646Y51335D01*
X352634Y51169D01*
X352610Y51008D01*
X352583Y50846D01*
X352543Y50685D01*
X352496Y50528D01*
X352441Y50370D01*
X352378Y50221D01*
X352307Y50071D01*
X352228Y49925D01*
X352142Y49784D01*
X352047Y49650D01*
X351949Y49520D01*
X351842Y49394D01*
X351728Y49272D01*
X351606Y49158D01*
X351480Y49051D01*
X351350Y48953D01*
X351217Y48858D01*
X351075Y48772D01*
X350929Y48693D01*
X350780Y48622D01*
X350630Y48559D01*
X350472Y48504D01*
X350315Y48457D01*
X350153Y48417D01*
X349992Y48390D01*
X349831Y48366D01*
X349665Y48354D01*
X349500Y48350D01*
X340051D01*
Y54650D01*
X349500D01*
X349665Y54646D01*
D02*
G37*
G36*
X428949Y38350D02*
X419500D01*
X419335Y38354D01*
X419169Y38366D01*
X419008Y38390D01*
X418847Y38417D01*
X418685Y38457D01*
X418528Y38504D01*
X418370Y38559D01*
X418221Y38622D01*
X418071Y38693D01*
X417925Y38772D01*
X417783Y38858D01*
X417650Y38953D01*
X417520Y39051D01*
X417394Y39158D01*
X417272Y39272D01*
X417158Y39394D01*
X417051Y39520D01*
X416953Y39650D01*
X416858Y39783D01*
X416772Y39925D01*
X416693Y40071D01*
X416622Y40220D01*
X416559Y40370D01*
X416504Y40528D01*
X416457Y40685D01*
X416417Y40846D01*
X416390Y41008D01*
X416366Y41169D01*
X416354Y41335D01*
X416350Y41500D01*
X416354Y41665D01*
X416366Y41831D01*
X416390Y41992D01*
X416417Y42153D01*
X416457Y42315D01*
X416504Y42472D01*
X416559Y42630D01*
X416622Y42779D01*
X416693Y42929D01*
X416772Y43075D01*
X416858Y43216D01*
X416953Y43350D01*
X417051Y43480D01*
X417158Y43606D01*
X417272Y43728D01*
X417394Y43843D01*
X417520Y43949D01*
X417650Y44047D01*
X417783Y44142D01*
X417925Y44228D01*
X418071Y44307D01*
X418221Y44378D01*
X418370Y44441D01*
X418528Y44496D01*
X418685Y44543D01*
X418847Y44583D01*
X419008Y44610D01*
X419169Y44634D01*
X419335Y44646D01*
X419500Y44650D01*
X428949D01*
Y38350D01*
D02*
G37*
G36*
X349665Y44646D02*
X349831Y44634D01*
X349992Y44610D01*
X350153Y44583D01*
X350315Y44543D01*
X350472Y44496D01*
X350630Y44441D01*
X350780Y44378D01*
X350929Y44307D01*
X351075Y44228D01*
X351217Y44142D01*
X351350Y44047D01*
X351480Y43949D01*
X351606Y43843D01*
X351728Y43728D01*
X351842Y43606D01*
X351949Y43480D01*
X352047Y43350D01*
X352142Y43216D01*
X352228Y43075D01*
X352307Y42929D01*
X352378Y42779D01*
X352441Y42630D01*
X352496Y42472D01*
X352543Y42315D01*
X352583Y42153D01*
X352610Y41992D01*
X352634Y41831D01*
X352646Y41665D01*
X352650Y41500D01*
X352646Y41335D01*
X352634Y41169D01*
X352610Y41008D01*
X352583Y40846D01*
X352543Y40685D01*
X352496Y40528D01*
X352441Y40370D01*
X352378Y40220D01*
X352307Y40071D01*
X352228Y39925D01*
X352142Y39783D01*
X352047Y39650D01*
X351949Y39520D01*
X351842Y39394D01*
X351728Y39272D01*
X351606Y39158D01*
X351480Y39051D01*
X351350Y38953D01*
X351217Y38858D01*
X351075Y38772D01*
X350929Y38693D01*
X350780Y38622D01*
X350630Y38559D01*
X350472Y38504D01*
X350315Y38457D01*
X350153Y38417D01*
X349992Y38390D01*
X349831Y38366D01*
X349665Y38354D01*
X349500Y38350D01*
X340051D01*
Y44650D01*
X349500D01*
X349665Y44646D01*
D02*
G37*
G36*
X428949Y28350D02*
X417098D01*
X417055Y28354D01*
X417016Y28358D01*
X416972Y28366D01*
X416933Y28378D01*
X416894Y28390D01*
X416854Y28402D01*
X416819Y28417D01*
X416780Y28437D01*
X416744Y28457D01*
X416709Y28476D01*
X416673Y28500D01*
X416642Y28528D01*
X416610Y28551D01*
X416583Y28583D01*
X416551Y28610D01*
X416528Y28642D01*
X416500Y28673D01*
X416476Y28709D01*
X416457Y28744D01*
X416437Y28780D01*
X416417Y28819D01*
X416402Y28854D01*
X416390Y28894D01*
X416378Y28933D01*
X416366Y28972D01*
X416358Y29016D01*
X416354Y29055D01*
X416350Y29098D01*
Y29138D01*
Y33862D01*
Y33902D01*
X416354Y33945D01*
X416358Y33984D01*
X416366Y34028D01*
X416378Y34067D01*
X416390Y34106D01*
X416402Y34146D01*
X416417Y34181D01*
X416437Y34220D01*
X416457Y34256D01*
X416476Y34291D01*
X416500Y34327D01*
X416528Y34358D01*
X416551Y34390D01*
X416583Y34417D01*
X416610Y34449D01*
X416642Y34472D01*
X416673Y34500D01*
X416709Y34524D01*
X416744Y34543D01*
X416780Y34563D01*
X416819Y34583D01*
X416854Y34598D01*
X416894Y34610D01*
X416933Y34622D01*
X416972Y34634D01*
X417016Y34642D01*
X417055Y34646D01*
X417098Y34650D01*
X428949D01*
Y28350D01*
D02*
G37*
G36*
X351945Y34646D02*
X351984Y34642D01*
X352028Y34634D01*
X352067Y34622D01*
X352106Y34610D01*
X352146Y34598D01*
X352181Y34583D01*
X352221Y34563D01*
X352256Y34543D01*
X352291Y34524D01*
X352327Y34500D01*
X352358Y34472D01*
X352390Y34449D01*
X352417Y34417D01*
X352449Y34390D01*
X352472Y34358D01*
X352500Y34327D01*
X352524Y34291D01*
X352543Y34256D01*
X352563Y34220D01*
X352583Y34181D01*
X352598Y34146D01*
X352610Y34106D01*
X352622Y34067D01*
X352634Y34028D01*
X352642Y33984D01*
X352646Y33945D01*
X352650Y33902D01*
Y33862D01*
Y29138D01*
Y29098D01*
X352646Y29055D01*
X352642Y29016D01*
X352634Y28972D01*
X352622Y28933D01*
X352610Y28894D01*
X352598Y28854D01*
X352583Y28819D01*
X352563Y28780D01*
X352543Y28744D01*
X352524Y28709D01*
X352500Y28673D01*
X352472Y28642D01*
X352449Y28610D01*
X352417Y28583D01*
X352390Y28551D01*
X352358Y28528D01*
X352327Y28500D01*
X352291Y28476D01*
X352256Y28457D01*
X352221Y28437D01*
X352181Y28417D01*
X352146Y28402D01*
X352106Y28390D01*
X352067Y28378D01*
X352028Y28366D01*
X351984Y28358D01*
X351945Y28354D01*
X351902Y28350D01*
X340051D01*
Y34650D01*
X351902D01*
X351945Y34646D01*
D02*
G37*
G36*
X428949Y18350D02*
X419500D01*
X419335Y18354D01*
X419169Y18366D01*
X419008Y18390D01*
X418847Y18417D01*
X418685Y18457D01*
X418528Y18504D01*
X418370Y18559D01*
X418221Y18622D01*
X418071Y18693D01*
X417925Y18772D01*
X417783Y18858D01*
X417650Y18953D01*
X417520Y19051D01*
X417394Y19158D01*
X417272Y19272D01*
X417158Y19394D01*
X417051Y19520D01*
X416953Y19650D01*
X416858Y19783D01*
X416772Y19925D01*
X416693Y20071D01*
X416622Y20221D01*
X416559Y20370D01*
X416504Y20528D01*
X416457Y20685D01*
X416417Y20846D01*
X416390Y21008D01*
X416366Y21169D01*
X416354Y21335D01*
X416350Y21500D01*
X416354Y21665D01*
X416366Y21831D01*
X416390Y21992D01*
X416417Y22153D01*
X416457Y22315D01*
X416504Y22472D01*
X416559Y22630D01*
X416622Y22780D01*
X416693Y22929D01*
X416772Y23075D01*
X416858Y23216D01*
X416953Y23350D01*
X417051Y23480D01*
X417158Y23606D01*
X417272Y23728D01*
X417394Y23843D01*
X417520Y23949D01*
X417650Y24047D01*
X417783Y24142D01*
X417925Y24228D01*
X418071Y24307D01*
X418221Y24378D01*
X418370Y24441D01*
X418528Y24496D01*
X418685Y24543D01*
X418847Y24583D01*
X419008Y24610D01*
X419169Y24634D01*
X419335Y24646D01*
X419500Y24650D01*
X428949D01*
Y18350D01*
D02*
G37*
G36*
X349665Y24646D02*
X349831Y24634D01*
X349992Y24610D01*
X350153Y24583D01*
X350315Y24543D01*
X350472Y24496D01*
X350630Y24441D01*
X350780Y24378D01*
X350929Y24307D01*
X351075Y24228D01*
X351217Y24142D01*
X351350Y24047D01*
X351480Y23949D01*
X351606Y23843D01*
X351728Y23728D01*
X351842Y23606D01*
X351949Y23480D01*
X352047Y23350D01*
X352142Y23216D01*
X352228Y23075D01*
X352307Y22929D01*
X352378Y22780D01*
X352441Y22630D01*
X352496Y22472D01*
X352543Y22315D01*
X352583Y22153D01*
X352610Y21992D01*
X352634Y21831D01*
X352646Y21665D01*
X352650Y21500D01*
X352646Y21335D01*
X352634Y21169D01*
X352610Y21008D01*
X352583Y20846D01*
X352543Y20685D01*
X352496Y20528D01*
X352441Y20370D01*
X352378Y20221D01*
X352307Y20071D01*
X352228Y19925D01*
X352142Y19783D01*
X352047Y19650D01*
X351949Y19520D01*
X351842Y19394D01*
X351728Y19272D01*
X351606Y19158D01*
X351480Y19051D01*
X351350Y18953D01*
X351217Y18858D01*
X351075Y18772D01*
X350929Y18693D01*
X350780Y18622D01*
X350630Y18559D01*
X350472Y18504D01*
X350315Y18457D01*
X350153Y18417D01*
X349992Y18390D01*
X349831Y18366D01*
X349665Y18354D01*
X349500Y18350D01*
X340051D01*
Y24650D01*
X349500D01*
X349665Y24646D01*
D02*
G37*
G36*
X428949Y8350D02*
X419500D01*
X419335Y8354D01*
X419169Y8366D01*
X419008Y8390D01*
X418847Y8417D01*
X418685Y8457D01*
X418528Y8504D01*
X418370Y8559D01*
X418221Y8622D01*
X418071Y8693D01*
X417925Y8772D01*
X417783Y8858D01*
X417650Y8953D01*
X417520Y9051D01*
X417394Y9157D01*
X417272Y9272D01*
X417158Y9394D01*
X417051Y9520D01*
X416953Y9650D01*
X416858Y9783D01*
X416772Y9925D01*
X416693Y10071D01*
X416622Y10221D01*
X416559Y10370D01*
X416504Y10528D01*
X416457Y10685D01*
X416417Y10847D01*
X416390Y11008D01*
X416366Y11169D01*
X416354Y11335D01*
X416350Y11500D01*
X416354Y11665D01*
X416366Y11831D01*
X416390Y11992D01*
X416417Y12154D01*
X416457Y12315D01*
X416504Y12472D01*
X416559Y12630D01*
X416622Y12779D01*
X416693Y12929D01*
X416772Y13075D01*
X416858Y13216D01*
X416953Y13350D01*
X417051Y13480D01*
X417158Y13606D01*
X417272Y13728D01*
X417394Y13842D01*
X417520Y13949D01*
X417650Y14047D01*
X417783Y14142D01*
X417925Y14228D01*
X418071Y14307D01*
X418221Y14378D01*
X418370Y14441D01*
X418528Y14496D01*
X418685Y14543D01*
X418847Y14583D01*
X419008Y14610D01*
X419169Y14634D01*
X419335Y14646D01*
X419500Y14650D01*
X428949D01*
Y8350D01*
D02*
G37*
G36*
X349665Y14646D02*
X349831Y14634D01*
X349992Y14610D01*
X350153Y14583D01*
X350315Y14543D01*
X350472Y14496D01*
X350630Y14441D01*
X350780Y14378D01*
X350929Y14307D01*
X351075Y14228D01*
X351217Y14142D01*
X351350Y14047D01*
X351480Y13949D01*
X351606Y13842D01*
X351728Y13728D01*
X351842Y13606D01*
X351949Y13480D01*
X352047Y13350D01*
X352142Y13216D01*
X352228Y13075D01*
X352307Y12929D01*
X352378Y12779D01*
X352441Y12630D01*
X352496Y12472D01*
X352543Y12315D01*
X352583Y12154D01*
X352610Y11992D01*
X352634Y11831D01*
X352646Y11665D01*
X352650Y11500D01*
X352646Y11335D01*
X352634Y11169D01*
X352610Y11008D01*
X352583Y10847D01*
X352543Y10685D01*
X352496Y10528D01*
X352441Y10370D01*
X352378Y10221D01*
X352307Y10071D01*
X352228Y9925D01*
X352142Y9783D01*
X352047Y9650D01*
X351949Y9520D01*
X351842Y9394D01*
X351728Y9272D01*
X351606Y9157D01*
X351480Y9051D01*
X351350Y8953D01*
X351217Y8858D01*
X351075Y8772D01*
X350929Y8693D01*
X350780Y8622D01*
X350630Y8559D01*
X350472Y8504D01*
X350315Y8457D01*
X350153Y8417D01*
X349992Y8390D01*
X349831Y8366D01*
X349665Y8354D01*
X349500Y8350D01*
X340051D01*
Y14650D01*
X349500D01*
X349665Y14646D01*
D02*
G37*
D13*
X359000Y40921D02*
Y71921D01*
X349500Y81421D02*
X359000Y71921D01*
X349500Y31421D02*
X359000Y40921D01*
X97000Y124000D02*
X97059Y124059D01*
X96134Y131500D02*
X99500D01*
X96571Y115000D02*
X100000D01*
X97134Y148500D02*
X99850D01*
X98000Y190500D02*
X106528Y199028D01*
X98000Y180500D02*
X109000Y169500D01*
X97059Y124059D02*
X114020D01*
X97500Y140500D02*
X114260D01*
X86547Y43354D02*
X86701D01*
X88563Y41492D02*
X96071Y49000D01*
X16500Y37000D02*
X42500Y11000D01*
X19500Y40500D02*
X46000Y14000D01*
X22500Y44000D02*
X50000Y16500D01*
X28967Y47968D02*
X57935Y19000D01*
X39000Y48000D02*
X65000Y22000D01*
X39000Y58000D02*
X71500Y25500D01*
X86701Y43354D02*
X87626Y42429D01*
Y41000D02*
Y42429D01*
X88563Y41000D02*
Y41492D01*
X42500Y11000D02*
X151000D01*
X46000Y14000D02*
X148500D01*
X50000Y16500D02*
X147000D01*
X57935Y19000D02*
X145500D01*
X95500Y41000D02*
X112760D01*
X65000Y22000D02*
X144500D01*
X71500Y25500D02*
X143500D01*
X78500Y28500D02*
X142500D01*
X85000Y32000D02*
X141000D01*
X120240Y43559D02*
X120496D01*
X120240Y38441D02*
X133000D01*
X16500Y37000D02*
Y66500D01*
X19500Y40500D02*
Y58500D01*
X22500Y44000D02*
Y51500D01*
X19500Y58500D02*
X29000Y68000D01*
X22500Y51500D02*
X29000Y58000D01*
X39000Y68000D02*
X78500Y28500D01*
X39000Y78000D02*
X85000Y32000D01*
X47401Y82500D02*
X86547Y43354D01*
X79577Y57992D02*
X88071D01*
X88563Y57500D02*
Y57992D01*
X95571Y65000D01*
X96071Y49000D02*
X99500D01*
X96437Y57500D02*
X112260D01*
X119740Y60059D02*
X119996D01*
X123937Y64000D01*
X120496Y43559D02*
X124437Y47500D01*
X119740Y54941D02*
X131504D01*
X123937Y64000D02*
X128500D01*
X124437Y47500D02*
X129000D01*
X16500Y66500D02*
X28000Y78000D01*
X29000D01*
Y88000D02*
X34500Y82500D01*
X47401D01*
X39000Y88000D02*
X49569D01*
X39000Y98000D02*
X51000D01*
X75500Y73500D01*
X49569Y88000D02*
X79577Y57992D01*
X56819Y108000D02*
X74319Y90500D01*
X89063D01*
X75500Y73500D02*
X89000D01*
X87764Y107854D02*
X89626Y105992D01*
X89000Y73500D02*
Y73992D01*
X89063Y90500D02*
Y90992D01*
X89626Y105500D02*
Y105992D01*
X89000Y73992D02*
X96508Y81500D01*
X89063Y90992D02*
X96571Y98500D01*
X21000Y126000D02*
Y141500D01*
X25500Y146000D01*
X21000Y126000D02*
X29000Y118000D01*
Y108000D02*
X33500Y112500D01*
X39000Y118000D02*
X45000Y124000D01*
X39000Y108000D02*
X56819D01*
X33500Y112500D02*
X69500D01*
X25500Y146000D02*
X84618D01*
X45000Y124000D02*
X89126D01*
X69500Y112500D02*
X74146Y107854D01*
X87764D01*
X84618Y146000D02*
X89626Y140992D01*
X89126Y124000D02*
Y124492D01*
X89563Y107500D02*
Y107992D01*
X89626Y140500D02*
Y140992D01*
X89126Y124492D02*
X96134Y131500D01*
X89563Y107992D02*
X96571Y115000D01*
X89626Y140992D02*
X97134Y148500D01*
X95571Y65000D02*
X99000D01*
X96508Y81500D02*
X99500D01*
X96571Y98500D02*
X100000D01*
X96937Y90500D02*
X112504D01*
X96874Y73500D02*
X112760D01*
X97437Y107500D02*
X113760D01*
X120240Y76059D02*
X120496D01*
X120740Y93059D02*
X120996D01*
X121240Y110059D02*
X121496D01*
X120496Y76059D02*
X123937Y79500D01*
X120996Y93059D02*
X125437Y97500D01*
X121496Y110059D02*
X125437Y114000D01*
X120240Y70941D02*
X131504D01*
X120740Y87941D02*
X131504D01*
X121240Y104941D02*
X131115D01*
X123937Y79500D02*
X128500D01*
X121500Y126618D02*
X121756D01*
X121740Y143059D02*
X121996D01*
X121756Y126618D02*
X125889Y130751D01*
X121996Y143059D02*
X125937Y147000D01*
X106528Y199028D02*
X143000D01*
X109000Y169500D02*
X143000D01*
X121500Y121500D02*
X131201D01*
X121740Y137941D02*
X131201D01*
X151000Y11000D02*
X166000Y26000D01*
X147000Y16500D02*
X165000Y34500D01*
X166000Y26000D02*
X184155D01*
X145500Y19000D02*
X162000Y35500D01*
X148500Y14000D02*
X177000Y42500D01*
X144500Y22000D02*
X159000Y36500D01*
X143500Y25500D02*
X155000Y37000D01*
X142500Y28500D02*
X152000Y38000D01*
X141000Y32000D02*
X148500Y39500D01*
X165000Y34500D02*
Y47000D01*
X181626Y41992D02*
X182134Y42500D01*
X177000D02*
X182134D01*
X182538D01*
X182134D02*
X188634Y49000D01*
X140937Y40000D02*
Y56500D01*
X162000Y35500D02*
Y63000D01*
X165000Y47000D02*
X176500Y58500D01*
X159000Y36500D02*
Y74500D01*
X131504Y54941D02*
X133063Y56500D01*
X176500Y58500D02*
X181126D01*
X211980Y23441D02*
X223286D01*
X191311Y26000D02*
X204500D01*
X182126Y24992D02*
X189134Y32000D01*
X211980Y28559D02*
X212236D01*
X215677Y32000D01*
X189134D02*
X192500D01*
X215677D02*
X218500D01*
X190874Y42500D02*
X204260D01*
X211740Y45059D02*
X211996D01*
X212421Y45484D01*
Y45740D01*
X214681Y48000D01*
X218500D01*
X188634Y49000D02*
X192000D01*
X190937Y58500D02*
X204260D01*
X181626Y57492D02*
X188634Y64500D01*
X140937Y56500D02*
Y72500D01*
X162000Y63000D02*
X174000Y75000D01*
X155000Y37000D02*
Y101000D01*
X131504Y70941D02*
X133063Y72500D01*
X181626Y73992D02*
X182634Y75000D01*
X174000D02*
X182634D01*
X182875D01*
X181778Y76778D02*
X182000Y77000D01*
X152000Y38000D02*
Y121000D01*
X140937Y72500D02*
Y89500D01*
X159000Y74500D02*
X176000Y91500D01*
X148500Y39500D02*
Y132000D01*
X131504Y87941D02*
X133063Y89500D01*
X176000Y91500D02*
X182634D01*
X183126D01*
X125437Y97500D02*
X129000D01*
X140937Y89500D02*
Y107000D01*
X155000Y101000D02*
X161500Y107500D01*
X211740Y61059D02*
X211996D01*
X215437Y64500D01*
X188634D02*
X192000D01*
X215437D02*
X218500D01*
X192000Y75000D02*
X204760D01*
X212240Y77559D02*
X212496D01*
X182634Y75000D02*
X188634Y81000D01*
X212496Y77559D02*
X215937Y81000D01*
X188634D02*
X192000D01*
X215937D02*
X218500D01*
X191000Y91500D02*
X204760D01*
X212240Y94059D02*
X212496D01*
X182634Y91500D02*
X189134Y98000D01*
X212496Y94059D02*
X216437Y98000D01*
X189134D02*
X192500D01*
X216437D02*
X219000D01*
X223286Y23441D02*
X224983Y25139D01*
X211740Y39941D02*
X224504D01*
X225563Y41000D01*
X232857Y25139D02*
Y57500D01*
X211740Y55941D02*
X224004D01*
X225563Y57500D01*
X408709Y42291D02*
X419500Y31500D01*
X408709Y42291D02*
Y70709D01*
X309500Y52500D02*
X322000Y65000D01*
X212240Y72441D02*
X224504D01*
X225563Y73500D01*
X232857Y57500D02*
Y106500D01*
X212240Y88941D02*
X225567D01*
X225626Y89000D01*
X325000Y62425D02*
Y133500D01*
X212740Y104941D02*
X224504D01*
X408709Y70709D02*
X419500Y81500D01*
X125437Y114000D02*
X129000D01*
X131115Y104941D02*
X131701Y105527D01*
Y105646D01*
X132055Y106000D01*
X131201Y121500D02*
X133063Y123362D01*
X132055Y106000D02*
X133063D01*
Y123362D02*
Y123500D01*
X140937Y107000D02*
Y123500D01*
X152000Y121000D02*
X154500Y123500D01*
X182634D01*
X161500Y107500D02*
X182787D01*
X224504Y104941D02*
X225563Y106000D01*
X190937Y107500D02*
X204760D01*
X182461Y107827D02*
X182898D01*
X212740Y110059D02*
X212996D01*
X182898Y107827D02*
X189571Y114500D01*
X212996Y110059D02*
X216437Y113500D01*
X217648D01*
X218148Y114000D01*
X182126Y122992D02*
X182634Y123500D01*
X183063D01*
X191000Y123937D02*
X191187Y123750D01*
X182634Y123500D02*
X189134Y130000D01*
X192500D01*
X125889Y130751D02*
X128251D01*
X128500Y131000D01*
X140937Y123500D02*
Y140000D01*
X148500Y132000D02*
X156500Y140000D01*
X131201Y137941D02*
X133063Y139803D01*
Y140000D01*
X156500D02*
X183063D01*
X140937D02*
Y140492D01*
X146945Y146500D01*
X183126Y140992D02*
X189634Y147500D01*
X146945Y146500D02*
X146945D01*
X125937Y147000D02*
X129000D01*
X146945Y146500D02*
X199472Y199028D01*
X190937Y123500D02*
X205260D01*
X212740Y126059D02*
X212996D01*
X216688Y129751D01*
X218751D01*
X219000Y130000D01*
X212480Y137441D02*
X224321D01*
X225712Y138832D01*
X190937Y140000D02*
X205000D01*
X212480Y142559D02*
X212736D01*
X215850Y145673D01*
X218827D02*
X219000Y145500D01*
X215850Y145673D02*
X218827D01*
X189634Y147500D02*
X194500D01*
X232857Y122000D02*
Y191143D01*
X224972Y199028D02*
X232857Y191143D01*
X199472Y199028D02*
X211898D01*
X224972D01*
X322000Y65000D02*
Y208650D01*
X325000Y133500D02*
X343173Y151673D01*
X306000Y92500D02*
Y223500D01*
X309500Y112500D02*
Y219500D01*
X303000Y102425D02*
Y229648D01*
X312500Y132500D02*
Y202000D01*
X315500Y150000D02*
Y193000D01*
X266500Y178000D02*
X269000Y180500D01*
X318500Y157500D02*
Y206000D01*
X262500Y182000D02*
X265500Y185000D01*
X258000Y185500D02*
X262000Y189500D01*
X252000Y189000D02*
X258000Y195000D01*
X269000Y180500D02*
Y223000D01*
X265500Y185000D02*
Y219500D01*
X262000Y189500D02*
Y215500D01*
X258000Y195000D02*
Y211500D01*
X309500Y219500D02*
X316500Y226500D01*
X306000Y223500D02*
X312500Y230000D01*
X303000Y229648D02*
X306852Y233500D01*
X307000D01*
X218148Y114000D02*
X218500D01*
X232857Y106500D02*
Y122000D01*
X189571Y114500D02*
X193500D01*
X212740Y120941D02*
X224504D01*
X225563Y122000D01*
D14*
X374953Y23941D02*
D03*
X394047D02*
D03*
D15*
X373772Y12012D02*
D03*
X395228D02*
D03*
D16*
X394343Y57287D02*
D03*
Y47445D02*
D03*
Y37602D02*
D03*
X384500Y23823D02*
D03*
X380563Y10831D02*
D03*
X388437D02*
D03*
D17*
X121500Y121500D02*
D03*
Y126618D02*
D03*
X114020Y124059D02*
D03*
X121740Y137941D02*
D03*
Y143059D02*
D03*
X114260Y140500D02*
D03*
X212740Y120941D02*
D03*
Y126059D02*
D03*
X205260Y123500D02*
D03*
X212480Y137441D02*
D03*
Y142559D02*
D03*
X205000Y140000D02*
D03*
X212240Y88941D02*
D03*
Y94059D02*
D03*
X204760Y91500D02*
D03*
X212740Y104941D02*
D03*
Y110059D02*
D03*
X205260Y107500D02*
D03*
X211740Y39941D02*
D03*
Y45059D02*
D03*
X204260Y42500D02*
D03*
X211980Y23441D02*
D03*
Y28559D02*
D03*
X204500Y26000D02*
D03*
X119740Y54941D02*
D03*
Y60059D02*
D03*
X112260Y57500D02*
D03*
X120240Y38441D02*
D03*
Y43559D02*
D03*
X112760Y41000D02*
D03*
X120240Y70941D02*
D03*
Y76059D02*
D03*
X112760Y73500D02*
D03*
X120740Y87941D02*
D03*
Y93059D02*
D03*
X113260Y90500D02*
D03*
X211740Y55941D02*
D03*
Y61059D02*
D03*
X204260Y58500D02*
D03*
X212240Y72441D02*
D03*
Y77559D02*
D03*
X204760Y75000D02*
D03*
X121240Y104941D02*
D03*
Y110059D02*
D03*
X113760Y107500D02*
D03*
D18*
X133063Y123500D02*
D03*
X140937D02*
D03*
X133063Y140000D02*
D03*
X140937D02*
D03*
X89626Y140500D02*
D03*
X97500D02*
D03*
X89126Y124000D02*
D03*
X97000D02*
D03*
X225563Y122000D02*
D03*
X233437D02*
D03*
X225712Y138832D02*
D03*
X233586D02*
D03*
X225563Y90500D02*
D03*
X233437D02*
D03*
X225563Y73500D02*
D03*
X233437D02*
D03*
X225563Y57500D02*
D03*
X233437D02*
D03*
X225563Y41000D02*
D03*
X233437D02*
D03*
X225563Y106500D02*
D03*
X233437D02*
D03*
X183000Y42500D02*
D03*
X190874D02*
D03*
X183063Y26000D02*
D03*
X190937D02*
D03*
X88563Y41000D02*
D03*
X96437D02*
D03*
X88563Y57500D02*
D03*
X96437D02*
D03*
X133063Y40000D02*
D03*
X140937D02*
D03*
X133063Y56500D02*
D03*
X140937D02*
D03*
X89063Y90500D02*
D03*
X96937D02*
D03*
X89000Y73500D02*
D03*
X96874D02*
D03*
X133063Y72500D02*
D03*
X140937D02*
D03*
X133063Y89500D02*
D03*
X140937D02*
D03*
X224983Y25139D02*
D03*
X232857D02*
D03*
X183063Y58500D02*
D03*
X190937D02*
D03*
X183063Y75000D02*
D03*
X190937D02*
D03*
X183126Y91500D02*
D03*
X191000D02*
D03*
X89563Y107500D02*
D03*
X97437D02*
D03*
X133063Y107000D02*
D03*
X140937D02*
D03*
X183063Y107500D02*
D03*
X190937D02*
D03*
X183063Y123500D02*
D03*
X190937D02*
D03*
X183063Y140000D02*
D03*
X190937D02*
D03*
D24*
X39000Y47500D02*
D03*
X286000D02*
D03*
D25*
X39000Y57500D02*
D03*
Y67500D02*
D03*
Y77500D02*
D03*
Y87500D02*
D03*
Y97500D02*
D03*
Y107500D02*
D03*
Y117500D02*
D03*
Y127500D02*
D03*
Y137500D02*
D03*
X29000Y47500D02*
D03*
Y57500D02*
D03*
Y67500D02*
D03*
Y77500D02*
D03*
Y87500D02*
D03*
Y97500D02*
D03*
Y107500D02*
D03*
Y117500D02*
D03*
Y127500D02*
D03*
Y137500D02*
D03*
X276000D02*
D03*
Y127500D02*
D03*
Y117500D02*
D03*
Y107500D02*
D03*
Y97500D02*
D03*
Y87500D02*
D03*
Y77500D02*
D03*
Y67500D02*
D03*
Y57500D02*
D03*
Y47500D02*
D03*
X286000Y137500D02*
D03*
Y127500D02*
D03*
Y117500D02*
D03*
Y107500D02*
D03*
Y97500D02*
D03*
Y87500D02*
D03*
Y77500D02*
D03*
Y67500D02*
D03*
Y57500D02*
D03*
D32*
X374500Y203744D02*
D03*
X346350Y181500D02*
D03*
Y131500D02*
D03*
Y81500D02*
D03*
Y201500D02*
D03*
Y191500D02*
D03*
Y171500D02*
D03*
Y161500D02*
D03*
Y151500D02*
D03*
Y141500D02*
D03*
Y121500D02*
D03*
Y111500D02*
D03*
Y101500D02*
D03*
Y91500D02*
D03*
Y71500D02*
D03*
Y61500D02*
D03*
Y51500D02*
D03*
Y41500D02*
D03*
Y21500D02*
D03*
X422650Y181500D02*
D03*
Y131500D02*
D03*
Y81500D02*
D03*
Y31500D02*
D03*
Y201500D02*
D03*
Y191500D02*
D03*
Y171500D02*
D03*
Y161500D02*
D03*
Y151500D02*
D03*
Y141500D02*
D03*
Y121500D02*
D03*
Y111500D02*
D03*
Y101500D02*
D03*
Y91500D02*
D03*
Y71500D02*
D03*
Y61500D02*
D03*
Y51500D02*
D03*
Y41500D02*
D03*
Y21500D02*
D03*
X384500Y203744D02*
D03*
X394500D02*
D03*
X346350Y31500D02*
D03*
Y11500D02*
D03*
X422650D02*
D03*
D33*
X349500D02*
D03*
Y21500D02*
D03*
Y31500D02*
D03*
Y41500D02*
D03*
Y51500D02*
D03*
Y61500D02*
D03*
Y71500D02*
D03*
Y81500D02*
D03*
Y91500D02*
D03*
Y101500D02*
D03*
Y111500D02*
D03*
Y121500D02*
D03*
Y131500D02*
D03*
Y141500D02*
D03*
Y151500D02*
D03*
Y161500D02*
D03*
Y171500D02*
D03*
Y181500D02*
D03*
Y191500D02*
D03*
Y201500D02*
D03*
X419500D02*
D03*
Y191500D02*
D03*
Y181500D02*
D03*
Y171500D02*
D03*
Y161500D02*
D03*
Y151500D02*
D03*
Y141500D02*
D03*
Y131500D02*
D03*
Y121500D02*
D03*
Y111500D02*
D03*
Y101500D02*
D03*
Y91500D02*
D03*
Y81500D02*
D03*
Y71500D02*
D03*
Y61500D02*
D03*
Y51500D02*
D03*
Y41500D02*
D03*
Y31500D02*
D03*
Y21500D02*
D03*
Y11500D02*
D03*
D34*
X98000Y180500D02*
D03*
D35*
Y190500D02*
D03*
D36*
X211898Y199028D02*
D03*
X143000D02*
D03*
X225677Y169500D02*
D03*
D37*
X143000D02*
D03*
D38*
X99500Y49000D02*
D03*
Y65000D02*
D03*
X128500Y79500D02*
D03*
X100000Y81500D02*
D03*
Y98500D02*
D03*
Y115000D02*
D03*
Y131500D02*
D03*
X99850Y148500D02*
D03*
X193000Y32000D02*
D03*
X218500D02*
D03*
X129000Y47500D02*
D03*
X218500Y48000D02*
D03*
X192500Y49000D02*
D03*
X128500Y64000D02*
D03*
X192500Y64500D02*
D03*
X218500D02*
D03*
X192500Y81000D02*
D03*
X218500D02*
D03*
X129000Y97500D02*
D03*
X193000Y98000D02*
D03*
X219000D02*
D03*
X129000Y114000D02*
D03*
X218500D02*
D03*
X193500Y114500D02*
D03*
X219000Y130000D02*
D03*
X128500Y131000D02*
D03*
X219000Y145500D02*
D03*
X129000Y147000D02*
D03*
X194500Y147500D02*
D03*
X262500Y182000D02*
D03*
X258000Y185500D02*
D03*
X252000Y189000D02*
D03*
X309500Y52500D02*
D03*
X306000Y92500D02*
D03*
X303000Y102425D02*
D03*
X309500Y112500D02*
D03*
X312500Y132500D02*
D03*
X266500Y178000D02*
D03*
X315500Y193000D02*
D03*
X312500Y202000D02*
D03*
X265500Y219500D02*
D03*
X269000Y223000D02*
D03*
X312500Y230000D02*
D03*
X307000Y233500D02*
D03*
X325000Y62425D02*
D03*
X315500Y150000D02*
D03*
X316500Y226500D02*
D03*
X318500Y157500D02*
D03*
Y206000D02*
D03*
X322000Y208650D02*
D03*
X193000Y130000D02*
D03*
X258000Y211500D02*
D03*
X262000Y215500D02*
D03*
D39*
X19685Y220472D02*
D03*
X216535Y220472D02*
D03*
X314961Y11811D02*
D03*
X19685Y11811D02*
D03*
M02*
