G04*
G04 #@! TF.GenerationSoftware,Altium Limited,Altium Designer,23.9.2 (47)*
G04*
G04 Layer_Physical_Order=2*
G04 Layer_Color=36540*
%FSLAX25Y25*%
%MOIN*%
G70*
G04*
G04 #@! TF.SameCoordinates,7D7DC0CB-560A-4B43-BD03-011E7A05A225*
G04*
G04*
G04 #@! TF.FilePolarity,Positive*
G04*
G01*
G75*
%ADD13C,0.01000*%
%ADD24R,0.06850X0.06850*%
%ADD25C,0.06850*%
%ADD33C,0.06000*%
%ADD34C,0.06299*%
G04:AMPARAMS|DCode=35|XSize=62.99mil|YSize=62.99mil|CornerRadius=15.75mil|HoleSize=0mil|Usage=FLASHONLY|Rotation=270.000|XOffset=0mil|YOffset=0mil|HoleType=Round|Shape=RoundedRectangle|*
%AMROUNDEDRECTD35*
21,1,0.06299,0.03150,0,0,270.0*
21,1,0.03150,0.06299,0,0,270.0*
1,1,0.03150,-0.01575,-0.01575*
1,1,0.03150,-0.01575,0.01575*
1,1,0.03150,0.01575,0.01575*
1,1,0.03150,0.01575,-0.01575*
%
%ADD35ROUNDEDRECTD35*%
%ADD36C,0.07087*%
%ADD37R,0.07087X0.07087*%
%ADD38C,0.02300*%
%ADD39C,0.15748*%
%ADD40C,0.01000*%
D13*
X271176Y76506D02*
G03*
X280158Y74860I4824J994D01*
G01*
X281842D02*
G03*
X290824Y76506I4158J2640D01*
G01*
X281842Y74860D02*
G03*
X280158Y74860I-842J-540D01*
G01*
X193000Y32000D02*
X214752D01*
X192500Y49000D02*
X215752D01*
X229177Y62425D01*
X99500Y49000D02*
X119500Y69000D01*
X192500Y64500D02*
X214752D01*
X227252Y77000D01*
X99500Y65000D02*
X115500Y81000D01*
X192500D02*
X214752D01*
X226252Y92500D01*
X100000Y81500D02*
X113000Y94500D01*
X193000Y98000D02*
X213000D01*
X217425Y102425D01*
X100000Y98500D02*
X110000Y108500D01*
X119500Y69000D02*
Y141248D01*
X115500Y81000D02*
Y140500D01*
X99850Y148500D02*
X100000Y148650D01*
Y161500D01*
Y131500D02*
X102500Y134000D01*
Y158000D01*
X193500Y114500D02*
X205650D01*
X207800Y116650D01*
X100000Y115000D02*
X105500Y120500D01*
X113000Y94500D02*
Y141500D01*
X193000Y130000D02*
X195650Y132650D01*
X110000Y108500D02*
Y155000D01*
X105500Y120500D02*
Y155500D01*
X119500Y141248D02*
X131252Y153000D01*
X194500Y147500D02*
X197000Y150000D01*
X115500Y140500D02*
X132500Y157500D01*
X113000Y141500D02*
X132150Y160650D01*
X311650D01*
X110000Y155000D02*
X133000Y178000D01*
X105500Y155500D02*
X132000Y182000D01*
X102500Y158000D02*
X130000Y185500D01*
X100000Y161500D02*
X129000Y190500D01*
X133000Y178000D02*
X266500D01*
X132000Y182000D02*
X262500D01*
X130000Y185500D02*
X258000D01*
X129000Y190500D02*
X222824D01*
X226252Y92500D02*
X306000D01*
X214752Y32000D02*
X235252Y52500D01*
X217425Y102425D02*
X303000D01*
X270975Y76707D02*
X271176Y76506D01*
X235252Y52500D02*
X309500D01*
X207800Y116650D02*
X264350D01*
X268500Y112500D01*
X227252Y77000D02*
X270682D01*
X270975Y76707D01*
X229177Y62425D02*
X325000D01*
X290824Y76506D02*
X291025Y76707D01*
X291025Y76707D02*
X291318Y77000D01*
X268500Y112500D02*
X309500D01*
X263826Y132500D02*
X312500D01*
X263676Y132650D02*
X263826Y132500D01*
X195650Y132650D02*
X263676D01*
X197000Y150000D02*
X315500D01*
X131252Y153000D02*
X327500D01*
X132500Y157500D02*
X318500D01*
X224324Y189000D02*
X252000D01*
X222824Y190500D02*
X224324Y189000D01*
X258000Y211500D02*
X258249Y211749D01*
X259168D01*
X259219Y211800D01*
X262222Y215500D02*
X262222Y215500D01*
X265698Y219500D02*
X265698Y219500D01*
X327500Y153000D02*
X331500Y157000D01*
X311650Y160650D02*
X328000Y177000D01*
X315749Y192751D02*
X349500D01*
X315500Y193000D02*
X315749Y192751D01*
X312500Y202000D02*
X349500D01*
X322000Y208650D02*
X322150Y208500D01*
X259219Y211800D02*
X423200D01*
X262222Y215500D02*
X423500D01*
X265698Y219500D02*
X423000D01*
X268827Y223000D02*
X423000D01*
X419500Y41500D02*
Y42500D01*
X414000Y77000D02*
X420337Y70663D01*
X291318Y77000D02*
X414000D01*
X331500Y157000D02*
X415000Y157000D01*
X419500Y161500D01*
X414500Y177000D02*
X420669Y170831D01*
X328000Y177000D02*
X414500Y177000D01*
X318500Y206000D02*
X421500D01*
X322150Y208500D02*
X422000D01*
X316586Y226500D02*
X423500D01*
X312500Y230000D02*
X424500D01*
X307000Y233500D02*
X425000D01*
X419500Y151500D02*
X425000Y157000D01*
X419500Y42500D02*
X442500Y65500D01*
X419278Y51278D02*
X440000Y72000D01*
X419500Y61500D02*
X438000Y80000D01*
X419500Y91500D02*
X436000Y108000D01*
X420985Y102485D02*
X433500Y115000D01*
X419500Y111500D02*
X431500Y123500D01*
X419500Y121500D02*
X429000Y131000D01*
X442500Y65500D02*
Y216000D01*
X440000Y72000D02*
Y214500D01*
X419365Y141365D02*
X427000Y149000D01*
X438000Y80000D02*
X438000Y212000D01*
X436000Y108000D02*
Y210000D01*
X433500Y115000D02*
Y209000D01*
X431500Y123500D02*
Y207500D01*
X429000Y131000D02*
Y206000D01*
X427000Y149000D02*
Y203500D01*
X425000Y157000D02*
Y202500D01*
X421500Y206000D02*
X425000Y202500D01*
X422000Y208500D02*
X427000Y203500D01*
X423200Y211800D02*
X429000Y206000D01*
X423500Y215500D02*
X431500Y207500D01*
X423000Y219500D02*
X433500Y209000D01*
X423000Y223000D02*
X436000Y210000D01*
X423500Y226500D02*
X438000Y212000D01*
X424500Y230000D02*
X440000Y214500D01*
X425000Y233500D02*
X442500Y216000D01*
D24*
X39000Y47500D02*
D03*
X286000D02*
D03*
D25*
X39000Y57500D02*
D03*
Y67500D02*
D03*
Y77500D02*
D03*
Y87500D02*
D03*
Y97500D02*
D03*
Y107500D02*
D03*
Y117500D02*
D03*
Y127500D02*
D03*
Y137500D02*
D03*
X29000Y47500D02*
D03*
Y57500D02*
D03*
Y67500D02*
D03*
Y77500D02*
D03*
Y87500D02*
D03*
Y97500D02*
D03*
Y107500D02*
D03*
Y117500D02*
D03*
Y127500D02*
D03*
Y137500D02*
D03*
X276000D02*
D03*
Y127500D02*
D03*
Y117500D02*
D03*
Y107500D02*
D03*
Y97500D02*
D03*
Y87500D02*
D03*
Y77500D02*
D03*
Y67500D02*
D03*
Y57500D02*
D03*
Y47500D02*
D03*
X286000Y137500D02*
D03*
Y127500D02*
D03*
Y117500D02*
D03*
Y107500D02*
D03*
Y97500D02*
D03*
Y87500D02*
D03*
Y77500D02*
D03*
Y67500D02*
D03*
Y57500D02*
D03*
D33*
X349500Y11500D02*
D03*
Y21500D02*
D03*
Y31500D02*
D03*
Y41500D02*
D03*
Y51500D02*
D03*
Y61500D02*
D03*
Y71500D02*
D03*
Y81500D02*
D03*
Y91500D02*
D03*
Y101500D02*
D03*
Y111500D02*
D03*
Y121500D02*
D03*
Y131500D02*
D03*
Y141500D02*
D03*
Y151500D02*
D03*
Y161500D02*
D03*
Y171500D02*
D03*
Y181500D02*
D03*
Y191500D02*
D03*
Y201500D02*
D03*
X419500D02*
D03*
Y191500D02*
D03*
Y181500D02*
D03*
Y171500D02*
D03*
Y161500D02*
D03*
Y151500D02*
D03*
Y141500D02*
D03*
Y131500D02*
D03*
Y121500D02*
D03*
Y111500D02*
D03*
Y101500D02*
D03*
Y91500D02*
D03*
Y81500D02*
D03*
Y71500D02*
D03*
Y61500D02*
D03*
Y51500D02*
D03*
Y41500D02*
D03*
Y31500D02*
D03*
Y21500D02*
D03*
Y11500D02*
D03*
D34*
X98000Y180500D02*
D03*
D35*
Y190500D02*
D03*
D36*
X211898Y199028D02*
D03*
X143000D02*
D03*
X225677Y169500D02*
D03*
D37*
X143000D02*
D03*
D38*
X99500Y49000D02*
D03*
Y65000D02*
D03*
X128500Y79500D02*
D03*
X100000Y81500D02*
D03*
Y98500D02*
D03*
Y115000D02*
D03*
Y131500D02*
D03*
X99850Y148500D02*
D03*
X193000Y32000D02*
D03*
X218500D02*
D03*
X129000Y47500D02*
D03*
X218500Y48000D02*
D03*
X192500Y49000D02*
D03*
X128500Y64000D02*
D03*
X192500Y64500D02*
D03*
X218500D02*
D03*
X192500Y81000D02*
D03*
X218500D02*
D03*
X129000Y97500D02*
D03*
X193000Y98000D02*
D03*
X219000D02*
D03*
X129000Y114000D02*
D03*
X218500D02*
D03*
X193500Y114500D02*
D03*
X219000Y130000D02*
D03*
X128500Y131000D02*
D03*
X219000Y145500D02*
D03*
X129000Y147000D02*
D03*
X194500Y147500D02*
D03*
X262500Y182000D02*
D03*
X258000Y185500D02*
D03*
X252000Y189000D02*
D03*
X309500Y52500D02*
D03*
X306000Y92500D02*
D03*
X303000Y102425D02*
D03*
X309500Y112500D02*
D03*
X312500Y132500D02*
D03*
X266500Y178000D02*
D03*
X315500Y193000D02*
D03*
X312500Y202000D02*
D03*
X265500Y219500D02*
D03*
X269000Y223000D02*
D03*
X312500Y230000D02*
D03*
X307000Y233500D02*
D03*
X325000Y62425D02*
D03*
X315500Y150000D02*
D03*
X316500Y226500D02*
D03*
X318500Y157500D02*
D03*
Y206000D02*
D03*
X322000Y208650D02*
D03*
X193000Y130000D02*
D03*
X258000Y211500D02*
D03*
X262000Y215500D02*
D03*
D39*
X19685Y220472D02*
D03*
X216535Y220472D02*
D03*
X314961Y11811D02*
D03*
X19685Y11811D02*
D03*
D40*
X270975Y76707D02*
D03*
X291025Y76707D02*
D03*
M02*
