G04*
G04 #@! TF.GenerationSoftware,Altium Limited,Altium Designer,23.9.2 (47)*
G04*
G04 Layer_Color=8388736*
%FSLAX25Y25*%
%MOIN*%
G70*
G04*
G04 #@! TF.SameCoordinates,7D7DC0CB-560A-4B43-BD03-011E7A05A225*
G04*
G04*
G04 #@! TF.FilePolarity,Negative*
G04*
G01*
G75*
%ADD17R,0.02362X0.01850*%
%ADD19O,0.04934X0.06509*%
%ADD20O,0.05131X0.07887*%
G04:AMPARAMS|DCode=21|XSize=67.06mil|YSize=67.06mil|CornerRadius=15.81mil|HoleSize=0mil|Usage=FLASHONLY|Rotation=180.000|XOffset=0mil|YOffset=0mil|HoleType=Round|Shape=RoundedRectangle|*
%AMROUNDEDRECTD21*
21,1,0.06706,0.03543,0,0,180.0*
21,1,0.03543,0.06706,0,0,180.0*
1,1,0.03162,-0.01772,0.01772*
1,1,0.03162,0.01772,0.01772*
1,1,0.03162,0.01772,-0.01772*
1,1,0.03162,-0.01772,-0.01772*
%
%ADD21ROUNDEDRECTD21*%
%ADD22R,0.05524X0.06509*%
%ADD23C,0.06800*%
%ADD24R,0.06850X0.06850*%
%ADD25C,0.06850*%
%ADD26C,0.07099*%
G04:AMPARAMS|DCode=27|XSize=70.99mil|YSize=70.99mil|CornerRadius=19.75mil|HoleSize=0mil|Usage=FLASHONLY|Rotation=270.000|XOffset=0mil|YOffset=0mil|HoleType=Round|Shape=RoundedRectangle|*
%AMROUNDEDRECTD27*
21,1,0.07099,0.03150,0,0,270.0*
21,1,0.03150,0.07099,0,0,270.0*
1,1,0.03950,-0.01575,-0.01575*
1,1,0.03950,-0.01575,0.01575*
1,1,0.03950,0.01575,0.01575*
1,1,0.03950,0.01575,-0.01575*
%
%ADD27ROUNDEDRECTD27*%
%ADD28C,0.07887*%
%ADD29R,0.07887X0.07887*%
%ADD30C,0.03100*%
%ADD31C,0.16548*%
G36*
X429343Y197957D02*
X419500D01*
X419315Y197961D01*
X419130Y197976D01*
X418945Y198000D01*
X418764Y198035D01*
X418583Y198079D01*
X418405Y198130D01*
X418228Y198193D01*
X418059Y198264D01*
X417890Y198343D01*
X417728Y198433D01*
X417571Y198528D01*
X417417Y198634D01*
X417272Y198748D01*
X417130Y198866D01*
X416996Y198996D01*
X416866Y199130D01*
X416748Y199272D01*
X416634Y199417D01*
X416528Y199571D01*
X416433Y199728D01*
X416342Y199890D01*
X416264Y200059D01*
X416193Y200228D01*
X416130Y200406D01*
X416079Y200583D01*
X416035Y200764D01*
X416000Y200945D01*
X415976Y201130D01*
X415961Y201315D01*
X415957Y201500D01*
X415961Y201685D01*
X415976Y201870D01*
X416000Y202055D01*
X416035Y202236D01*
X416079Y202417D01*
X416130Y202594D01*
X416193Y202772D01*
X416264Y202941D01*
X416342Y203110D01*
X416433Y203272D01*
X416528Y203429D01*
X416634Y203583D01*
X416748Y203728D01*
X416866Y203870D01*
X416996Y204004D01*
X417130Y204134D01*
X417272Y204252D01*
X417417Y204366D01*
X417571Y204472D01*
X417728Y204567D01*
X417890Y204658D01*
X418059Y204736D01*
X418228Y204807D01*
X418405Y204870D01*
X418583Y204921D01*
X418764Y204965D01*
X418945Y205000D01*
X419130Y205024D01*
X419315Y205039D01*
X419500Y205043D01*
X429343D01*
Y197957D01*
D02*
G37*
G36*
X349685Y205039D02*
X349870Y205024D01*
X350055Y205000D01*
X350236Y204965D01*
X350417Y204921D01*
X350594Y204870D01*
X350772Y204807D01*
X350941Y204736D01*
X351110Y204658D01*
X351272Y204567D01*
X351429Y204472D01*
X351583Y204366D01*
X351728Y204252D01*
X351870Y204134D01*
X352004Y204004D01*
X352134Y203870D01*
X352252Y203728D01*
X352366Y203583D01*
X352472Y203429D01*
X352567Y203272D01*
X352658Y203110D01*
X352736Y202941D01*
X352807Y202772D01*
X352870Y202594D01*
X352921Y202417D01*
X352965Y202236D01*
X353000Y202055D01*
X353024Y201870D01*
X353039Y201685D01*
X353043Y201500D01*
X353039Y201315D01*
X353024Y201130D01*
X353000Y200945D01*
X352965Y200764D01*
X352921Y200583D01*
X352870Y200406D01*
X352807Y200228D01*
X352736Y200059D01*
X352658Y199890D01*
X352567Y199728D01*
X352472Y199571D01*
X352366Y199417D01*
X352252Y199272D01*
X352134Y199130D01*
X352004Y198996D01*
X351870Y198866D01*
X351728Y198748D01*
X351583Y198634D01*
X351429Y198528D01*
X351272Y198433D01*
X351110Y198343D01*
X350941Y198264D01*
X350772Y198193D01*
X350594Y198130D01*
X350417Y198079D01*
X350236Y198035D01*
X350055Y198000D01*
X349870Y197976D01*
X349685Y197961D01*
X349500Y197957D01*
X339657D01*
Y205043D01*
X349500D01*
X349685Y205039D01*
D02*
G37*
G36*
X398043Y200594D02*
X398039Y200409D01*
X398024Y200224D01*
X398000Y200039D01*
X397965Y199858D01*
X397921Y199677D01*
X397870Y199500D01*
X397807Y199323D01*
X397736Y199153D01*
X397657Y198984D01*
X397567Y198823D01*
X397472Y198665D01*
X397366Y198512D01*
X397252Y198366D01*
X397134Y198224D01*
X397004Y198091D01*
X396870Y197961D01*
X396728Y197843D01*
X396583Y197728D01*
X396429Y197622D01*
X396272Y197528D01*
X396110Y197437D01*
X395941Y197358D01*
X395772Y197287D01*
X395595Y197224D01*
X395417Y197173D01*
X395236Y197130D01*
X395055Y197095D01*
X394870Y197071D01*
X394685Y197055D01*
X394500Y197051D01*
X394315Y197055D01*
X394130Y197071D01*
X393945Y197095D01*
X393764Y197130D01*
X393583Y197173D01*
X393406Y197224D01*
X393228Y197287D01*
X393059Y197358D01*
X392890Y197437D01*
X392728Y197528D01*
X392571Y197622D01*
X392417Y197728D01*
X392272Y197843D01*
X392130Y197961D01*
X391996Y198091D01*
X391866Y198224D01*
X391748Y198366D01*
X391634Y198512D01*
X391528Y198665D01*
X391433Y198823D01*
X391342Y198984D01*
X391264Y199153D01*
X391193Y199323D01*
X391130Y199500D01*
X391079Y199677D01*
X391035Y199858D01*
X391000Y200039D01*
X390976Y200224D01*
X390961Y200409D01*
X390957Y200594D01*
Y210437D01*
X398043D01*
Y200594D01*
D02*
G37*
G36*
X388043Y198232D02*
Y198169D01*
X388035Y198110D01*
X388028Y198047D01*
X388016Y197988D01*
X388004Y197925D01*
X387984Y197866D01*
X387965Y197807D01*
X387941Y197752D01*
X387913Y197697D01*
X387886Y197642D01*
X387854Y197591D01*
X387819Y197539D01*
X387779Y197488D01*
X387740Y197441D01*
X387697Y197398D01*
X387653Y197354D01*
X387606Y197315D01*
X387555Y197276D01*
X387504Y197240D01*
X387453Y197209D01*
X387398Y197181D01*
X387343Y197153D01*
X387287Y197130D01*
X387228Y197110D01*
X387169Y197091D01*
X387106Y197079D01*
X387047Y197067D01*
X386984Y197059D01*
X386925Y197051D01*
X382075D01*
X382016Y197059D01*
X381953Y197067D01*
X381894Y197079D01*
X381831Y197091D01*
X381772Y197110D01*
X381713Y197130D01*
X381658Y197153D01*
X381602Y197181D01*
X381547Y197209D01*
X381496Y197240D01*
X381445Y197276D01*
X381394Y197315D01*
X381347Y197354D01*
X381303Y197398D01*
X381260Y197441D01*
X381221Y197488D01*
X381181Y197539D01*
X381146Y197591D01*
X381114Y197642D01*
X381087Y197697D01*
X381059Y197752D01*
X381035Y197807D01*
X381016Y197866D01*
X380996Y197925D01*
X380984Y197988D01*
X380972Y198047D01*
X380965Y198110D01*
X380957Y198169D01*
Y198232D01*
Y210437D01*
X388043D01*
Y198232D01*
D02*
G37*
G36*
X378043Y200594D02*
X378039Y200409D01*
X378024Y200224D01*
X378000Y200039D01*
X377965Y199858D01*
X377921Y199677D01*
X377870Y199500D01*
X377807Y199323D01*
X377736Y199153D01*
X377658Y198984D01*
X377567Y198823D01*
X377472Y198665D01*
X377366Y198512D01*
X377252Y198366D01*
X377134Y198224D01*
X377004Y198091D01*
X376870Y197961D01*
X376728Y197843D01*
X376583Y197728D01*
X376429Y197622D01*
X376272Y197528D01*
X376110Y197437D01*
X375941Y197358D01*
X375772Y197287D01*
X375594Y197224D01*
X375417Y197173D01*
X375236Y197130D01*
X375055Y197095D01*
X374870Y197071D01*
X374685Y197055D01*
X374500Y197051D01*
X374315Y197055D01*
X374130Y197071D01*
X373945Y197095D01*
X373764Y197130D01*
X373583Y197173D01*
X373406Y197224D01*
X373228Y197287D01*
X373059Y197358D01*
X372890Y197437D01*
X372728Y197528D01*
X372571Y197622D01*
X372417Y197728D01*
X372272Y197843D01*
X372130Y197961D01*
X371996Y198091D01*
X371866Y198224D01*
X371748Y198366D01*
X371634Y198512D01*
X371528Y198665D01*
X371433Y198823D01*
X371342Y198984D01*
X371264Y199153D01*
X371193Y199323D01*
X371130Y199500D01*
X371079Y199677D01*
X371035Y199858D01*
X371000Y200039D01*
X370976Y200224D01*
X370961Y200409D01*
X370957Y200594D01*
Y210437D01*
X378043D01*
Y200594D01*
D02*
G37*
G36*
X429343Y187957D02*
X419500D01*
X419315Y187961D01*
X419130Y187976D01*
X418945Y188000D01*
X418764Y188035D01*
X418583Y188079D01*
X418405Y188130D01*
X418228Y188193D01*
X418059Y188264D01*
X417890Y188342D01*
X417728Y188433D01*
X417571Y188528D01*
X417417Y188634D01*
X417272Y188748D01*
X417130Y188866D01*
X416996Y188996D01*
X416866Y189130D01*
X416748Y189272D01*
X416634Y189417D01*
X416528Y189571D01*
X416433Y189728D01*
X416342Y189890D01*
X416264Y190059D01*
X416193Y190228D01*
X416130Y190405D01*
X416079Y190583D01*
X416035Y190764D01*
X416000Y190945D01*
X415976Y191130D01*
X415961Y191315D01*
X415957Y191500D01*
X415961Y191685D01*
X415976Y191870D01*
X416000Y192055D01*
X416035Y192236D01*
X416079Y192417D01*
X416130Y192595D01*
X416193Y192772D01*
X416264Y192941D01*
X416342Y193110D01*
X416433Y193272D01*
X416528Y193429D01*
X416634Y193583D01*
X416748Y193728D01*
X416866Y193870D01*
X416996Y194004D01*
X417130Y194134D01*
X417272Y194252D01*
X417417Y194366D01*
X417571Y194472D01*
X417728Y194567D01*
X417890Y194658D01*
X418059Y194736D01*
X418228Y194807D01*
X418405Y194870D01*
X418583Y194921D01*
X418764Y194965D01*
X418945Y195000D01*
X419130Y195024D01*
X419315Y195039D01*
X419500Y195043D01*
X429343D01*
Y187957D01*
D02*
G37*
G36*
X349685Y195039D02*
X349870Y195024D01*
X350055Y195000D01*
X350236Y194965D01*
X350417Y194921D01*
X350594Y194870D01*
X350772Y194807D01*
X350941Y194736D01*
X351110Y194658D01*
X351272Y194567D01*
X351429Y194472D01*
X351583Y194366D01*
X351728Y194252D01*
X351870Y194134D01*
X352004Y194004D01*
X352134Y193870D01*
X352252Y193728D01*
X352366Y193583D01*
X352472Y193429D01*
X352567Y193272D01*
X352658Y193110D01*
X352736Y192941D01*
X352807Y192772D01*
X352870Y192595D01*
X352921Y192417D01*
X352965Y192236D01*
X353000Y192055D01*
X353024Y191870D01*
X353039Y191685D01*
X353043Y191500D01*
X353039Y191315D01*
X353024Y191130D01*
X353000Y190945D01*
X352965Y190764D01*
X352921Y190583D01*
X352870Y190405D01*
X352807Y190228D01*
X352736Y190059D01*
X352658Y189890D01*
X352567Y189728D01*
X352472Y189571D01*
X352366Y189417D01*
X352252Y189272D01*
X352134Y189130D01*
X352004Y188996D01*
X351870Y188866D01*
X351728Y188748D01*
X351583Y188634D01*
X351429Y188528D01*
X351272Y188433D01*
X351110Y188342D01*
X350941Y188264D01*
X350772Y188193D01*
X350594Y188130D01*
X350417Y188079D01*
X350236Y188035D01*
X350055Y188000D01*
X349870Y187976D01*
X349685Y187961D01*
X349500Y187957D01*
X339657D01*
Y195043D01*
X349500D01*
X349685Y195039D01*
D02*
G37*
G36*
X429343Y177957D02*
X417075D01*
X417016Y177965D01*
X416953Y177972D01*
X416894Y177984D01*
X416831Y177996D01*
X416772Y178016D01*
X416713Y178035D01*
X416657Y178059D01*
X416602Y178087D01*
X416547Y178114D01*
X416496Y178146D01*
X416445Y178181D01*
X416394Y178220D01*
X416347Y178260D01*
X416303Y178303D01*
X416260Y178347D01*
X416221Y178394D01*
X416181Y178445D01*
X416146Y178496D01*
X416114Y178547D01*
X416087Y178602D01*
X416059Y178657D01*
X416035Y178713D01*
X416016Y178772D01*
X415996Y178831D01*
X415984Y178894D01*
X415972Y178953D01*
X415965Y179016D01*
X415957Y179075D01*
Y179138D01*
Y183862D01*
Y183925D01*
X415965Y183984D01*
X415972Y184047D01*
X415984Y184106D01*
X415996Y184169D01*
X416016Y184228D01*
X416035Y184287D01*
X416059Y184343D01*
X416087Y184398D01*
X416114Y184453D01*
X416146Y184504D01*
X416181Y184555D01*
X416221Y184606D01*
X416260Y184653D01*
X416303Y184697D01*
X416347Y184740D01*
X416394Y184780D01*
X416445Y184819D01*
X416496Y184854D01*
X416547Y184886D01*
X416602Y184913D01*
X416657Y184941D01*
X416713Y184965D01*
X416772Y184984D01*
X416831Y185004D01*
X416894Y185016D01*
X416953Y185028D01*
X417016Y185035D01*
X417075Y185043D01*
X429343D01*
Y177957D01*
D02*
G37*
G36*
X351984Y185035D02*
X352047Y185028D01*
X352106Y185016D01*
X352169Y185004D01*
X352228Y184984D01*
X352287Y184965D01*
X352343Y184941D01*
X352398Y184913D01*
X352453Y184886D01*
X352504Y184854D01*
X352555Y184819D01*
X352606Y184780D01*
X352654Y184740D01*
X352697Y184697D01*
X352740Y184653D01*
X352780Y184606D01*
X352819Y184555D01*
X352854Y184504D01*
X352886Y184453D01*
X352913Y184398D01*
X352941Y184343D01*
X352965Y184287D01*
X352984Y184228D01*
X353004Y184169D01*
X353016Y184106D01*
X353028Y184047D01*
X353035Y183984D01*
X353043Y183925D01*
Y183862D01*
Y179138D01*
Y179075D01*
X353035Y179016D01*
X353028Y178953D01*
X353016Y178894D01*
X353004Y178831D01*
X352984Y178772D01*
X352965Y178713D01*
X352941Y178657D01*
X352913Y178602D01*
X352886Y178547D01*
X352854Y178496D01*
X352819Y178445D01*
X352780Y178394D01*
X352740Y178347D01*
X352697Y178303D01*
X352654Y178260D01*
X352606Y178220D01*
X352555Y178181D01*
X352504Y178146D01*
X352453Y178114D01*
X352398Y178087D01*
X352343Y178059D01*
X352287Y178035D01*
X352228Y178016D01*
X352169Y177996D01*
X352106Y177984D01*
X352047Y177972D01*
X351984Y177965D01*
X351925Y177957D01*
X339657D01*
Y185043D01*
X351925D01*
X351984Y185035D01*
D02*
G37*
G36*
X429343Y167957D02*
X419500D01*
X419315Y167961D01*
X419130Y167976D01*
X418945Y168000D01*
X418764Y168035D01*
X418583Y168079D01*
X418405Y168130D01*
X418228Y168193D01*
X418059Y168264D01*
X417890Y168342D01*
X417728Y168433D01*
X417571Y168528D01*
X417417Y168634D01*
X417272Y168748D01*
X417130Y168866D01*
X416996Y168996D01*
X416866Y169130D01*
X416748Y169272D01*
X416634Y169417D01*
X416528Y169571D01*
X416433Y169728D01*
X416342Y169890D01*
X416264Y170059D01*
X416193Y170228D01*
X416130Y170405D01*
X416079Y170583D01*
X416035Y170764D01*
X416000Y170945D01*
X415976Y171130D01*
X415961Y171315D01*
X415957Y171500D01*
X415961Y171685D01*
X415976Y171870D01*
X416000Y172055D01*
X416035Y172236D01*
X416079Y172417D01*
X416130Y172594D01*
X416193Y172772D01*
X416264Y172941D01*
X416342Y173110D01*
X416433Y173272D01*
X416528Y173429D01*
X416634Y173583D01*
X416748Y173728D01*
X416866Y173870D01*
X416996Y174004D01*
X417130Y174134D01*
X417272Y174252D01*
X417417Y174366D01*
X417571Y174472D01*
X417728Y174567D01*
X417890Y174657D01*
X418059Y174736D01*
X418228Y174807D01*
X418405Y174870D01*
X418583Y174921D01*
X418764Y174965D01*
X418945Y175000D01*
X419130Y175024D01*
X419315Y175039D01*
X419500Y175043D01*
X429343D01*
Y167957D01*
D02*
G37*
G36*
X349685Y175039D02*
X349870Y175024D01*
X350055Y175000D01*
X350236Y174965D01*
X350417Y174921D01*
X350594Y174870D01*
X350772Y174807D01*
X350941Y174736D01*
X351110Y174657D01*
X351272Y174567D01*
X351429Y174472D01*
X351583Y174366D01*
X351728Y174252D01*
X351870Y174134D01*
X352004Y174004D01*
X352134Y173870D01*
X352252Y173728D01*
X352366Y173583D01*
X352472Y173429D01*
X352567Y173272D01*
X352658Y173110D01*
X352736Y172941D01*
X352807Y172772D01*
X352870Y172594D01*
X352921Y172417D01*
X352965Y172236D01*
X353000Y172055D01*
X353024Y171870D01*
X353039Y171685D01*
X353043Y171500D01*
X353039Y171315D01*
X353024Y171130D01*
X353000Y170945D01*
X352965Y170764D01*
X352921Y170583D01*
X352870Y170405D01*
X352807Y170228D01*
X352736Y170059D01*
X352658Y169890D01*
X352567Y169728D01*
X352472Y169571D01*
X352366Y169417D01*
X352252Y169272D01*
X352134Y169130D01*
X352004Y168996D01*
X351870Y168866D01*
X351728Y168748D01*
X351583Y168634D01*
X351429Y168528D01*
X351272Y168433D01*
X351110Y168342D01*
X350941Y168264D01*
X350772Y168193D01*
X350594Y168130D01*
X350417Y168079D01*
X350236Y168035D01*
X350055Y168000D01*
X349870Y167976D01*
X349685Y167961D01*
X349500Y167957D01*
X339657D01*
Y175043D01*
X349500D01*
X349685Y175039D01*
D02*
G37*
G36*
X429343Y157957D02*
X419500D01*
X419315Y157961D01*
X419130Y157976D01*
X418945Y158000D01*
X418764Y158035D01*
X418583Y158079D01*
X418405Y158130D01*
X418228Y158193D01*
X418059Y158264D01*
X417890Y158343D01*
X417728Y158433D01*
X417571Y158528D01*
X417417Y158634D01*
X417272Y158748D01*
X417130Y158866D01*
X416996Y158996D01*
X416866Y159130D01*
X416748Y159272D01*
X416634Y159417D01*
X416528Y159571D01*
X416433Y159728D01*
X416342Y159890D01*
X416264Y160059D01*
X416193Y160228D01*
X416130Y160406D01*
X416079Y160583D01*
X416035Y160764D01*
X416000Y160945D01*
X415976Y161130D01*
X415961Y161315D01*
X415957Y161500D01*
X415961Y161685D01*
X415976Y161870D01*
X416000Y162055D01*
X416035Y162236D01*
X416079Y162417D01*
X416130Y162594D01*
X416193Y162772D01*
X416264Y162941D01*
X416342Y163110D01*
X416433Y163272D01*
X416528Y163429D01*
X416634Y163583D01*
X416748Y163728D01*
X416866Y163870D01*
X416996Y164004D01*
X417130Y164134D01*
X417272Y164252D01*
X417417Y164366D01*
X417571Y164472D01*
X417728Y164567D01*
X417890Y164657D01*
X418059Y164736D01*
X418228Y164807D01*
X418405Y164870D01*
X418583Y164921D01*
X418764Y164965D01*
X418945Y165000D01*
X419130Y165024D01*
X419315Y165039D01*
X419500Y165043D01*
X429343D01*
Y157957D01*
D02*
G37*
G36*
X349685Y165039D02*
X349870Y165024D01*
X350055Y165000D01*
X350236Y164965D01*
X350417Y164921D01*
X350594Y164870D01*
X350772Y164807D01*
X350941Y164736D01*
X351110Y164657D01*
X351272Y164567D01*
X351429Y164472D01*
X351583Y164366D01*
X351728Y164252D01*
X351870Y164134D01*
X352004Y164004D01*
X352134Y163870D01*
X352252Y163728D01*
X352366Y163583D01*
X352472Y163429D01*
X352567Y163272D01*
X352658Y163110D01*
X352736Y162941D01*
X352807Y162772D01*
X352870Y162594D01*
X352921Y162417D01*
X352965Y162236D01*
X353000Y162055D01*
X353024Y161870D01*
X353039Y161685D01*
X353043Y161500D01*
X353039Y161315D01*
X353024Y161130D01*
X353000Y160945D01*
X352965Y160764D01*
X352921Y160583D01*
X352870Y160406D01*
X352807Y160228D01*
X352736Y160059D01*
X352658Y159890D01*
X352567Y159728D01*
X352472Y159571D01*
X352366Y159417D01*
X352252Y159272D01*
X352134Y159130D01*
X352004Y158996D01*
X351870Y158866D01*
X351728Y158748D01*
X351583Y158634D01*
X351429Y158528D01*
X351272Y158433D01*
X351110Y158343D01*
X350941Y158264D01*
X350772Y158193D01*
X350594Y158130D01*
X350417Y158079D01*
X350236Y158035D01*
X350055Y158000D01*
X349870Y157976D01*
X349685Y157961D01*
X349500Y157957D01*
X339657D01*
Y165043D01*
X349500D01*
X349685Y165039D01*
D02*
G37*
G36*
X429343Y147957D02*
X419500D01*
X419315Y147961D01*
X419130Y147976D01*
X418945Y148000D01*
X418764Y148035D01*
X418583Y148079D01*
X418405Y148130D01*
X418228Y148193D01*
X418059Y148264D01*
X417890Y148343D01*
X417728Y148433D01*
X417571Y148528D01*
X417417Y148634D01*
X417272Y148748D01*
X417130Y148866D01*
X416996Y148996D01*
X416866Y149130D01*
X416748Y149272D01*
X416634Y149417D01*
X416528Y149571D01*
X416433Y149728D01*
X416342Y149890D01*
X416264Y150059D01*
X416193Y150228D01*
X416130Y150406D01*
X416079Y150583D01*
X416035Y150764D01*
X416000Y150945D01*
X415976Y151130D01*
X415961Y151315D01*
X415957Y151500D01*
X415961Y151685D01*
X415976Y151870D01*
X416000Y152055D01*
X416035Y152236D01*
X416079Y152417D01*
X416130Y152594D01*
X416193Y152772D01*
X416264Y152941D01*
X416342Y153110D01*
X416433Y153272D01*
X416528Y153429D01*
X416634Y153583D01*
X416748Y153728D01*
X416866Y153870D01*
X416996Y154004D01*
X417130Y154134D01*
X417272Y154252D01*
X417417Y154366D01*
X417571Y154472D01*
X417728Y154567D01*
X417890Y154657D01*
X418059Y154736D01*
X418228Y154807D01*
X418405Y154870D01*
X418583Y154921D01*
X418764Y154965D01*
X418945Y155000D01*
X419130Y155024D01*
X419315Y155039D01*
X419500Y155043D01*
X429343D01*
Y147957D01*
D02*
G37*
G36*
X349685Y155039D02*
X349870Y155024D01*
X350055Y155000D01*
X350236Y154965D01*
X350417Y154921D01*
X350594Y154870D01*
X350772Y154807D01*
X350941Y154736D01*
X351110Y154657D01*
X351272Y154567D01*
X351429Y154472D01*
X351583Y154366D01*
X351728Y154252D01*
X351870Y154134D01*
X352004Y154004D01*
X352134Y153870D01*
X352252Y153728D01*
X352366Y153583D01*
X352472Y153429D01*
X352567Y153272D01*
X352658Y153110D01*
X352736Y152941D01*
X352807Y152772D01*
X352870Y152594D01*
X352921Y152417D01*
X352965Y152236D01*
X353000Y152055D01*
X353024Y151870D01*
X353039Y151685D01*
X353043Y151500D01*
X353039Y151315D01*
X353024Y151130D01*
X353000Y150945D01*
X352965Y150764D01*
X352921Y150583D01*
X352870Y150406D01*
X352807Y150228D01*
X352736Y150059D01*
X352658Y149890D01*
X352567Y149728D01*
X352472Y149571D01*
X352366Y149417D01*
X352252Y149272D01*
X352134Y149130D01*
X352004Y148996D01*
X351870Y148866D01*
X351728Y148748D01*
X351583Y148634D01*
X351429Y148528D01*
X351272Y148433D01*
X351110Y148343D01*
X350941Y148264D01*
X350772Y148193D01*
X350594Y148130D01*
X350417Y148079D01*
X350236Y148035D01*
X350055Y148000D01*
X349870Y147976D01*
X349685Y147961D01*
X349500Y147957D01*
X339657D01*
Y155043D01*
X349500D01*
X349685Y155039D01*
D02*
G37*
G36*
X429343Y137957D02*
X419500D01*
X419315Y137961D01*
X419130Y137976D01*
X418945Y138000D01*
X418764Y138035D01*
X418583Y138079D01*
X418405Y138130D01*
X418228Y138193D01*
X418059Y138264D01*
X417890Y138342D01*
X417728Y138433D01*
X417571Y138528D01*
X417417Y138634D01*
X417272Y138748D01*
X417130Y138866D01*
X416996Y138996D01*
X416866Y139130D01*
X416748Y139272D01*
X416634Y139417D01*
X416528Y139571D01*
X416433Y139728D01*
X416342Y139890D01*
X416264Y140059D01*
X416193Y140228D01*
X416130Y140405D01*
X416079Y140583D01*
X416035Y140764D01*
X416000Y140945D01*
X415976Y141130D01*
X415961Y141315D01*
X415957Y141500D01*
X415961Y141685D01*
X415976Y141870D01*
X416000Y142055D01*
X416035Y142236D01*
X416079Y142417D01*
X416130Y142595D01*
X416193Y142772D01*
X416264Y142941D01*
X416342Y143110D01*
X416433Y143272D01*
X416528Y143429D01*
X416634Y143583D01*
X416748Y143728D01*
X416866Y143870D01*
X416996Y144004D01*
X417130Y144134D01*
X417272Y144252D01*
X417417Y144366D01*
X417571Y144472D01*
X417728Y144567D01*
X417890Y144658D01*
X418059Y144736D01*
X418228Y144807D01*
X418405Y144870D01*
X418583Y144921D01*
X418764Y144965D01*
X418945Y145000D01*
X419130Y145024D01*
X419315Y145039D01*
X419500Y145043D01*
X429343D01*
Y137957D01*
D02*
G37*
G36*
X349685Y145039D02*
X349870Y145024D01*
X350055Y145000D01*
X350236Y144965D01*
X350417Y144921D01*
X350594Y144870D01*
X350772Y144807D01*
X350941Y144736D01*
X351110Y144658D01*
X351272Y144567D01*
X351429Y144472D01*
X351583Y144366D01*
X351728Y144252D01*
X351870Y144134D01*
X352004Y144004D01*
X352134Y143870D01*
X352252Y143728D01*
X352366Y143583D01*
X352472Y143429D01*
X352567Y143272D01*
X352658Y143110D01*
X352736Y142941D01*
X352807Y142772D01*
X352870Y142595D01*
X352921Y142417D01*
X352965Y142236D01*
X353000Y142055D01*
X353024Y141870D01*
X353039Y141685D01*
X353043Y141500D01*
X353039Y141315D01*
X353024Y141130D01*
X353000Y140945D01*
X352965Y140764D01*
X352921Y140583D01*
X352870Y140405D01*
X352807Y140228D01*
X352736Y140059D01*
X352658Y139890D01*
X352567Y139728D01*
X352472Y139571D01*
X352366Y139417D01*
X352252Y139272D01*
X352134Y139130D01*
X352004Y138996D01*
X351870Y138866D01*
X351728Y138748D01*
X351583Y138634D01*
X351429Y138528D01*
X351272Y138433D01*
X351110Y138342D01*
X350941Y138264D01*
X350772Y138193D01*
X350594Y138130D01*
X350417Y138079D01*
X350236Y138035D01*
X350055Y138000D01*
X349870Y137976D01*
X349685Y137961D01*
X349500Y137957D01*
X339657D01*
Y145043D01*
X349500D01*
X349685Y145039D01*
D02*
G37*
G36*
X429343Y127957D02*
X417075D01*
X417016Y127965D01*
X416953Y127972D01*
X416894Y127984D01*
X416831Y127996D01*
X416772Y128016D01*
X416713Y128035D01*
X416657Y128059D01*
X416602Y128087D01*
X416547Y128114D01*
X416496Y128146D01*
X416445Y128181D01*
X416394Y128220D01*
X416347Y128260D01*
X416303Y128303D01*
X416260Y128347D01*
X416221Y128394D01*
X416181Y128445D01*
X416146Y128496D01*
X416114Y128547D01*
X416087Y128602D01*
X416059Y128657D01*
X416035Y128713D01*
X416016Y128772D01*
X415996Y128831D01*
X415984Y128894D01*
X415972Y128953D01*
X415965Y129016D01*
X415957Y129075D01*
Y129138D01*
Y133862D01*
Y133925D01*
X415965Y133984D01*
X415972Y134047D01*
X415984Y134106D01*
X415996Y134169D01*
X416016Y134228D01*
X416035Y134287D01*
X416059Y134343D01*
X416087Y134398D01*
X416114Y134453D01*
X416146Y134504D01*
X416181Y134555D01*
X416221Y134606D01*
X416260Y134653D01*
X416303Y134697D01*
X416347Y134740D01*
X416394Y134780D01*
X416445Y134819D01*
X416496Y134854D01*
X416547Y134886D01*
X416602Y134913D01*
X416657Y134941D01*
X416713Y134965D01*
X416772Y134984D01*
X416831Y135004D01*
X416894Y135016D01*
X416953Y135028D01*
X417016Y135035D01*
X417075Y135043D01*
X429343D01*
Y127957D01*
D02*
G37*
G36*
X351984Y135035D02*
X352047Y135028D01*
X352106Y135016D01*
X352169Y135004D01*
X352228Y134984D01*
X352287Y134965D01*
X352343Y134941D01*
X352398Y134913D01*
X352453Y134886D01*
X352504Y134854D01*
X352555Y134819D01*
X352606Y134780D01*
X352654Y134740D01*
X352697Y134697D01*
X352740Y134653D01*
X352780Y134606D01*
X352819Y134555D01*
X352854Y134504D01*
X352886Y134453D01*
X352913Y134398D01*
X352941Y134343D01*
X352965Y134287D01*
X352984Y134228D01*
X353004Y134169D01*
X353016Y134106D01*
X353028Y134047D01*
X353035Y133984D01*
X353043Y133925D01*
Y133862D01*
Y129138D01*
Y129075D01*
X353035Y129016D01*
X353028Y128953D01*
X353016Y128894D01*
X353004Y128831D01*
X352984Y128772D01*
X352965Y128713D01*
X352941Y128657D01*
X352913Y128602D01*
X352886Y128547D01*
X352854Y128496D01*
X352819Y128445D01*
X352780Y128394D01*
X352740Y128347D01*
X352697Y128303D01*
X352654Y128260D01*
X352606Y128220D01*
X352555Y128181D01*
X352504Y128146D01*
X352453Y128114D01*
X352398Y128087D01*
X352343Y128059D01*
X352287Y128035D01*
X352228Y128016D01*
X352169Y127996D01*
X352106Y127984D01*
X352047Y127972D01*
X351984Y127965D01*
X351925Y127957D01*
X339657D01*
Y135043D01*
X351925D01*
X351984Y135035D01*
D02*
G37*
G36*
X429343Y117957D02*
X419500D01*
X419315Y117961D01*
X419130Y117976D01*
X418945Y118000D01*
X418764Y118035D01*
X418583Y118079D01*
X418405Y118130D01*
X418228Y118193D01*
X418059Y118264D01*
X417890Y118342D01*
X417728Y118433D01*
X417571Y118528D01*
X417417Y118634D01*
X417272Y118748D01*
X417130Y118866D01*
X416996Y118996D01*
X416866Y119130D01*
X416748Y119272D01*
X416634Y119417D01*
X416528Y119571D01*
X416433Y119728D01*
X416342Y119890D01*
X416264Y120059D01*
X416193Y120228D01*
X416130Y120405D01*
X416079Y120583D01*
X416035Y120764D01*
X416000Y120945D01*
X415976Y121130D01*
X415961Y121315D01*
X415957Y121500D01*
X415961Y121685D01*
X415976Y121870D01*
X416000Y122055D01*
X416035Y122236D01*
X416079Y122417D01*
X416130Y122594D01*
X416193Y122772D01*
X416264Y122941D01*
X416342Y123110D01*
X416433Y123272D01*
X416528Y123429D01*
X416634Y123583D01*
X416748Y123728D01*
X416866Y123870D01*
X416996Y124004D01*
X417130Y124134D01*
X417272Y124252D01*
X417417Y124366D01*
X417571Y124472D01*
X417728Y124567D01*
X417890Y124657D01*
X418059Y124736D01*
X418228Y124807D01*
X418405Y124870D01*
X418583Y124921D01*
X418764Y124965D01*
X418945Y125000D01*
X419130Y125024D01*
X419315Y125039D01*
X419500Y125043D01*
X429343D01*
Y117957D01*
D02*
G37*
G36*
X349685Y125039D02*
X349870Y125024D01*
X350055Y125000D01*
X350236Y124965D01*
X350417Y124921D01*
X350594Y124870D01*
X350772Y124807D01*
X350941Y124736D01*
X351110Y124657D01*
X351272Y124567D01*
X351429Y124472D01*
X351583Y124366D01*
X351728Y124252D01*
X351870Y124134D01*
X352004Y124004D01*
X352134Y123870D01*
X352252Y123728D01*
X352366Y123583D01*
X352472Y123429D01*
X352567Y123272D01*
X352658Y123110D01*
X352736Y122941D01*
X352807Y122772D01*
X352870Y122594D01*
X352921Y122417D01*
X352965Y122236D01*
X353000Y122055D01*
X353024Y121870D01*
X353039Y121685D01*
X353043Y121500D01*
X353039Y121315D01*
X353024Y121130D01*
X353000Y120945D01*
X352965Y120764D01*
X352921Y120583D01*
X352870Y120405D01*
X352807Y120228D01*
X352736Y120059D01*
X352658Y119890D01*
X352567Y119728D01*
X352472Y119571D01*
X352366Y119417D01*
X352252Y119272D01*
X352134Y119130D01*
X352004Y118996D01*
X351870Y118866D01*
X351728Y118748D01*
X351583Y118634D01*
X351429Y118528D01*
X351272Y118433D01*
X351110Y118342D01*
X350941Y118264D01*
X350772Y118193D01*
X350594Y118130D01*
X350417Y118079D01*
X350236Y118035D01*
X350055Y118000D01*
X349870Y117976D01*
X349685Y117961D01*
X349500Y117957D01*
X339657D01*
Y125043D01*
X349500D01*
X349685Y125039D01*
D02*
G37*
G36*
X429343Y107957D02*
X419500D01*
X419315Y107961D01*
X419130Y107976D01*
X418945Y108000D01*
X418764Y108035D01*
X418583Y108079D01*
X418405Y108130D01*
X418228Y108193D01*
X418059Y108264D01*
X417890Y108343D01*
X417728Y108433D01*
X417571Y108528D01*
X417417Y108634D01*
X417272Y108748D01*
X417130Y108866D01*
X416996Y108996D01*
X416866Y109130D01*
X416748Y109272D01*
X416634Y109417D01*
X416528Y109571D01*
X416433Y109728D01*
X416342Y109890D01*
X416264Y110059D01*
X416193Y110228D01*
X416130Y110406D01*
X416079Y110583D01*
X416035Y110764D01*
X416000Y110945D01*
X415976Y111130D01*
X415961Y111315D01*
X415957Y111500D01*
X415961Y111685D01*
X415976Y111870D01*
X416000Y112055D01*
X416035Y112236D01*
X416079Y112417D01*
X416130Y112594D01*
X416193Y112772D01*
X416264Y112941D01*
X416342Y113110D01*
X416433Y113272D01*
X416528Y113429D01*
X416634Y113583D01*
X416748Y113728D01*
X416866Y113870D01*
X416996Y114004D01*
X417130Y114134D01*
X417272Y114252D01*
X417417Y114366D01*
X417571Y114472D01*
X417728Y114567D01*
X417890Y114657D01*
X418059Y114736D01*
X418228Y114807D01*
X418405Y114870D01*
X418583Y114921D01*
X418764Y114965D01*
X418945Y115000D01*
X419130Y115024D01*
X419315Y115039D01*
X419500Y115043D01*
X429343D01*
Y107957D01*
D02*
G37*
G36*
X349685Y115039D02*
X349870Y115024D01*
X350055Y115000D01*
X350236Y114965D01*
X350417Y114921D01*
X350594Y114870D01*
X350772Y114807D01*
X350941Y114736D01*
X351110Y114657D01*
X351272Y114567D01*
X351429Y114472D01*
X351583Y114366D01*
X351728Y114252D01*
X351870Y114134D01*
X352004Y114004D01*
X352134Y113870D01*
X352252Y113728D01*
X352366Y113583D01*
X352472Y113429D01*
X352567Y113272D01*
X352658Y113110D01*
X352736Y112941D01*
X352807Y112772D01*
X352870Y112594D01*
X352921Y112417D01*
X352965Y112236D01*
X353000Y112055D01*
X353024Y111870D01*
X353039Y111685D01*
X353043Y111500D01*
X353039Y111315D01*
X353024Y111130D01*
X353000Y110945D01*
X352965Y110764D01*
X352921Y110583D01*
X352870Y110406D01*
X352807Y110228D01*
X352736Y110059D01*
X352658Y109890D01*
X352567Y109728D01*
X352472Y109571D01*
X352366Y109417D01*
X352252Y109272D01*
X352134Y109130D01*
X352004Y108996D01*
X351870Y108866D01*
X351728Y108748D01*
X351583Y108634D01*
X351429Y108528D01*
X351272Y108433D01*
X351110Y108343D01*
X350941Y108264D01*
X350772Y108193D01*
X350594Y108130D01*
X350417Y108079D01*
X350236Y108035D01*
X350055Y108000D01*
X349870Y107976D01*
X349685Y107961D01*
X349500Y107957D01*
X339657D01*
Y115043D01*
X349500D01*
X349685Y115039D01*
D02*
G37*
G36*
X429343Y97957D02*
X419500D01*
X419315Y97961D01*
X419130Y97976D01*
X418945Y98000D01*
X418764Y98035D01*
X418583Y98079D01*
X418405Y98130D01*
X418228Y98193D01*
X418059Y98264D01*
X417890Y98343D01*
X417728Y98433D01*
X417571Y98528D01*
X417417Y98634D01*
X417272Y98748D01*
X417130Y98866D01*
X416996Y98996D01*
X416866Y99130D01*
X416748Y99272D01*
X416634Y99417D01*
X416528Y99571D01*
X416433Y99728D01*
X416342Y99890D01*
X416264Y100059D01*
X416193Y100228D01*
X416130Y100406D01*
X416079Y100583D01*
X416035Y100764D01*
X416000Y100945D01*
X415976Y101130D01*
X415961Y101315D01*
X415957Y101500D01*
X415961Y101685D01*
X415976Y101870D01*
X416000Y102055D01*
X416035Y102236D01*
X416079Y102417D01*
X416130Y102594D01*
X416193Y102772D01*
X416264Y102941D01*
X416342Y103110D01*
X416433Y103272D01*
X416528Y103429D01*
X416634Y103583D01*
X416748Y103728D01*
X416866Y103870D01*
X416996Y104004D01*
X417130Y104134D01*
X417272Y104252D01*
X417417Y104366D01*
X417571Y104472D01*
X417728Y104567D01*
X417890Y104657D01*
X418059Y104736D01*
X418228Y104807D01*
X418405Y104870D01*
X418583Y104921D01*
X418764Y104965D01*
X418945Y105000D01*
X419130Y105024D01*
X419315Y105039D01*
X419500Y105043D01*
X429343D01*
Y97957D01*
D02*
G37*
G36*
X349685Y105039D02*
X349870Y105024D01*
X350055Y105000D01*
X350236Y104965D01*
X350417Y104921D01*
X350594Y104870D01*
X350772Y104807D01*
X350941Y104736D01*
X351110Y104657D01*
X351272Y104567D01*
X351429Y104472D01*
X351583Y104366D01*
X351728Y104252D01*
X351870Y104134D01*
X352004Y104004D01*
X352134Y103870D01*
X352252Y103728D01*
X352366Y103583D01*
X352472Y103429D01*
X352567Y103272D01*
X352658Y103110D01*
X352736Y102941D01*
X352807Y102772D01*
X352870Y102594D01*
X352921Y102417D01*
X352965Y102236D01*
X353000Y102055D01*
X353024Y101870D01*
X353039Y101685D01*
X353043Y101500D01*
X353039Y101315D01*
X353024Y101130D01*
X353000Y100945D01*
X352965Y100764D01*
X352921Y100583D01*
X352870Y100406D01*
X352807Y100228D01*
X352736Y100059D01*
X352658Y99890D01*
X352567Y99728D01*
X352472Y99571D01*
X352366Y99417D01*
X352252Y99272D01*
X352134Y99130D01*
X352004Y98996D01*
X351870Y98866D01*
X351728Y98748D01*
X351583Y98634D01*
X351429Y98528D01*
X351272Y98433D01*
X351110Y98343D01*
X350941Y98264D01*
X350772Y98193D01*
X350594Y98130D01*
X350417Y98079D01*
X350236Y98035D01*
X350055Y98000D01*
X349870Y97976D01*
X349685Y97961D01*
X349500Y97957D01*
X339657D01*
Y105043D01*
X349500D01*
X349685Y105039D01*
D02*
G37*
G36*
X429343Y87957D02*
X419500D01*
X419315Y87961D01*
X419130Y87976D01*
X418945Y88000D01*
X418764Y88035D01*
X418583Y88079D01*
X418405Y88130D01*
X418228Y88193D01*
X418059Y88264D01*
X417890Y88342D01*
X417728Y88433D01*
X417571Y88528D01*
X417417Y88634D01*
X417272Y88748D01*
X417130Y88866D01*
X416996Y88996D01*
X416866Y89130D01*
X416748Y89272D01*
X416634Y89417D01*
X416528Y89571D01*
X416433Y89728D01*
X416342Y89890D01*
X416264Y90059D01*
X416193Y90228D01*
X416130Y90405D01*
X416079Y90583D01*
X416035Y90764D01*
X416000Y90945D01*
X415976Y91130D01*
X415961Y91315D01*
X415957Y91500D01*
X415961Y91685D01*
X415976Y91870D01*
X416000Y92055D01*
X416035Y92236D01*
X416079Y92417D01*
X416130Y92594D01*
X416193Y92772D01*
X416264Y92941D01*
X416342Y93110D01*
X416433Y93272D01*
X416528Y93429D01*
X416634Y93583D01*
X416748Y93728D01*
X416866Y93870D01*
X416996Y94004D01*
X417130Y94134D01*
X417272Y94252D01*
X417417Y94366D01*
X417571Y94472D01*
X417728Y94567D01*
X417890Y94657D01*
X418059Y94736D01*
X418228Y94807D01*
X418405Y94870D01*
X418583Y94921D01*
X418764Y94965D01*
X418945Y95000D01*
X419130Y95024D01*
X419315Y95039D01*
X419500Y95043D01*
X429343D01*
Y87957D01*
D02*
G37*
G36*
X349685Y95039D02*
X349870Y95024D01*
X350055Y95000D01*
X350236Y94965D01*
X350417Y94921D01*
X350594Y94870D01*
X350772Y94807D01*
X350941Y94736D01*
X351110Y94657D01*
X351272Y94567D01*
X351429Y94472D01*
X351583Y94366D01*
X351728Y94252D01*
X351870Y94134D01*
X352004Y94004D01*
X352134Y93870D01*
X352252Y93728D01*
X352366Y93583D01*
X352472Y93429D01*
X352567Y93272D01*
X352658Y93110D01*
X352736Y92941D01*
X352807Y92772D01*
X352870Y92594D01*
X352921Y92417D01*
X352965Y92236D01*
X353000Y92055D01*
X353024Y91870D01*
X353039Y91685D01*
X353043Y91500D01*
X353039Y91315D01*
X353024Y91130D01*
X353000Y90945D01*
X352965Y90764D01*
X352921Y90583D01*
X352870Y90405D01*
X352807Y90228D01*
X352736Y90059D01*
X352658Y89890D01*
X352567Y89728D01*
X352472Y89571D01*
X352366Y89417D01*
X352252Y89272D01*
X352134Y89130D01*
X352004Y88996D01*
X351870Y88866D01*
X351728Y88748D01*
X351583Y88634D01*
X351429Y88528D01*
X351272Y88433D01*
X351110Y88342D01*
X350941Y88264D01*
X350772Y88193D01*
X350594Y88130D01*
X350417Y88079D01*
X350236Y88035D01*
X350055Y88000D01*
X349870Y87976D01*
X349685Y87961D01*
X349500Y87957D01*
X339657D01*
Y95043D01*
X349500D01*
X349685Y95039D01*
D02*
G37*
G36*
X429343Y77957D02*
X417075D01*
X417016Y77965D01*
X416953Y77972D01*
X416894Y77984D01*
X416831Y77996D01*
X416772Y78016D01*
X416713Y78035D01*
X416657Y78059D01*
X416602Y78087D01*
X416547Y78114D01*
X416496Y78146D01*
X416445Y78181D01*
X416394Y78220D01*
X416347Y78260D01*
X416303Y78303D01*
X416260Y78347D01*
X416221Y78394D01*
X416181Y78445D01*
X416146Y78496D01*
X416114Y78547D01*
X416087Y78602D01*
X416059Y78658D01*
X416035Y78713D01*
X416016Y78772D01*
X415996Y78831D01*
X415984Y78894D01*
X415972Y78953D01*
X415965Y79016D01*
X415957Y79075D01*
Y79138D01*
Y83862D01*
Y83925D01*
X415965Y83984D01*
X415972Y84047D01*
X415984Y84106D01*
X415996Y84169D01*
X416016Y84228D01*
X416035Y84287D01*
X416059Y84342D01*
X416087Y84398D01*
X416114Y84453D01*
X416146Y84504D01*
X416181Y84555D01*
X416221Y84606D01*
X416260Y84654D01*
X416303Y84697D01*
X416347Y84740D01*
X416394Y84780D01*
X416445Y84819D01*
X416496Y84854D01*
X416547Y84886D01*
X416602Y84913D01*
X416657Y84941D01*
X416713Y84965D01*
X416772Y84984D01*
X416831Y85004D01*
X416894Y85016D01*
X416953Y85028D01*
X417016Y85035D01*
X417075Y85043D01*
X429343D01*
Y77957D01*
D02*
G37*
G36*
X351984Y85035D02*
X352047Y85028D01*
X352106Y85016D01*
X352169Y85004D01*
X352228Y84984D01*
X352287Y84965D01*
X352343Y84941D01*
X352398Y84913D01*
X352453Y84886D01*
X352504Y84854D01*
X352555Y84819D01*
X352606Y84780D01*
X352654Y84740D01*
X352697Y84697D01*
X352740Y84654D01*
X352780Y84606D01*
X352819Y84555D01*
X352854Y84504D01*
X352886Y84453D01*
X352913Y84398D01*
X352941Y84342D01*
X352965Y84287D01*
X352984Y84228D01*
X353004Y84169D01*
X353016Y84106D01*
X353028Y84047D01*
X353035Y83984D01*
X353043Y83925D01*
Y83862D01*
Y79138D01*
Y79075D01*
X353035Y79016D01*
X353028Y78953D01*
X353016Y78894D01*
X353004Y78831D01*
X352984Y78772D01*
X352965Y78713D01*
X352941Y78658D01*
X352913Y78602D01*
X352886Y78547D01*
X352854Y78496D01*
X352819Y78445D01*
X352780Y78394D01*
X352740Y78347D01*
X352697Y78303D01*
X352654Y78260D01*
X352606Y78220D01*
X352555Y78181D01*
X352504Y78146D01*
X352453Y78114D01*
X352398Y78087D01*
X352343Y78059D01*
X352287Y78035D01*
X352228Y78016D01*
X352169Y77996D01*
X352106Y77984D01*
X352047Y77972D01*
X351984Y77965D01*
X351925Y77957D01*
X339657D01*
Y85043D01*
X351925D01*
X351984Y85035D01*
D02*
G37*
G36*
X429343Y67957D02*
X419500D01*
X419315Y67961D01*
X419130Y67976D01*
X418945Y68000D01*
X418764Y68035D01*
X418583Y68079D01*
X418405Y68130D01*
X418228Y68193D01*
X418059Y68264D01*
X417890Y68343D01*
X417728Y68433D01*
X417571Y68528D01*
X417417Y68634D01*
X417272Y68748D01*
X417130Y68866D01*
X416996Y68996D01*
X416866Y69130D01*
X416748Y69272D01*
X416634Y69417D01*
X416528Y69571D01*
X416433Y69728D01*
X416342Y69890D01*
X416264Y70059D01*
X416193Y70228D01*
X416130Y70406D01*
X416079Y70583D01*
X416035Y70764D01*
X416000Y70945D01*
X415976Y71130D01*
X415961Y71315D01*
X415957Y71500D01*
X415961Y71685D01*
X415976Y71870D01*
X416000Y72055D01*
X416035Y72236D01*
X416079Y72417D01*
X416130Y72594D01*
X416193Y72772D01*
X416264Y72941D01*
X416342Y73110D01*
X416433Y73272D01*
X416528Y73429D01*
X416634Y73583D01*
X416748Y73728D01*
X416866Y73870D01*
X416996Y74004D01*
X417130Y74134D01*
X417272Y74252D01*
X417417Y74366D01*
X417571Y74472D01*
X417728Y74567D01*
X417890Y74657D01*
X418059Y74736D01*
X418228Y74807D01*
X418405Y74870D01*
X418583Y74921D01*
X418764Y74965D01*
X418945Y75000D01*
X419130Y75024D01*
X419315Y75039D01*
X419500Y75043D01*
X429343D01*
Y67957D01*
D02*
G37*
G36*
X349685Y75039D02*
X349870Y75024D01*
X350055Y75000D01*
X350236Y74965D01*
X350417Y74921D01*
X350594Y74870D01*
X350772Y74807D01*
X350941Y74736D01*
X351110Y74657D01*
X351272Y74567D01*
X351429Y74472D01*
X351583Y74366D01*
X351728Y74252D01*
X351870Y74134D01*
X352004Y74004D01*
X352134Y73870D01*
X352252Y73728D01*
X352366Y73583D01*
X352472Y73429D01*
X352567Y73272D01*
X352658Y73110D01*
X352736Y72941D01*
X352807Y72772D01*
X352870Y72594D01*
X352921Y72417D01*
X352965Y72236D01*
X353000Y72055D01*
X353024Y71870D01*
X353039Y71685D01*
X353043Y71500D01*
X353039Y71315D01*
X353024Y71130D01*
X353000Y70945D01*
X352965Y70764D01*
X352921Y70583D01*
X352870Y70406D01*
X352807Y70228D01*
X352736Y70059D01*
X352658Y69890D01*
X352567Y69728D01*
X352472Y69571D01*
X352366Y69417D01*
X352252Y69272D01*
X352134Y69130D01*
X352004Y68996D01*
X351870Y68866D01*
X351728Y68748D01*
X351583Y68634D01*
X351429Y68528D01*
X351272Y68433D01*
X351110Y68343D01*
X350941Y68264D01*
X350772Y68193D01*
X350594Y68130D01*
X350417Y68079D01*
X350236Y68035D01*
X350055Y68000D01*
X349870Y67976D01*
X349685Y67961D01*
X349500Y67957D01*
X339657D01*
Y75043D01*
X349500D01*
X349685Y75039D01*
D02*
G37*
G36*
X429343Y57957D02*
X419500D01*
X419315Y57961D01*
X419130Y57976D01*
X418945Y58000D01*
X418764Y58035D01*
X418583Y58079D01*
X418405Y58130D01*
X418228Y58193D01*
X418059Y58264D01*
X417890Y58342D01*
X417728Y58433D01*
X417571Y58528D01*
X417417Y58634D01*
X417272Y58748D01*
X417130Y58866D01*
X416996Y58996D01*
X416866Y59130D01*
X416748Y59272D01*
X416634Y59417D01*
X416528Y59571D01*
X416433Y59728D01*
X416342Y59890D01*
X416264Y60059D01*
X416193Y60228D01*
X416130Y60405D01*
X416079Y60583D01*
X416035Y60764D01*
X416000Y60945D01*
X415976Y61130D01*
X415961Y61315D01*
X415957Y61500D01*
X415961Y61685D01*
X415976Y61870D01*
X416000Y62055D01*
X416035Y62236D01*
X416079Y62417D01*
X416130Y62594D01*
X416193Y62772D01*
X416264Y62941D01*
X416342Y63110D01*
X416433Y63272D01*
X416528Y63429D01*
X416634Y63583D01*
X416748Y63728D01*
X416866Y63870D01*
X416996Y64004D01*
X417130Y64134D01*
X417272Y64252D01*
X417417Y64366D01*
X417571Y64472D01*
X417728Y64567D01*
X417890Y64657D01*
X418059Y64736D01*
X418228Y64807D01*
X418405Y64870D01*
X418583Y64921D01*
X418764Y64965D01*
X418945Y65000D01*
X419130Y65024D01*
X419315Y65039D01*
X419500Y65043D01*
X429343D01*
Y57957D01*
D02*
G37*
G36*
X349685Y65039D02*
X349870Y65024D01*
X350055Y65000D01*
X350236Y64965D01*
X350417Y64921D01*
X350594Y64870D01*
X350772Y64807D01*
X350941Y64736D01*
X351110Y64657D01*
X351272Y64567D01*
X351429Y64472D01*
X351583Y64366D01*
X351728Y64252D01*
X351870Y64134D01*
X352004Y64004D01*
X352134Y63870D01*
X352252Y63728D01*
X352366Y63583D01*
X352472Y63429D01*
X352567Y63272D01*
X352658Y63110D01*
X352736Y62941D01*
X352807Y62772D01*
X352870Y62594D01*
X352921Y62417D01*
X352965Y62236D01*
X353000Y62055D01*
X353024Y61870D01*
X353039Y61685D01*
X353043Y61500D01*
X353039Y61315D01*
X353024Y61130D01*
X353000Y60945D01*
X352965Y60764D01*
X352921Y60583D01*
X352870Y60405D01*
X352807Y60228D01*
X352736Y60059D01*
X352658Y59890D01*
X352567Y59728D01*
X352472Y59571D01*
X352366Y59417D01*
X352252Y59272D01*
X352134Y59130D01*
X352004Y58996D01*
X351870Y58866D01*
X351728Y58748D01*
X351583Y58634D01*
X351429Y58528D01*
X351272Y58433D01*
X351110Y58342D01*
X350941Y58264D01*
X350772Y58193D01*
X350594Y58130D01*
X350417Y58079D01*
X350236Y58035D01*
X350055Y58000D01*
X349870Y57976D01*
X349685Y57961D01*
X349500Y57957D01*
X339657D01*
Y65043D01*
X349500D01*
X349685Y65039D01*
D02*
G37*
G36*
X429343Y47957D02*
X419500D01*
X419315Y47961D01*
X419130Y47976D01*
X418945Y48000D01*
X418764Y48035D01*
X418583Y48079D01*
X418405Y48130D01*
X418228Y48193D01*
X418059Y48264D01*
X417890Y48342D01*
X417728Y48433D01*
X417571Y48528D01*
X417417Y48634D01*
X417272Y48748D01*
X417130Y48866D01*
X416996Y48996D01*
X416866Y49130D01*
X416748Y49272D01*
X416634Y49417D01*
X416528Y49571D01*
X416433Y49728D01*
X416342Y49890D01*
X416264Y50059D01*
X416193Y50228D01*
X416130Y50406D01*
X416079Y50583D01*
X416035Y50764D01*
X416000Y50945D01*
X415976Y51130D01*
X415961Y51315D01*
X415957Y51500D01*
X415961Y51685D01*
X415976Y51870D01*
X416000Y52055D01*
X416035Y52236D01*
X416079Y52417D01*
X416130Y52595D01*
X416193Y52772D01*
X416264Y52941D01*
X416342Y53110D01*
X416433Y53272D01*
X416528Y53429D01*
X416634Y53583D01*
X416748Y53728D01*
X416866Y53870D01*
X416996Y54004D01*
X417130Y54134D01*
X417272Y54252D01*
X417417Y54366D01*
X417571Y54472D01*
X417728Y54567D01*
X417890Y54658D01*
X418059Y54736D01*
X418228Y54807D01*
X418405Y54870D01*
X418583Y54921D01*
X418764Y54965D01*
X418945Y55000D01*
X419130Y55024D01*
X419315Y55039D01*
X419500Y55043D01*
X429343D01*
Y47957D01*
D02*
G37*
G36*
X349685Y55039D02*
X349870Y55024D01*
X350055Y55000D01*
X350236Y54965D01*
X350417Y54921D01*
X350594Y54870D01*
X350772Y54807D01*
X350941Y54736D01*
X351110Y54658D01*
X351272Y54567D01*
X351429Y54472D01*
X351583Y54366D01*
X351728Y54252D01*
X351870Y54134D01*
X352004Y54004D01*
X352134Y53870D01*
X352252Y53728D01*
X352366Y53583D01*
X352472Y53429D01*
X352567Y53272D01*
X352658Y53110D01*
X352736Y52941D01*
X352807Y52772D01*
X352870Y52595D01*
X352921Y52417D01*
X352965Y52236D01*
X353000Y52055D01*
X353024Y51870D01*
X353039Y51685D01*
X353043Y51500D01*
X353039Y51315D01*
X353024Y51130D01*
X353000Y50945D01*
X352965Y50764D01*
X352921Y50583D01*
X352870Y50406D01*
X352807Y50228D01*
X352736Y50059D01*
X352658Y49890D01*
X352567Y49728D01*
X352472Y49571D01*
X352366Y49417D01*
X352252Y49272D01*
X352134Y49130D01*
X352004Y48996D01*
X351870Y48866D01*
X351728Y48748D01*
X351583Y48634D01*
X351429Y48528D01*
X351272Y48433D01*
X351110Y48342D01*
X350941Y48264D01*
X350772Y48193D01*
X350594Y48130D01*
X350417Y48079D01*
X350236Y48035D01*
X350055Y48000D01*
X349870Y47976D01*
X349685Y47961D01*
X349500Y47957D01*
X339657D01*
Y55043D01*
X349500D01*
X349685Y55039D01*
D02*
G37*
G36*
X429343Y37957D02*
X419500D01*
X419315Y37961D01*
X419130Y37976D01*
X418945Y38000D01*
X418764Y38035D01*
X418583Y38079D01*
X418405Y38130D01*
X418228Y38193D01*
X418059Y38264D01*
X417890Y38342D01*
X417728Y38433D01*
X417571Y38528D01*
X417417Y38634D01*
X417272Y38748D01*
X417130Y38866D01*
X416996Y38996D01*
X416866Y39130D01*
X416748Y39272D01*
X416634Y39417D01*
X416528Y39571D01*
X416433Y39728D01*
X416342Y39890D01*
X416264Y40059D01*
X416193Y40228D01*
X416130Y40405D01*
X416079Y40583D01*
X416035Y40764D01*
X416000Y40945D01*
X415976Y41130D01*
X415961Y41315D01*
X415957Y41500D01*
X415961Y41685D01*
X415976Y41870D01*
X416000Y42055D01*
X416035Y42236D01*
X416079Y42417D01*
X416130Y42595D01*
X416193Y42772D01*
X416264Y42941D01*
X416342Y43110D01*
X416433Y43272D01*
X416528Y43429D01*
X416634Y43583D01*
X416748Y43728D01*
X416866Y43870D01*
X416996Y44004D01*
X417130Y44134D01*
X417272Y44252D01*
X417417Y44366D01*
X417571Y44472D01*
X417728Y44567D01*
X417890Y44657D01*
X418059Y44736D01*
X418228Y44807D01*
X418405Y44870D01*
X418583Y44921D01*
X418764Y44965D01*
X418945Y45000D01*
X419130Y45024D01*
X419315Y45039D01*
X419500Y45043D01*
X429343D01*
Y37957D01*
D02*
G37*
G36*
X349685Y45039D02*
X349870Y45024D01*
X350055Y45000D01*
X350236Y44965D01*
X350417Y44921D01*
X350594Y44870D01*
X350772Y44807D01*
X350941Y44736D01*
X351110Y44657D01*
X351272Y44567D01*
X351429Y44472D01*
X351583Y44366D01*
X351728Y44252D01*
X351870Y44134D01*
X352004Y44004D01*
X352134Y43870D01*
X352252Y43728D01*
X352366Y43583D01*
X352472Y43429D01*
X352567Y43272D01*
X352658Y43110D01*
X352736Y42941D01*
X352807Y42772D01*
X352870Y42595D01*
X352921Y42417D01*
X352965Y42236D01*
X353000Y42055D01*
X353024Y41870D01*
X353039Y41685D01*
X353043Y41500D01*
X353039Y41315D01*
X353024Y41130D01*
X353000Y40945D01*
X352965Y40764D01*
X352921Y40583D01*
X352870Y40405D01*
X352807Y40228D01*
X352736Y40059D01*
X352658Y39890D01*
X352567Y39728D01*
X352472Y39571D01*
X352366Y39417D01*
X352252Y39272D01*
X352134Y39130D01*
X352004Y38996D01*
X351870Y38866D01*
X351728Y38748D01*
X351583Y38634D01*
X351429Y38528D01*
X351272Y38433D01*
X351110Y38342D01*
X350941Y38264D01*
X350772Y38193D01*
X350594Y38130D01*
X350417Y38079D01*
X350236Y38035D01*
X350055Y38000D01*
X349870Y37976D01*
X349685Y37961D01*
X349500Y37957D01*
X339657D01*
Y45043D01*
X349500D01*
X349685Y45039D01*
D02*
G37*
G36*
X429343Y27957D02*
X417075D01*
X417016Y27965D01*
X416953Y27972D01*
X416894Y27984D01*
X416831Y27996D01*
X416772Y28016D01*
X416713Y28035D01*
X416657Y28059D01*
X416602Y28087D01*
X416547Y28114D01*
X416496Y28146D01*
X416445Y28181D01*
X416394Y28220D01*
X416347Y28260D01*
X416303Y28303D01*
X416260Y28346D01*
X416221Y28394D01*
X416181Y28445D01*
X416146Y28496D01*
X416114Y28547D01*
X416087Y28602D01*
X416059Y28657D01*
X416035Y28713D01*
X416016Y28772D01*
X415996Y28831D01*
X415984Y28894D01*
X415972Y28953D01*
X415965Y29016D01*
X415957Y29075D01*
Y29138D01*
Y33862D01*
Y33925D01*
X415965Y33984D01*
X415972Y34047D01*
X415984Y34106D01*
X415996Y34169D01*
X416016Y34228D01*
X416035Y34287D01*
X416059Y34343D01*
X416087Y34398D01*
X416114Y34453D01*
X416146Y34504D01*
X416181Y34555D01*
X416221Y34606D01*
X416260Y34653D01*
X416303Y34697D01*
X416347Y34740D01*
X416394Y34780D01*
X416445Y34819D01*
X416496Y34854D01*
X416547Y34886D01*
X416602Y34913D01*
X416657Y34941D01*
X416713Y34965D01*
X416772Y34984D01*
X416831Y35004D01*
X416894Y35016D01*
X416953Y35028D01*
X417016Y35035D01*
X417075Y35043D01*
X429343D01*
Y27957D01*
D02*
G37*
G36*
X351984Y35035D02*
X352047Y35028D01*
X352106Y35016D01*
X352169Y35004D01*
X352228Y34984D01*
X352287Y34965D01*
X352343Y34941D01*
X352398Y34913D01*
X352453Y34886D01*
X352504Y34854D01*
X352555Y34819D01*
X352606Y34780D01*
X352654Y34740D01*
X352697Y34697D01*
X352740Y34653D01*
X352780Y34606D01*
X352819Y34555D01*
X352854Y34504D01*
X352886Y34453D01*
X352913Y34398D01*
X352941Y34343D01*
X352965Y34287D01*
X352984Y34228D01*
X353004Y34169D01*
X353016Y34106D01*
X353028Y34047D01*
X353035Y33984D01*
X353043Y33925D01*
Y33862D01*
Y29138D01*
Y29075D01*
X353035Y29016D01*
X353028Y28953D01*
X353016Y28894D01*
X353004Y28831D01*
X352984Y28772D01*
X352965Y28713D01*
X352941Y28657D01*
X352913Y28602D01*
X352886Y28547D01*
X352854Y28496D01*
X352819Y28445D01*
X352780Y28394D01*
X352740Y28346D01*
X352697Y28303D01*
X352654Y28260D01*
X352606Y28220D01*
X352555Y28181D01*
X352504Y28146D01*
X352453Y28114D01*
X352398Y28087D01*
X352343Y28059D01*
X352287Y28035D01*
X352228Y28016D01*
X352169Y27996D01*
X352106Y27984D01*
X352047Y27972D01*
X351984Y27965D01*
X351925Y27957D01*
X339657D01*
Y35043D01*
X351925D01*
X351984Y35035D01*
D02*
G37*
G36*
X429343Y17957D02*
X419500D01*
X419315Y17961D01*
X419130Y17976D01*
X418945Y18000D01*
X418764Y18035D01*
X418583Y18079D01*
X418405Y18130D01*
X418228Y18193D01*
X418059Y18264D01*
X417890Y18342D01*
X417728Y18433D01*
X417571Y18528D01*
X417417Y18634D01*
X417272Y18748D01*
X417130Y18866D01*
X416996Y18996D01*
X416866Y19130D01*
X416748Y19272D01*
X416634Y19417D01*
X416528Y19571D01*
X416433Y19728D01*
X416342Y19890D01*
X416264Y20059D01*
X416193Y20228D01*
X416130Y20405D01*
X416079Y20583D01*
X416035Y20764D01*
X416000Y20945D01*
X415976Y21130D01*
X415961Y21315D01*
X415957Y21500D01*
X415961Y21685D01*
X415976Y21870D01*
X416000Y22055D01*
X416035Y22236D01*
X416079Y22417D01*
X416130Y22594D01*
X416193Y22772D01*
X416264Y22941D01*
X416342Y23110D01*
X416433Y23272D01*
X416528Y23429D01*
X416634Y23583D01*
X416748Y23728D01*
X416866Y23870D01*
X416996Y24004D01*
X417130Y24134D01*
X417272Y24252D01*
X417417Y24366D01*
X417571Y24472D01*
X417728Y24567D01*
X417890Y24657D01*
X418059Y24736D01*
X418228Y24807D01*
X418405Y24870D01*
X418583Y24921D01*
X418764Y24965D01*
X418945Y25000D01*
X419130Y25024D01*
X419315Y25039D01*
X419500Y25043D01*
X429343D01*
Y17957D01*
D02*
G37*
G36*
X349685Y25039D02*
X349870Y25024D01*
X350055Y25000D01*
X350236Y24965D01*
X350417Y24921D01*
X350594Y24870D01*
X350772Y24807D01*
X350941Y24736D01*
X351110Y24657D01*
X351272Y24567D01*
X351429Y24472D01*
X351583Y24366D01*
X351728Y24252D01*
X351870Y24134D01*
X352004Y24004D01*
X352134Y23870D01*
X352252Y23728D01*
X352366Y23583D01*
X352472Y23429D01*
X352567Y23272D01*
X352658Y23110D01*
X352736Y22941D01*
X352807Y22772D01*
X352870Y22594D01*
X352921Y22417D01*
X352965Y22236D01*
X353000Y22055D01*
X353024Y21870D01*
X353039Y21685D01*
X353043Y21500D01*
X353039Y21315D01*
X353024Y21130D01*
X353000Y20945D01*
X352965Y20764D01*
X352921Y20583D01*
X352870Y20405D01*
X352807Y20228D01*
X352736Y20059D01*
X352658Y19890D01*
X352567Y19728D01*
X352472Y19571D01*
X352366Y19417D01*
X352252Y19272D01*
X352134Y19130D01*
X352004Y18996D01*
X351870Y18866D01*
X351728Y18748D01*
X351583Y18634D01*
X351429Y18528D01*
X351272Y18433D01*
X351110Y18342D01*
X350941Y18264D01*
X350772Y18193D01*
X350594Y18130D01*
X350417Y18079D01*
X350236Y18035D01*
X350055Y18000D01*
X349870Y17976D01*
X349685Y17961D01*
X349500Y17957D01*
X339657D01*
Y25043D01*
X349500D01*
X349685Y25039D01*
D02*
G37*
G36*
X429343Y7957D02*
X419500D01*
X419315Y7961D01*
X419130Y7976D01*
X418945Y8000D01*
X418764Y8035D01*
X418583Y8079D01*
X418405Y8130D01*
X418228Y8193D01*
X418059Y8264D01*
X417890Y8343D01*
X417728Y8433D01*
X417571Y8528D01*
X417417Y8634D01*
X417272Y8748D01*
X417130Y8866D01*
X416996Y8996D01*
X416866Y9130D01*
X416748Y9272D01*
X416634Y9417D01*
X416528Y9571D01*
X416433Y9728D01*
X416342Y9890D01*
X416264Y10059D01*
X416193Y10228D01*
X416130Y10406D01*
X416079Y10583D01*
X416035Y10764D01*
X416000Y10945D01*
X415976Y11130D01*
X415961Y11315D01*
X415957Y11500D01*
X415961Y11685D01*
X415976Y11870D01*
X416000Y12055D01*
X416035Y12236D01*
X416079Y12417D01*
X416130Y12595D01*
X416193Y12772D01*
X416264Y12941D01*
X416342Y13110D01*
X416433Y13272D01*
X416528Y13429D01*
X416634Y13583D01*
X416748Y13728D01*
X416866Y13870D01*
X416996Y14004D01*
X417130Y14134D01*
X417272Y14252D01*
X417417Y14366D01*
X417571Y14472D01*
X417728Y14567D01*
X417890Y14658D01*
X418059Y14736D01*
X418228Y14807D01*
X418405Y14870D01*
X418583Y14921D01*
X418764Y14965D01*
X418945Y15000D01*
X419130Y15024D01*
X419315Y15039D01*
X419500Y15043D01*
X429343D01*
Y7957D01*
D02*
G37*
G36*
X349685Y15039D02*
X349870Y15024D01*
X350055Y15000D01*
X350236Y14965D01*
X350417Y14921D01*
X350594Y14870D01*
X350772Y14807D01*
X350941Y14736D01*
X351110Y14658D01*
X351272Y14567D01*
X351429Y14472D01*
X351583Y14366D01*
X351728Y14252D01*
X351870Y14134D01*
X352004Y14004D01*
X352134Y13870D01*
X352252Y13728D01*
X352366Y13583D01*
X352472Y13429D01*
X352567Y13272D01*
X352658Y13110D01*
X352736Y12941D01*
X352807Y12772D01*
X352870Y12595D01*
X352921Y12417D01*
X352965Y12236D01*
X353000Y12055D01*
X353024Y11870D01*
X353039Y11685D01*
X353043Y11500D01*
X353039Y11315D01*
X353024Y11130D01*
X353000Y10945D01*
X352965Y10764D01*
X352921Y10583D01*
X352870Y10406D01*
X352807Y10228D01*
X352736Y10059D01*
X352658Y9890D01*
X352567Y9728D01*
X352472Y9571D01*
X352366Y9417D01*
X352252Y9272D01*
X352134Y9130D01*
X352004Y8996D01*
X351870Y8866D01*
X351728Y8748D01*
X351583Y8634D01*
X351429Y8528D01*
X351272Y8433D01*
X351110Y8343D01*
X350941Y8264D01*
X350772Y8193D01*
X350594Y8130D01*
X350417Y8079D01*
X350236Y8035D01*
X350055Y8000D01*
X349870Y7976D01*
X349685Y7961D01*
X349500Y7957D01*
X339657D01*
Y15043D01*
X349500D01*
X349685Y15039D01*
D02*
G37*
D17*
X121500Y121500D02*
D03*
Y126618D02*
D03*
X114020Y124059D02*
D03*
X121740Y137941D02*
D03*
Y143059D02*
D03*
X114260Y140500D02*
D03*
X212740Y120941D02*
D03*
Y126059D02*
D03*
X205260Y123500D02*
D03*
X212480Y137441D02*
D03*
Y142559D02*
D03*
X205000Y140000D02*
D03*
X212240Y88941D02*
D03*
Y94059D02*
D03*
X204760Y91500D02*
D03*
X212740Y104941D02*
D03*
Y110059D02*
D03*
X205260Y107500D02*
D03*
X211740Y39941D02*
D03*
Y45059D02*
D03*
X204260Y42500D02*
D03*
X211980Y23441D02*
D03*
Y28559D02*
D03*
X204500Y26000D02*
D03*
X119740Y54941D02*
D03*
Y60059D02*
D03*
X112260Y57500D02*
D03*
X120240Y38441D02*
D03*
Y43559D02*
D03*
X112760Y41000D02*
D03*
X120240Y70941D02*
D03*
Y76059D02*
D03*
X112760Y73500D02*
D03*
X120740Y87941D02*
D03*
Y93059D02*
D03*
X113260Y90500D02*
D03*
X211740Y55941D02*
D03*
Y61059D02*
D03*
X204260Y58500D02*
D03*
X212240Y72441D02*
D03*
Y77559D02*
D03*
X204760Y75000D02*
D03*
X121240Y104941D02*
D03*
Y110059D02*
D03*
X113760Y107500D02*
D03*
D19*
X374953Y23941D02*
D03*
X394047D02*
D03*
D20*
X373772Y12012D02*
D03*
X395228D02*
D03*
D21*
X394343Y57287D02*
D03*
Y47445D02*
D03*
Y37602D02*
D03*
X384500Y23823D02*
D03*
X380563Y10831D02*
D03*
X388437D02*
D03*
D22*
X133063Y123500D02*
D03*
X140937D02*
D03*
X133063Y140000D02*
D03*
X140937D02*
D03*
X89626Y140500D02*
D03*
X97500D02*
D03*
X89126Y124000D02*
D03*
X97000D02*
D03*
X225563Y122000D02*
D03*
X233437D02*
D03*
X225712Y138832D02*
D03*
X233586D02*
D03*
X225563Y90500D02*
D03*
X233437D02*
D03*
X225563Y73500D02*
D03*
X233437D02*
D03*
X225563Y57500D02*
D03*
X233437D02*
D03*
X225563Y41000D02*
D03*
X233437D02*
D03*
X225563Y106500D02*
D03*
X233437D02*
D03*
X183000Y42500D02*
D03*
X190874D02*
D03*
X183063Y26000D02*
D03*
X190937D02*
D03*
X88563Y41000D02*
D03*
X96437D02*
D03*
X88563Y57500D02*
D03*
X96437D02*
D03*
X133063Y40000D02*
D03*
X140937D02*
D03*
X133063Y56500D02*
D03*
X140937D02*
D03*
X89063Y90500D02*
D03*
X96937D02*
D03*
X89000Y73500D02*
D03*
X96874D02*
D03*
X133063Y72500D02*
D03*
X140937D02*
D03*
X133063Y89500D02*
D03*
X140937D02*
D03*
X224983Y25139D02*
D03*
X232857D02*
D03*
X183063Y58500D02*
D03*
X190937D02*
D03*
X183063Y75000D02*
D03*
X190937D02*
D03*
X183126Y91500D02*
D03*
X191000D02*
D03*
X89563Y107500D02*
D03*
X97437D02*
D03*
X133063Y107000D02*
D03*
X140937D02*
D03*
X183063Y107500D02*
D03*
X190937D02*
D03*
X183063Y123500D02*
D03*
X190937D02*
D03*
X183063Y140000D02*
D03*
X190937D02*
D03*
D23*
X349500Y11500D02*
D03*
Y21500D02*
D03*
Y31500D02*
D03*
Y41500D02*
D03*
Y51500D02*
D03*
Y61500D02*
D03*
Y71500D02*
D03*
Y81500D02*
D03*
Y91500D02*
D03*
Y101500D02*
D03*
Y111500D02*
D03*
Y121500D02*
D03*
Y131500D02*
D03*
Y141500D02*
D03*
Y151500D02*
D03*
Y161500D02*
D03*
Y171500D02*
D03*
Y181500D02*
D03*
Y191500D02*
D03*
Y201500D02*
D03*
X419500D02*
D03*
Y191500D02*
D03*
Y181500D02*
D03*
Y171500D02*
D03*
Y161500D02*
D03*
Y151500D02*
D03*
Y141500D02*
D03*
Y131500D02*
D03*
Y121500D02*
D03*
Y111500D02*
D03*
Y101500D02*
D03*
Y91500D02*
D03*
Y81500D02*
D03*
Y71500D02*
D03*
Y61500D02*
D03*
Y51500D02*
D03*
Y41500D02*
D03*
Y31500D02*
D03*
Y21500D02*
D03*
Y11500D02*
D03*
D24*
X39000Y47500D02*
D03*
X286000D02*
D03*
D25*
X39000Y57500D02*
D03*
Y67500D02*
D03*
Y77500D02*
D03*
Y87500D02*
D03*
Y97500D02*
D03*
Y107500D02*
D03*
Y117500D02*
D03*
Y127500D02*
D03*
Y137500D02*
D03*
X29000Y47500D02*
D03*
Y57500D02*
D03*
Y67500D02*
D03*
Y77500D02*
D03*
Y87500D02*
D03*
Y97500D02*
D03*
Y107500D02*
D03*
Y117500D02*
D03*
Y127500D02*
D03*
Y137500D02*
D03*
X276000D02*
D03*
Y127500D02*
D03*
Y117500D02*
D03*
Y107500D02*
D03*
Y97500D02*
D03*
Y87500D02*
D03*
Y77500D02*
D03*
Y67500D02*
D03*
Y57500D02*
D03*
Y47500D02*
D03*
X286000Y137500D02*
D03*
Y127500D02*
D03*
Y117500D02*
D03*
Y107500D02*
D03*
Y97500D02*
D03*
Y87500D02*
D03*
Y77500D02*
D03*
Y67500D02*
D03*
Y57500D02*
D03*
D26*
X98000Y180500D02*
D03*
D27*
Y190500D02*
D03*
D28*
X211898Y199028D02*
D03*
X143000D02*
D03*
X225677Y169500D02*
D03*
D29*
X143000D02*
D03*
D30*
X99500Y49000D02*
D03*
Y65000D02*
D03*
X128500Y79500D02*
D03*
X100000Y81500D02*
D03*
Y98500D02*
D03*
Y115000D02*
D03*
Y131500D02*
D03*
X99850Y148500D02*
D03*
X193000Y32000D02*
D03*
X218500D02*
D03*
X129000Y47500D02*
D03*
X218500Y48000D02*
D03*
X192500Y49000D02*
D03*
X128500Y64000D02*
D03*
X192500Y64500D02*
D03*
X218500D02*
D03*
X192500Y81000D02*
D03*
X218500D02*
D03*
X129000Y97500D02*
D03*
X193000Y98000D02*
D03*
X219000D02*
D03*
X129000Y114000D02*
D03*
X218500D02*
D03*
X193500Y114500D02*
D03*
X219000Y130000D02*
D03*
X128500Y131000D02*
D03*
X219000Y145500D02*
D03*
X129000Y147000D02*
D03*
X194500Y147500D02*
D03*
X262500Y182000D02*
D03*
X258000Y185500D02*
D03*
X252000Y189000D02*
D03*
X309500Y52500D02*
D03*
X306000Y92500D02*
D03*
X303000Y102425D02*
D03*
X309500Y112500D02*
D03*
X312500Y132500D02*
D03*
X266500Y178000D02*
D03*
X315500Y193000D02*
D03*
X312500Y202000D02*
D03*
X265500Y219500D02*
D03*
X269000Y223000D02*
D03*
X312500Y230000D02*
D03*
X307000Y233500D02*
D03*
X325000Y62425D02*
D03*
X315500Y150000D02*
D03*
X316500Y226500D02*
D03*
X318500Y157500D02*
D03*
Y206000D02*
D03*
X322000Y208650D02*
D03*
X193000Y130000D02*
D03*
X258000Y211500D02*
D03*
X262000Y215500D02*
D03*
D31*
X19685Y220472D02*
D03*
X216535Y220472D02*
D03*
X314961Y11811D02*
D03*
X19685Y11811D02*
D03*
M02*
