M48
;Layer_Color=9474304
;FILE_FORMAT=2:5
INCH,LZ
;TYPE=PLATED
T01F00S00C0.01300
T02F00S00C0.03937
T03F00S00C0.04331
T04F00S00C0.04488
T05F00S00C0.05118
T06F00S00C0.12598
%
T01
X00995Y0049
X0129Y00475
X01925Y0049
X0193Y0032
X02185
Y0048
X03095Y00525
X0325Y0062425
X0306Y00925
X0303Y0102425
X03095Y01125
X03125Y01325
X03155Y015
X03185Y01575
X03155Y0193
X03125Y0202
X03185Y0206
X0322Y020865
X0258Y02115
Y01855
X02625Y0182
X02665Y0178
X0252Y0189
X0219Y01455
Y013
X02185Y0114
X0219Y0098
X02185Y0081
Y00645
X01925
Y0081
X0193Y0098
X01935Y01145
X0193Y013
X01945Y01475
X0129Y0147
X01285Y0131
X0129Y0114
Y00975
X01285Y00795
Y0064
X00995Y0065
X01Y00815
Y00985
Y0115
Y01315
X009985Y01485
X0262Y02155
X02655Y02195
X0269Y0223
X0307Y02335
X03125Y023
X03165Y02265
T02
X03495Y00115
Y00215
Y00315
Y00415
Y00515
X04195
Y00415
Y00315
Y00215
Y00115
Y00615
Y00715
Y00815
Y00915
Y01015
Y01115
Y01215
Y01315
Y01415
Y01515
Y01615
Y01715
Y01815
Y01915
Y02015
X03495
Y01915
Y01815
Y01715
Y01615
Y01515
Y01415
Y01315
Y01215
Y01115
Y01015
Y00915
Y00815
Y00715
Y00615
T03
X0098Y01805
Y01905
T04
X0029Y00475
X0039
X0276
X0286
Y00575
X0276
Y00675
Y00775
Y00875
Y00975
Y01075
Y01175
Y01275
Y01375
X0286
Y01275
Y01175
Y01075
Y00975
Y00875
Y00775
Y00675
X0039
Y00575
X0029
Y00675
Y00775
X0039
Y00875
Y00975
Y01075
Y01175
Y01275
Y01375
X0029
Y01275
Y01175
Y01075
Y00975
Y00875
T05
X0225677Y01695
X0211898Y0199028
X0143
Y01695
T06
X0019685Y0011811
X0314961Y0011811
X0019685Y0220472
X0216535Y0220472
M30
