G04*
G04 #@! TF.GenerationSoftware,Altium Limited,Altium Designer,23.9.2 (47)*
G04*
G04 Layer_Physical_Order=3*
G04 Layer_Color=16440176*
%FSLAX25Y25*%
%MOIN*%
G70*
G04*
G04 #@! TF.SameCoordinates,7D7DC0CB-560A-4B43-BD03-011E7A05A225*
G04*
G04*
G04 #@! TF.FilePolarity,Positive*
G04*
G01*
G75*
%ADD24R,0.06850X0.06850*%
%ADD25C,0.06850*%
%ADD33C,0.06000*%
%ADD34C,0.06299*%
G04:AMPARAMS|DCode=35|XSize=62.99mil|YSize=62.99mil|CornerRadius=15.75mil|HoleSize=0mil|Usage=FLASHONLY|Rotation=270.000|XOffset=0mil|YOffset=0mil|HoleType=Round|Shape=RoundedRectangle|*
%AMROUNDEDRECTD35*
21,1,0.06299,0.03150,0,0,270.0*
21,1,0.03150,0.06299,0,0,270.0*
1,1,0.03150,-0.01575,-0.01575*
1,1,0.03150,-0.01575,0.01575*
1,1,0.03150,0.01575,0.01575*
1,1,0.03150,0.01575,-0.01575*
%
%ADD35ROUNDEDRECTD35*%
%ADD36C,0.07087*%
%ADD37R,0.07087X0.07087*%
%ADD38C,0.02300*%
%ADD39C,0.15748*%
G36*
X292500Y140000D02*
Y135000D01*
X290000Y132500D01*
X130041D01*
X129718Y132823D01*
X128928Y133150D01*
X128072D01*
X127282Y132823D01*
X126959Y132500D01*
X101913D01*
X101823Y132718D01*
X101218Y133323D01*
X100428Y133650D01*
X99572D01*
X98782Y133323D01*
X98177Y132718D01*
X98087Y132500D01*
X22500D01*
X20000Y135000D01*
Y140000D01*
X23000Y142490D01*
X290009D01*
X292500Y140000D01*
D02*
G37*
G36*
X428000Y180500D02*
X428000Y81500D01*
X423250Y76750D01*
X339601D01*
X326500Y93250D01*
X308016D01*
X307823Y93718D01*
X307218Y94323D01*
X306428Y94650D01*
X305572D01*
X304782Y94323D01*
X304177Y93718D01*
X303983Y93250D01*
X288489D01*
X288355Y93750D01*
X288717Y93959D01*
X289541Y94783D01*
X290124Y95792D01*
X290425Y96917D01*
Y98083D01*
X290124Y99208D01*
X289541Y100217D01*
X288717Y101041D01*
X287708Y101624D01*
X286583Y101925D01*
X285417D01*
X284292Y101624D01*
X283283Y101041D01*
X282459Y100217D01*
X281876Y99208D01*
X281575Y98083D01*
Y96917D01*
X281876Y95792D01*
X282459Y94783D01*
X283283Y93959D01*
X283645Y93750D01*
X283511Y93250D01*
X278489D01*
X278355Y93750D01*
X278717Y93959D01*
X279541Y94783D01*
X280124Y95792D01*
X280425Y96917D01*
Y97000D01*
X276000D01*
X271575D01*
Y96917D01*
X271876Y95792D01*
X272459Y94783D01*
X273283Y93959D01*
X273645Y93750D01*
X273511Y93250D01*
X41489D01*
X41355Y93750D01*
X41717Y93959D01*
X42541Y94783D01*
X43124Y95792D01*
X43425Y96917D01*
Y98083D01*
X43124Y99208D01*
X42541Y100217D01*
X41717Y101041D01*
X40708Y101624D01*
X39583Y101925D01*
X38417D01*
X37292Y101624D01*
X36283Y101041D01*
X35459Y100217D01*
X34876Y99208D01*
X34575Y98083D01*
Y96917D01*
X34876Y95792D01*
X35459Y94783D01*
X36283Y93959D01*
X36645Y93750D01*
X36511Y93250D01*
X31489D01*
X31355Y93750D01*
X31717Y93959D01*
X32541Y94783D01*
X33124Y95792D01*
X33425Y96917D01*
Y97000D01*
X29000D01*
X24575D01*
Y96917D01*
X24876Y95792D01*
X25459Y94783D01*
X26283Y93959D01*
X26645Y93750D01*
X26511Y93250D01*
X23750D01*
X20000Y97000D01*
Y128250D01*
X22571Y131250D01*
X25785D01*
X25992Y130750D01*
X25459Y130217D01*
X24876Y129208D01*
X24575Y128083D01*
Y128000D01*
X29000D01*
X33425D01*
Y128083D01*
X33124Y129208D01*
X32541Y130217D01*
X32008Y130750D01*
X32215Y131250D01*
X35785D01*
X35992Y130750D01*
X35459Y130217D01*
X34876Y129208D01*
X34575Y128083D01*
Y128000D01*
X39000D01*
X43425D01*
Y128083D01*
X43124Y129208D01*
X42541Y130217D01*
X42008Y130750D01*
X42215Y131250D01*
X97850D01*
Y131072D01*
X98177Y130282D01*
X98782Y129677D01*
X99572Y129350D01*
X100428D01*
X101218Y129677D01*
X101823Y130282D01*
X102150Y131072D01*
Y131250D01*
X126350D01*
Y130572D01*
X126677Y129782D01*
X127282Y129177D01*
X128072Y128850D01*
X128928D01*
X129718Y129177D01*
X130323Y129782D01*
X130650Y130572D01*
Y131250D01*
X190649D01*
X190983Y130750D01*
X190850Y130428D01*
Y129572D01*
X191177Y128782D01*
X191782Y128177D01*
X192572Y127850D01*
X193428D01*
X194218Y128177D01*
X194823Y128782D01*
X195150Y129572D01*
Y130428D01*
X195017Y130750D01*
X195351Y131250D01*
X216649D01*
X216984Y130750D01*
X216850Y130428D01*
Y129572D01*
X217177Y128782D01*
X217782Y128177D01*
X218572Y127850D01*
X219428D01*
X220218Y128177D01*
X220823Y128782D01*
X221150Y129572D01*
Y130428D01*
X221017Y130750D01*
X221351Y131250D01*
X272785Y131250D01*
X272992Y130750D01*
X272459Y130217D01*
X271876Y129208D01*
X271575Y128083D01*
Y128000D01*
X276000D01*
X280425D01*
Y128083D01*
X280124Y129208D01*
X279541Y130217D01*
X279008Y130750D01*
X279215Y131250D01*
X282785D01*
X282992Y130750D01*
X282459Y130217D01*
X281876Y129208D01*
X281575Y128083D01*
Y128000D01*
X286000D01*
X290425D01*
Y128083D01*
X290124Y129208D01*
X289541Y130217D01*
X289008Y130750D01*
X289215Y131250D01*
X310710D01*
X311282Y130677D01*
X312072Y130350D01*
X312928D01*
X313718Y130677D01*
X314290Y131250D01*
X334250D01*
X339601Y136601D01*
Y181101D01*
X345750Y187250D01*
X421250D01*
X428000Y180500D01*
D02*
G37*
%LPC*%
G36*
X286583Y141925D02*
X286500D01*
Y138000D01*
X290425D01*
Y138083D01*
X290124Y139208D01*
X289541Y140217D01*
X288717Y141041D01*
X287708Y141624D01*
X286583Y141925D01*
D02*
G37*
G36*
X276583D02*
X276500D01*
Y138000D01*
X280425D01*
Y138083D01*
X280124Y139208D01*
X279541Y140217D01*
X278717Y141041D01*
X277708Y141624D01*
X276583Y141925D01*
D02*
G37*
G36*
X39583D02*
X39500D01*
Y138000D01*
X43425D01*
Y138083D01*
X43124Y139208D01*
X42541Y140217D01*
X41717Y141041D01*
X40708Y141624D01*
X39583Y141925D01*
D02*
G37*
G36*
X29583D02*
X29500D01*
Y138000D01*
X33425D01*
Y138083D01*
X33124Y139208D01*
X32541Y140217D01*
X31717Y141041D01*
X30708Y141624D01*
X29583Y141925D01*
D02*
G37*
G36*
X285500D02*
X285417D01*
X284292Y141624D01*
X283283Y141041D01*
X282459Y140217D01*
X281876Y139208D01*
X281575Y138083D01*
Y138000D01*
X285500D01*
Y141925D01*
D02*
G37*
G36*
X275500D02*
X275417D01*
X274292Y141624D01*
X273283Y141041D01*
X272459Y140217D01*
X271876Y139208D01*
X271575Y138083D01*
Y138000D01*
X275500D01*
Y141925D01*
D02*
G37*
G36*
X38500D02*
X38417D01*
X37292Y141624D01*
X36283Y141041D01*
X35459Y140217D01*
X34876Y139208D01*
X34575Y138083D01*
Y138000D01*
X38500D01*
Y141925D01*
D02*
G37*
G36*
X28500D02*
X28417D01*
X27292Y141624D01*
X26283Y141041D01*
X25459Y140217D01*
X24876Y139208D01*
X24575Y138083D01*
Y138000D01*
X28500D01*
Y141925D01*
D02*
G37*
G36*
X290425Y137000D02*
X286500D01*
Y133075D01*
X286583D01*
X287708Y133376D01*
X288717Y133959D01*
X289541Y134783D01*
X290124Y135792D01*
X290425Y136917D01*
Y137000D01*
D02*
G37*
G36*
X285500D02*
X281575D01*
Y136917D01*
X281876Y135792D01*
X282459Y134783D01*
X283283Y133959D01*
X284292Y133376D01*
X285417Y133075D01*
X285500D01*
Y137000D01*
D02*
G37*
G36*
X280425D02*
X276500D01*
Y133075D01*
X276583D01*
X277708Y133376D01*
X278717Y133959D01*
X279541Y134783D01*
X280124Y135792D01*
X280425Y136917D01*
Y137000D01*
D02*
G37*
G36*
X275500D02*
X271575D01*
Y136917D01*
X271876Y135792D01*
X272459Y134783D01*
X273283Y133959D01*
X274292Y133376D01*
X275417Y133075D01*
X275500D01*
Y137000D01*
D02*
G37*
G36*
X43425D02*
X39500D01*
Y133075D01*
X39583D01*
X40708Y133376D01*
X41717Y133959D01*
X42541Y134783D01*
X43124Y135792D01*
X43425Y136917D01*
Y137000D01*
D02*
G37*
G36*
X38500D02*
X34575D01*
Y136917D01*
X34876Y135792D01*
X35459Y134783D01*
X36283Y133959D01*
X37292Y133376D01*
X38417Y133075D01*
X38500D01*
Y137000D01*
D02*
G37*
G36*
X33425D02*
X29500D01*
Y133075D01*
X29583D01*
X30708Y133376D01*
X31717Y133959D01*
X32541Y134783D01*
X33124Y135792D01*
X33425Y136917D01*
Y137000D01*
D02*
G37*
G36*
X28500D02*
X24575D01*
Y136917D01*
X24876Y135792D01*
X25459Y134783D01*
X26283Y133959D01*
X27292Y133376D01*
X28417Y133075D01*
X28500D01*
Y137000D01*
D02*
G37*
G36*
X350027Y185500D02*
X350000D01*
Y182000D01*
X353500D01*
Y182027D01*
X353227Y183044D01*
X352701Y183956D01*
X351956Y184701D01*
X351044Y185227D01*
X350027Y185500D01*
D02*
G37*
G36*
X420027D02*
X420000D01*
Y182000D01*
X423500D01*
Y182027D01*
X423227Y183044D01*
X422701Y183956D01*
X421956Y184701D01*
X421044Y185227D01*
X420027Y185500D01*
D02*
G37*
G36*
X349000D02*
X348973D01*
X347956Y185227D01*
X347044Y184701D01*
X346299Y183956D01*
X345773Y183044D01*
X345500Y182027D01*
Y182000D01*
X349000D01*
Y185500D01*
D02*
G37*
G36*
X419000D02*
X418973D01*
X417956Y185227D01*
X417044Y184701D01*
X416299Y183956D01*
X415773Y183044D01*
X415500Y182027D01*
Y182000D01*
X419000D01*
Y185500D01*
D02*
G37*
G36*
X423500Y181000D02*
X420000D01*
Y177500D01*
X420027D01*
X421044Y177773D01*
X421956Y178299D01*
X422701Y179044D01*
X423227Y179956D01*
X423500Y180973D01*
Y181000D01*
D02*
G37*
G36*
X419000D02*
X415500D01*
Y180973D01*
X415773Y179956D01*
X416299Y179044D01*
X417044Y178299D01*
X417956Y177773D01*
X418973Y177500D01*
X419000D01*
Y181000D01*
D02*
G37*
G36*
X353500D02*
X350000D01*
Y177500D01*
X350027D01*
X351044Y177773D01*
X351956Y178299D01*
X352701Y179044D01*
X353227Y179956D01*
X353500Y180973D01*
Y181000D01*
D02*
G37*
G36*
X349000D02*
X345500D01*
Y180973D01*
X345773Y179956D01*
X346299Y179044D01*
X347044Y178299D01*
X347956Y177773D01*
X348973Y177500D01*
X349000D01*
Y181000D01*
D02*
G37*
G36*
X420027Y175500D02*
X418973D01*
X417956Y175227D01*
X417044Y174701D01*
X416299Y173956D01*
X415773Y173044D01*
X415500Y172027D01*
Y170973D01*
X415773Y169956D01*
X416299Y169044D01*
X417044Y168299D01*
X417956Y167773D01*
X418973Y167500D01*
X420027D01*
X421044Y167773D01*
X421956Y168299D01*
X422701Y169044D01*
X423227Y169956D01*
X423500Y170973D01*
Y172027D01*
X423227Y173044D01*
X422701Y173956D01*
X421956Y174701D01*
X421044Y175227D01*
X420027Y175500D01*
D02*
G37*
G36*
X350027D02*
X348973D01*
X347956Y175227D01*
X347044Y174701D01*
X346299Y173956D01*
X345773Y173044D01*
X345500Y172027D01*
Y170973D01*
X345773Y169956D01*
X346299Y169044D01*
X347044Y168299D01*
X347956Y167773D01*
X348973Y167500D01*
X350027D01*
X351044Y167773D01*
X351956Y168299D01*
X352701Y169044D01*
X353227Y169956D01*
X353500Y170973D01*
Y172027D01*
X353227Y173044D01*
X352701Y173956D01*
X351956Y174701D01*
X351044Y175227D01*
X350027Y175500D01*
D02*
G37*
G36*
X420027Y165500D02*
X418973D01*
X417956Y165227D01*
X417044Y164701D01*
X416299Y163956D01*
X415773Y163044D01*
X415500Y162027D01*
Y160973D01*
X415773Y159956D01*
X416299Y159044D01*
X417044Y158299D01*
X417956Y157773D01*
X418973Y157500D01*
X420027D01*
X421044Y157773D01*
X421956Y158299D01*
X422701Y159044D01*
X423227Y159956D01*
X423500Y160973D01*
Y162027D01*
X423227Y163044D01*
X422701Y163956D01*
X421956Y164701D01*
X421044Y165227D01*
X420027Y165500D01*
D02*
G37*
G36*
X350027D02*
X348973D01*
X347956Y165227D01*
X347044Y164701D01*
X346299Y163956D01*
X345773Y163044D01*
X345500Y162027D01*
Y160973D01*
X345773Y159956D01*
X346299Y159044D01*
X347044Y158299D01*
X347956Y157773D01*
X348973Y157500D01*
X350027D01*
X351044Y157773D01*
X351956Y158299D01*
X352701Y159044D01*
X353227Y159956D01*
X353500Y160973D01*
Y162027D01*
X353227Y163044D01*
X352701Y163956D01*
X351956Y164701D01*
X351044Y165227D01*
X350027Y165500D01*
D02*
G37*
G36*
X420027Y155500D02*
X418973D01*
X417956Y155227D01*
X417044Y154701D01*
X416299Y153956D01*
X415773Y153044D01*
X415500Y152027D01*
Y150973D01*
X415773Y149956D01*
X416299Y149044D01*
X417044Y148299D01*
X417956Y147773D01*
X418973Y147500D01*
X420027D01*
X421044Y147773D01*
X421956Y148299D01*
X422701Y149044D01*
X423227Y149956D01*
X423500Y150973D01*
Y152027D01*
X423227Y153044D01*
X422701Y153956D01*
X421956Y154701D01*
X421044Y155227D01*
X420027Y155500D01*
D02*
G37*
G36*
X350027D02*
X348973D01*
X347956Y155227D01*
X347044Y154701D01*
X346299Y153956D01*
X345773Y153044D01*
X345500Y152027D01*
Y150973D01*
X345773Y149956D01*
X346299Y149044D01*
X347044Y148299D01*
X347956Y147773D01*
X348973Y147500D01*
X350027D01*
X351044Y147773D01*
X351956Y148299D01*
X352701Y149044D01*
X353227Y149956D01*
X353500Y150973D01*
Y152027D01*
X353227Y153044D01*
X352701Y153956D01*
X351956Y154701D01*
X351044Y155227D01*
X350027Y155500D01*
D02*
G37*
G36*
X420027Y145500D02*
X418973D01*
X417956Y145227D01*
X417044Y144701D01*
X416299Y143956D01*
X415773Y143044D01*
X415500Y142027D01*
Y140973D01*
X415773Y139956D01*
X416299Y139044D01*
X417044Y138299D01*
X417956Y137773D01*
X418973Y137500D01*
X420027D01*
X421044Y137773D01*
X421956Y138299D01*
X422701Y139044D01*
X423227Y139956D01*
X423500Y140973D01*
Y142027D01*
X423227Y143044D01*
X422701Y143956D01*
X421956Y144701D01*
X421044Y145227D01*
X420027Y145500D01*
D02*
G37*
G36*
X350027D02*
X348973D01*
X347956Y145227D01*
X347044Y144701D01*
X346299Y143956D01*
X345773Y143044D01*
X345500Y142027D01*
Y140973D01*
X345773Y139956D01*
X346299Y139044D01*
X347044Y138299D01*
X347956Y137773D01*
X348973Y137500D01*
X350027D01*
X351044Y137773D01*
X351956Y138299D01*
X352701Y139044D01*
X353227Y139956D01*
X353500Y140973D01*
Y142027D01*
X353227Y143044D01*
X352701Y143956D01*
X351956Y144701D01*
X351044Y145227D01*
X350027Y145500D01*
D02*
G37*
G36*
Y135500D02*
X350000D01*
Y132000D01*
X353500D01*
Y132027D01*
X353227Y133044D01*
X352701Y133956D01*
X351956Y134701D01*
X351044Y135227D01*
X350027Y135500D01*
D02*
G37*
G36*
X420027D02*
X420000D01*
Y132000D01*
X423500D01*
Y132027D01*
X423227Y133044D01*
X422701Y133956D01*
X421956Y134701D01*
X421044Y135227D01*
X420027Y135500D01*
D02*
G37*
G36*
X349000D02*
X348973D01*
X347956Y135227D01*
X347044Y134701D01*
X346299Y133956D01*
X345773Y133044D01*
X345500Y132027D01*
Y132000D01*
X349000D01*
Y135500D01*
D02*
G37*
G36*
X419000D02*
X418973D01*
X417956Y135227D01*
X417044Y134701D01*
X416299Y133956D01*
X415773Y133044D01*
X415500Y132027D01*
Y132000D01*
X419000D01*
Y135500D01*
D02*
G37*
G36*
X423500Y131000D02*
X420000D01*
Y127500D01*
X420027D01*
X421044Y127773D01*
X421956Y128299D01*
X422701Y129044D01*
X423227Y129956D01*
X423500Y130973D01*
Y131000D01*
D02*
G37*
G36*
X419000D02*
X415500D01*
Y130973D01*
X415773Y129956D01*
X416299Y129044D01*
X417044Y128299D01*
X417956Y127773D01*
X418973Y127500D01*
X419000D01*
Y131000D01*
D02*
G37*
G36*
X353500D02*
X350000D01*
Y127500D01*
X350027D01*
X351044Y127773D01*
X351956Y128299D01*
X352701Y129044D01*
X353227Y129956D01*
X353500Y130973D01*
Y131000D01*
D02*
G37*
G36*
X349000D02*
X345500D01*
Y130973D01*
X345773Y129956D01*
X346299Y129044D01*
X347044Y128299D01*
X347956Y127773D01*
X348973Y127500D01*
X349000D01*
Y131000D01*
D02*
G37*
G36*
X290425Y127000D02*
X286500D01*
Y123075D01*
X286583D01*
X287708Y123376D01*
X288717Y123959D01*
X289541Y124783D01*
X290124Y125792D01*
X290425Y126917D01*
Y127000D01*
D02*
G37*
G36*
X285500D02*
X281575D01*
Y126917D01*
X281876Y125792D01*
X282459Y124783D01*
X283283Y123959D01*
X284292Y123376D01*
X285417Y123075D01*
X285500D01*
Y127000D01*
D02*
G37*
G36*
X280425D02*
X276500D01*
Y123075D01*
X276583D01*
X277708Y123376D01*
X278717Y123959D01*
X279541Y124783D01*
X280124Y125792D01*
X280425Y126917D01*
Y127000D01*
D02*
G37*
G36*
X275500D02*
X271575D01*
Y126917D01*
X271876Y125792D01*
X272459Y124783D01*
X273283Y123959D01*
X274292Y123376D01*
X275417Y123075D01*
X275500D01*
Y127000D01*
D02*
G37*
G36*
X43425D02*
X39500D01*
Y123075D01*
X39583D01*
X40708Y123376D01*
X41717Y123959D01*
X42541Y124783D01*
X43124Y125792D01*
X43425Y126917D01*
Y127000D01*
D02*
G37*
G36*
X38500D02*
X34575D01*
Y126917D01*
X34876Y125792D01*
X35459Y124783D01*
X36283Y123959D01*
X37292Y123376D01*
X38417Y123075D01*
X38500D01*
Y127000D01*
D02*
G37*
G36*
X33425D02*
X29500D01*
Y123075D01*
X29583D01*
X30708Y123376D01*
X31717Y123959D01*
X32541Y124783D01*
X33124Y125792D01*
X33425Y126917D01*
Y127000D01*
D02*
G37*
G36*
X28500D02*
X24575D01*
Y126917D01*
X24876Y125792D01*
X25459Y124783D01*
X26283Y123959D01*
X27292Y123376D01*
X28417Y123075D01*
X28500D01*
Y127000D01*
D02*
G37*
G36*
X420027Y125500D02*
X418973D01*
X417956Y125227D01*
X417044Y124701D01*
X416299Y123956D01*
X415773Y123044D01*
X415500Y122027D01*
Y120973D01*
X415773Y119956D01*
X416299Y119044D01*
X417044Y118299D01*
X417956Y117773D01*
X418973Y117500D01*
X420027D01*
X421044Y117773D01*
X421956Y118299D01*
X422701Y119044D01*
X423227Y119956D01*
X423500Y120973D01*
Y122027D01*
X423227Y123044D01*
X422701Y123956D01*
X421956Y124701D01*
X421044Y125227D01*
X420027Y125500D01*
D02*
G37*
G36*
X350027D02*
X348973D01*
X347956Y125227D01*
X347044Y124701D01*
X346299Y123956D01*
X345773Y123044D01*
X345500Y122027D01*
Y120973D01*
X345773Y119956D01*
X346299Y119044D01*
X347044Y118299D01*
X347956Y117773D01*
X348973Y117500D01*
X350027D01*
X351044Y117773D01*
X351956Y118299D01*
X352701Y119044D01*
X353227Y119956D01*
X353500Y120973D01*
Y122027D01*
X353227Y123044D01*
X352701Y123956D01*
X351956Y124701D01*
X351044Y125227D01*
X350027Y125500D01*
D02*
G37*
G36*
X286583Y121925D02*
X285417D01*
X284292Y121624D01*
X283283Y121041D01*
X282459Y120217D01*
X281876Y119208D01*
X281575Y118083D01*
Y116917D01*
X281876Y115792D01*
X282459Y114783D01*
X283283Y113959D01*
X284292Y113376D01*
X285417Y113075D01*
X286583D01*
X287708Y113376D01*
X288717Y113959D01*
X289541Y114783D01*
X290124Y115792D01*
X290425Y116917D01*
Y118083D01*
X290124Y119208D01*
X289541Y120217D01*
X288717Y121041D01*
X287708Y121624D01*
X286583Y121925D01*
D02*
G37*
G36*
X276583D02*
X275417D01*
X274292Y121624D01*
X273283Y121041D01*
X272459Y120217D01*
X271876Y119208D01*
X271575Y118083D01*
Y116917D01*
X271876Y115792D01*
X272459Y114783D01*
X273283Y113959D01*
X274292Y113376D01*
X275417Y113075D01*
X276583D01*
X277708Y113376D01*
X278717Y113959D01*
X279541Y114783D01*
X280124Y115792D01*
X280425Y116917D01*
Y118083D01*
X280124Y119208D01*
X279541Y120217D01*
X278717Y121041D01*
X277708Y121624D01*
X276583Y121925D01*
D02*
G37*
G36*
X39583D02*
X38417D01*
X37292Y121624D01*
X36283Y121041D01*
X35459Y120217D01*
X34876Y119208D01*
X34575Y118083D01*
Y116917D01*
X34876Y115792D01*
X35459Y114783D01*
X36283Y113959D01*
X37292Y113376D01*
X38417Y113075D01*
X39583D01*
X40708Y113376D01*
X41717Y113959D01*
X42541Y114783D01*
X43124Y115792D01*
X43425Y116917D01*
Y118083D01*
X43124Y119208D01*
X42541Y120217D01*
X41717Y121041D01*
X40708Y121624D01*
X39583Y121925D01*
D02*
G37*
G36*
X29583D02*
X28417D01*
X27292Y121624D01*
X26283Y121041D01*
X25459Y120217D01*
X24876Y119208D01*
X24575Y118083D01*
Y116917D01*
X24876Y115792D01*
X25459Y114783D01*
X26283Y113959D01*
X27292Y113376D01*
X28417Y113075D01*
X29583D01*
X30708Y113376D01*
X31717Y113959D01*
X32541Y114783D01*
X33124Y115792D01*
X33425Y116917D01*
Y118083D01*
X33124Y119208D01*
X32541Y120217D01*
X31717Y121041D01*
X30708Y121624D01*
X29583Y121925D01*
D02*
G37*
G36*
X100428Y117150D02*
X99572D01*
X98782Y116823D01*
X98177Y116218D01*
X97850Y115428D01*
Y114572D01*
X98177Y113782D01*
X98782Y113177D01*
X99572Y112850D01*
X100428D01*
X101218Y113177D01*
X101823Y113782D01*
X102150Y114572D01*
Y115428D01*
X101823Y116218D01*
X101218Y116823D01*
X100428Y117150D01*
D02*
G37*
G36*
X193928Y116650D02*
X193072D01*
X192282Y116323D01*
X191677Y115718D01*
X191350Y114928D01*
Y114072D01*
X191677Y113282D01*
X192282Y112677D01*
X193072Y112350D01*
X193928D01*
X194718Y112677D01*
X195323Y113282D01*
X195650Y114072D01*
Y114928D01*
X195323Y115718D01*
X194718Y116323D01*
X193928Y116650D01*
D02*
G37*
G36*
X218928Y116150D02*
X218072D01*
X217282Y115823D01*
X216677Y115218D01*
X216350Y114428D01*
Y113572D01*
X216677Y112782D01*
X217282Y112177D01*
X218072Y111850D01*
X218928D01*
X219718Y112177D01*
X220323Y112782D01*
X220650Y113572D01*
Y114428D01*
X220323Y115218D01*
X219718Y115823D01*
X218928Y116150D01*
D02*
G37*
G36*
X129428D02*
X128572D01*
X127782Y115823D01*
X127177Y115218D01*
X126850Y114428D01*
Y113572D01*
X127177Y112782D01*
X127782Y112177D01*
X128572Y111850D01*
X129428D01*
X130218Y112177D01*
X130823Y112782D01*
X131150Y113572D01*
Y114428D01*
X130823Y115218D01*
X130218Y115823D01*
X129428Y116150D01*
D02*
G37*
G36*
X309928Y114650D02*
X309072D01*
X308282Y114323D01*
X307677Y113718D01*
X307350Y112928D01*
Y112072D01*
X307677Y111282D01*
X308282Y110677D01*
X309072Y110350D01*
X309928D01*
X310718Y110677D01*
X311323Y111282D01*
X311650Y112072D01*
Y112928D01*
X311323Y113718D01*
X310718Y114323D01*
X309928Y114650D01*
D02*
G37*
G36*
X420027Y115500D02*
X418973D01*
X417956Y115227D01*
X417044Y114701D01*
X416299Y113956D01*
X415773Y113044D01*
X415500Y112027D01*
Y110973D01*
X415773Y109956D01*
X416299Y109044D01*
X417044Y108299D01*
X417956Y107773D01*
X418973Y107500D01*
X420027D01*
X421044Y107773D01*
X421956Y108299D01*
X422701Y109044D01*
X423227Y109956D01*
X423500Y110973D01*
Y112027D01*
X423227Y113044D01*
X422701Y113956D01*
X421956Y114701D01*
X421044Y115227D01*
X420027Y115500D01*
D02*
G37*
G36*
X350027D02*
X348973D01*
X347956Y115227D01*
X347044Y114701D01*
X346299Y113956D01*
X345773Y113044D01*
X345500Y112027D01*
Y110973D01*
X345773Y109956D01*
X346299Y109044D01*
X347044Y108299D01*
X347956Y107773D01*
X348973Y107500D01*
X350027D01*
X351044Y107773D01*
X351956Y108299D01*
X352701Y109044D01*
X353227Y109956D01*
X353500Y110973D01*
Y112027D01*
X353227Y113044D01*
X352701Y113956D01*
X351956Y114701D01*
X351044Y115227D01*
X350027Y115500D01*
D02*
G37*
G36*
X286583Y111925D02*
X285417D01*
X284292Y111624D01*
X283283Y111041D01*
X282459Y110217D01*
X281876Y109208D01*
X281575Y108083D01*
Y106917D01*
X281876Y105792D01*
X282459Y104783D01*
X283283Y103959D01*
X284292Y103376D01*
X285417Y103075D01*
X286583D01*
X287708Y103376D01*
X288717Y103959D01*
X289541Y104783D01*
X290124Y105792D01*
X290425Y106917D01*
Y108083D01*
X290124Y109208D01*
X289541Y110217D01*
X288717Y111041D01*
X287708Y111624D01*
X286583Y111925D01*
D02*
G37*
G36*
X276583D02*
X275417D01*
X274292Y111624D01*
X273283Y111041D01*
X272459Y110217D01*
X271876Y109208D01*
X271575Y108083D01*
Y106917D01*
X271876Y105792D01*
X272459Y104783D01*
X273283Y103959D01*
X274292Y103376D01*
X275417Y103075D01*
X276583D01*
X277708Y103376D01*
X278717Y103959D01*
X279541Y104783D01*
X280124Y105792D01*
X280425Y106917D01*
Y108083D01*
X280124Y109208D01*
X279541Y110217D01*
X278717Y111041D01*
X277708Y111624D01*
X276583Y111925D01*
D02*
G37*
G36*
X39583D02*
X38417D01*
X37292Y111624D01*
X36283Y111041D01*
X35459Y110217D01*
X34876Y109208D01*
X34575Y108083D01*
Y106917D01*
X34876Y105792D01*
X35459Y104783D01*
X36283Y103959D01*
X37292Y103376D01*
X38417Y103075D01*
X39583D01*
X40708Y103376D01*
X41717Y103959D01*
X42541Y104783D01*
X43124Y105792D01*
X43425Y106917D01*
Y108083D01*
X43124Y109208D01*
X42541Y110217D01*
X41717Y111041D01*
X40708Y111624D01*
X39583Y111925D01*
D02*
G37*
G36*
X29583D02*
X28417D01*
X27292Y111624D01*
X26283Y111041D01*
X25459Y110217D01*
X24876Y109208D01*
X24575Y108083D01*
Y106917D01*
X24876Y105792D01*
X25459Y104783D01*
X26283Y103959D01*
X27292Y103376D01*
X28417Y103075D01*
X29583D01*
X30708Y103376D01*
X31717Y103959D01*
X32541Y104783D01*
X33124Y105792D01*
X33425Y106917D01*
Y108083D01*
X33124Y109208D01*
X32541Y110217D01*
X31717Y111041D01*
X30708Y111624D01*
X29583Y111925D01*
D02*
G37*
G36*
X303428Y104575D02*
X302572D01*
X301782Y104248D01*
X301177Y103643D01*
X300850Y102853D01*
Y101997D01*
X301177Y101207D01*
X301782Y100602D01*
X302572Y100275D01*
X303428D01*
X304218Y100602D01*
X304823Y101207D01*
X305150Y101997D01*
Y102853D01*
X304823Y103643D01*
X304218Y104248D01*
X303428Y104575D01*
D02*
G37*
G36*
X276583Y101925D02*
X276500D01*
Y98000D01*
X280425D01*
Y98083D01*
X280124Y99208D01*
X279541Y100217D01*
X278717Y101041D01*
X277708Y101624D01*
X276583Y101925D01*
D02*
G37*
G36*
X29583D02*
X29500D01*
Y98000D01*
X33425D01*
Y98083D01*
X33124Y99208D01*
X32541Y100217D01*
X31717Y101041D01*
X30708Y101624D01*
X29583Y101925D01*
D02*
G37*
G36*
X275500D02*
X275417D01*
X274292Y101624D01*
X273283Y101041D01*
X272459Y100217D01*
X271876Y99208D01*
X271575Y98083D01*
Y98000D01*
X275500D01*
Y101925D01*
D02*
G37*
G36*
X28500D02*
X28417D01*
X27292Y101624D01*
X26283Y101041D01*
X25459Y100217D01*
X24876Y99208D01*
X24575Y98083D01*
Y98000D01*
X28500D01*
Y101925D01*
D02*
G37*
G36*
X420027Y105500D02*
X418973D01*
X417956Y105227D01*
X417044Y104701D01*
X416299Y103956D01*
X415773Y103044D01*
X415500Y102027D01*
Y100973D01*
X415773Y99956D01*
X416299Y99044D01*
X417044Y98299D01*
X417956Y97773D01*
X418973Y97500D01*
X420027D01*
X421044Y97773D01*
X421956Y98299D01*
X422701Y99044D01*
X423227Y99956D01*
X423500Y100973D01*
Y102027D01*
X423227Y103044D01*
X422701Y103956D01*
X421956Y104701D01*
X421044Y105227D01*
X420027Y105500D01*
D02*
G37*
G36*
X350027D02*
X348973D01*
X347956Y105227D01*
X347044Y104701D01*
X346299Y103956D01*
X345773Y103044D01*
X345500Y102027D01*
Y100973D01*
X345773Y99956D01*
X346299Y99044D01*
X347044Y98299D01*
X347956Y97773D01*
X348973Y97500D01*
X350027D01*
X351044Y97773D01*
X351956Y98299D01*
X352701Y99044D01*
X353227Y99956D01*
X353500Y100973D01*
Y102027D01*
X353227Y103044D01*
X352701Y103956D01*
X351956Y104701D01*
X351044Y105227D01*
X350027Y105500D01*
D02*
G37*
G36*
X100428Y100650D02*
X99572D01*
X98782Y100323D01*
X98177Y99718D01*
X97850Y98928D01*
Y98072D01*
X98177Y97282D01*
X98782Y96677D01*
X99572Y96350D01*
X100428D01*
X101218Y96677D01*
X101823Y97282D01*
X102150Y98072D01*
Y98928D01*
X101823Y99718D01*
X101218Y100323D01*
X100428Y100650D01*
D02*
G37*
G36*
X219428Y100150D02*
X218572D01*
X217782Y99823D01*
X217177Y99218D01*
X216850Y98428D01*
Y97572D01*
X217177Y96782D01*
X217782Y96177D01*
X218572Y95850D01*
X219428D01*
X220218Y96177D01*
X220823Y96782D01*
X221150Y97572D01*
Y98428D01*
X220823Y99218D01*
X220218Y99823D01*
X219428Y100150D01*
D02*
G37*
G36*
X193428D02*
X192572D01*
X191782Y99823D01*
X191177Y99218D01*
X190850Y98428D01*
Y97572D01*
X191177Y96782D01*
X191782Y96177D01*
X192572Y95850D01*
X193428D01*
X194218Y96177D01*
X194823Y96782D01*
X195150Y97572D01*
Y98428D01*
X194823Y99218D01*
X194218Y99823D01*
X193428Y100150D01*
D02*
G37*
G36*
X129428Y99650D02*
X128572D01*
X127782Y99323D01*
X127177Y98718D01*
X126850Y97928D01*
Y97072D01*
X127177Y96282D01*
X127782Y95677D01*
X128572Y95350D01*
X129428D01*
X130218Y95677D01*
X130823Y96282D01*
X131150Y97072D01*
Y97928D01*
X130823Y98718D01*
X130218Y99323D01*
X129428Y99650D01*
D02*
G37*
G36*
X420027Y95500D02*
X418973D01*
X417956Y95227D01*
X417044Y94701D01*
X416299Y93956D01*
X415773Y93044D01*
X415500Y92027D01*
Y90973D01*
X415773Y89956D01*
X416299Y89044D01*
X417044Y88299D01*
X417956Y87773D01*
X418973Y87500D01*
X420027D01*
X421044Y87773D01*
X421956Y88299D01*
X422701Y89044D01*
X423227Y89956D01*
X423500Y90973D01*
Y92027D01*
X423227Y93044D01*
X422701Y93956D01*
X421956Y94701D01*
X421044Y95227D01*
X420027Y95500D01*
D02*
G37*
G36*
X350027D02*
X348973D01*
X347956Y95227D01*
X347044Y94701D01*
X346299Y93956D01*
X345773Y93044D01*
X345500Y92027D01*
Y90973D01*
X345773Y89956D01*
X346299Y89044D01*
X347044Y88299D01*
X347956Y87773D01*
X348973Y87500D01*
X350027D01*
X351044Y87773D01*
X351956Y88299D01*
X352701Y89044D01*
X353227Y89956D01*
X353500Y90973D01*
Y92027D01*
X353227Y93044D01*
X352701Y93956D01*
X351956Y94701D01*
X351044Y95227D01*
X350027Y95500D01*
D02*
G37*
G36*
Y85500D02*
X350000D01*
Y82000D01*
X353500D01*
Y82027D01*
X353227Y83044D01*
X352701Y83956D01*
X351956Y84701D01*
X351044Y85227D01*
X350027Y85500D01*
D02*
G37*
G36*
X420027D02*
X420000D01*
Y82000D01*
X423500D01*
Y82027D01*
X423227Y83044D01*
X422701Y83956D01*
X421956Y84701D01*
X421044Y85227D01*
X420027Y85500D01*
D02*
G37*
G36*
X349000D02*
X348973D01*
X347956Y85227D01*
X347044Y84701D01*
X346299Y83956D01*
X345773Y83044D01*
X345500Y82027D01*
Y82000D01*
X349000D01*
Y85500D01*
D02*
G37*
G36*
X419000D02*
X418973D01*
X417956Y85227D01*
X417044Y84701D01*
X416299Y83956D01*
X415773Y83044D01*
X415500Y82027D01*
Y82000D01*
X419000D01*
Y85500D01*
D02*
G37*
G36*
X423500Y81000D02*
X420000D01*
Y77500D01*
X420027D01*
X421044Y77773D01*
X421956Y78299D01*
X422701Y79044D01*
X423227Y79956D01*
X423500Y80973D01*
Y81000D01*
D02*
G37*
G36*
X419000D02*
X415500D01*
Y80973D01*
X415773Y79956D01*
X416299Y79044D01*
X417044Y78299D01*
X417956Y77773D01*
X418973Y77500D01*
X419000D01*
Y81000D01*
D02*
G37*
G36*
X353500D02*
X350000D01*
Y77500D01*
X350027D01*
X351044Y77773D01*
X351956Y78299D01*
X352701Y79044D01*
X353227Y79956D01*
X353500Y80973D01*
Y81000D01*
D02*
G37*
G36*
X349000D02*
X345500D01*
Y80973D01*
X345773Y79956D01*
X346299Y79044D01*
X347044Y78299D01*
X347956Y77773D01*
X348973Y77500D01*
X349000D01*
Y81000D01*
D02*
G37*
%LPD*%
D24*
X39000Y47500D02*
D03*
X286000D02*
D03*
D25*
X39000Y57500D02*
D03*
Y67500D02*
D03*
Y77500D02*
D03*
Y87500D02*
D03*
Y97500D02*
D03*
Y107500D02*
D03*
Y117500D02*
D03*
Y127500D02*
D03*
Y137500D02*
D03*
X29000Y47500D02*
D03*
Y57500D02*
D03*
Y67500D02*
D03*
Y77500D02*
D03*
Y87500D02*
D03*
Y97500D02*
D03*
Y107500D02*
D03*
Y117500D02*
D03*
Y127500D02*
D03*
Y137500D02*
D03*
X276000D02*
D03*
Y127500D02*
D03*
Y117500D02*
D03*
Y107500D02*
D03*
Y97500D02*
D03*
Y87500D02*
D03*
Y77500D02*
D03*
Y67500D02*
D03*
Y57500D02*
D03*
Y47500D02*
D03*
X286000Y137500D02*
D03*
Y127500D02*
D03*
Y117500D02*
D03*
Y107500D02*
D03*
Y97500D02*
D03*
Y87500D02*
D03*
Y77500D02*
D03*
Y67500D02*
D03*
Y57500D02*
D03*
D33*
X349500Y11500D02*
D03*
Y21500D02*
D03*
Y31500D02*
D03*
Y41500D02*
D03*
Y51500D02*
D03*
Y61500D02*
D03*
Y71500D02*
D03*
Y81500D02*
D03*
Y91500D02*
D03*
Y101500D02*
D03*
Y111500D02*
D03*
Y121500D02*
D03*
Y131500D02*
D03*
Y141500D02*
D03*
Y151500D02*
D03*
Y161500D02*
D03*
Y171500D02*
D03*
Y181500D02*
D03*
Y191500D02*
D03*
Y201500D02*
D03*
X419500D02*
D03*
Y191500D02*
D03*
Y181500D02*
D03*
Y171500D02*
D03*
Y161500D02*
D03*
Y151500D02*
D03*
Y141500D02*
D03*
Y131500D02*
D03*
Y121500D02*
D03*
Y111500D02*
D03*
Y101500D02*
D03*
Y91500D02*
D03*
Y81500D02*
D03*
Y71500D02*
D03*
Y61500D02*
D03*
Y51500D02*
D03*
Y41500D02*
D03*
Y31500D02*
D03*
Y21500D02*
D03*
Y11500D02*
D03*
D34*
X98000Y180500D02*
D03*
D35*
Y190500D02*
D03*
D36*
X211898Y199028D02*
D03*
X143000D02*
D03*
X225677Y169500D02*
D03*
D37*
X143000D02*
D03*
D38*
X99500Y49000D02*
D03*
Y65000D02*
D03*
X128500Y79500D02*
D03*
X100000Y81500D02*
D03*
Y98500D02*
D03*
Y115000D02*
D03*
Y131500D02*
D03*
X99850Y148500D02*
D03*
X193000Y32000D02*
D03*
X218500D02*
D03*
X129000Y47500D02*
D03*
X218500Y48000D02*
D03*
X192500Y49000D02*
D03*
X128500Y64000D02*
D03*
X192500Y64500D02*
D03*
X218500D02*
D03*
X192500Y81000D02*
D03*
X218500D02*
D03*
X129000Y97500D02*
D03*
X193000Y98000D02*
D03*
X219000D02*
D03*
X129000Y114000D02*
D03*
X218500D02*
D03*
X193500Y114500D02*
D03*
X219000Y130000D02*
D03*
X128500Y131000D02*
D03*
X219000Y145500D02*
D03*
X129000Y147000D02*
D03*
X194500Y147500D02*
D03*
X262500Y182000D02*
D03*
X258000Y185500D02*
D03*
X252000Y189000D02*
D03*
X309500Y52500D02*
D03*
X306000Y92500D02*
D03*
X303000Y102425D02*
D03*
X309500Y112500D02*
D03*
X312500Y132500D02*
D03*
X266500Y178000D02*
D03*
X315500Y193000D02*
D03*
X312500Y202000D02*
D03*
X265500Y219500D02*
D03*
X269000Y223000D02*
D03*
X312500Y230000D02*
D03*
X307000Y233500D02*
D03*
X325000Y62425D02*
D03*
X315500Y150000D02*
D03*
X316500Y226500D02*
D03*
X318500Y157500D02*
D03*
Y206000D02*
D03*
X322000Y208650D02*
D03*
X193000Y130000D02*
D03*
X258000Y211500D02*
D03*
X262000Y215500D02*
D03*
D39*
X19685Y220472D02*
D03*
X216535Y220472D02*
D03*
X314961Y11811D02*
D03*
X19685Y11811D02*
D03*
M02*
