G04*
G04 #@! TF.GenerationSoftware,Altium Limited,Altium Designer,23.9.2 (47)*
G04*
G04 Layer_Physical_Order=4*
G04 Layer_Color=16711680*
%FSLAX25Y25*%
%MOIN*%
G70*
G04*
G04 #@! TF.SameCoordinates,7D7DC0CB-560A-4B43-BD03-011E7A05A225*
G04*
G04*
G04 #@! TF.FilePolarity,Positive*
G04*
G01*
G75*
%ADD13C,0.01000*%
%ADD24R,0.06850X0.06850*%
%ADD25C,0.06850*%
%ADD33C,0.06000*%
%ADD34C,0.06299*%
G04:AMPARAMS|DCode=35|XSize=62.99mil|YSize=62.99mil|CornerRadius=15.75mil|HoleSize=0mil|Usage=FLASHONLY|Rotation=270.000|XOffset=0mil|YOffset=0mil|HoleType=Round|Shape=RoundedRectangle|*
%AMROUNDEDRECTD35*
21,1,0.06299,0.03150,0,0,270.0*
21,1,0.03150,0.06299,0,0,270.0*
1,1,0.03150,-0.01575,-0.01575*
1,1,0.03150,-0.01575,0.01575*
1,1,0.03150,0.01575,0.01575*
1,1,0.03150,0.01575,-0.01575*
%
%ADD35ROUNDEDRECTD35*%
%ADD36C,0.07087*%
%ADD37R,0.07087X0.07087*%
%ADD38C,0.02300*%
%ADD39C,0.15748*%
%ADD41C,0.02000*%
D13*
X219000Y130000D02*
X230000D01*
X161000Y163500D02*
X228199D01*
X166500Y161500D02*
X227000D01*
X168500Y159500D02*
X226000D01*
X176000Y155500D02*
X220000D01*
X172500Y157500D02*
X224500D01*
X180000Y153000D02*
X218500D01*
X182828Y150500D02*
X218000D01*
X125500Y108926D02*
X129000Y105426D01*
X128500Y64000D02*
X128500D01*
X129000Y47500D02*
Y57500D01*
Y97500D02*
Y105426D01*
X128500Y79500D02*
X134500Y85500D01*
X128500Y64000D02*
X138000Y73500D01*
X134500Y85500D02*
Y114000D01*
X129000Y57500D02*
X142000Y70500D01*
X138000Y73500D02*
Y111000D01*
X142000Y70500D02*
Y109500D01*
X123500Y127000D02*
Y141500D01*
Y127000D02*
X125500Y125000D01*
Y108926D02*
Y116500D01*
X123500Y141500D02*
X129000Y147000D01*
X125500Y125000D02*
X130000D01*
X141914Y109586D02*
X142000Y109500D01*
X128500Y131000D02*
X161000Y163500D01*
X125500Y116500D02*
X168500Y159500D01*
X130000Y125000D02*
X166500Y161500D01*
X129000Y114000D02*
X172500Y157500D01*
X134500Y114000D02*
X176000Y155500D01*
X138000Y111000D02*
X180000Y153000D01*
X141914Y109586D02*
X182828Y150500D01*
X210000Y62500D02*
Y89000D01*
X212500Y63500D02*
Y75000D01*
X210000Y89000D02*
X219000Y98000D01*
X212500Y75000D02*
X218500Y81000D01*
X210000Y62500D02*
X229925Y42575D01*
X212500Y63500D02*
X228500Y47500D01*
X218500Y64500D02*
X225500Y57500D01*
X218500Y48000D02*
X231500Y35000D01*
X218500Y114000D02*
X269925Y62575D01*
X225500Y57500D02*
X276000D01*
X228500Y47500D02*
X276000D01*
X218500Y32000D02*
X288000D01*
X229925Y42575D02*
X281075D01*
X231500Y35000D02*
X285000D01*
X258500Y82000D02*
Y101500D01*
X261500Y90000D02*
Y103000D01*
X258500Y82000D02*
X268075Y72425D01*
X264500Y93500D02*
Y104000D01*
X261500Y90000D02*
X269075Y82425D01*
X264500Y93500D02*
X270500Y87500D01*
X267500Y95000D02*
Y104000D01*
X219000Y145500D02*
X261500Y103000D01*
X218000Y150500D02*
X264500Y104000D01*
X218500Y153000D02*
X267500Y104000D01*
X230000Y130000D02*
X258500Y101500D01*
X220000Y155500D02*
X273000Y102500D01*
X227000Y161500D02*
X271000Y117500D01*
X228462Y163538D02*
X269575Y122425D01*
X226000Y159500D02*
X272925Y112575D01*
X224500Y157500D02*
X274500Y107500D01*
X270500Y87500D02*
X276000D01*
X268075Y72425D02*
X279575D01*
X269925Y62575D02*
X279425D01*
X269075Y82425D02*
X281075D01*
X276000Y67500D02*
X277328D01*
X276000Y77500D02*
X277328D01*
Y67500D02*
X282254Y62575D01*
X277328Y77500D02*
X282403Y72425D01*
X279425Y62575D02*
X284500Y57500D01*
X279575Y72425D02*
X284500Y67500D01*
X281075Y42575D02*
X286000Y47500D01*
X281075Y82425D02*
X286000Y77500D01*
X284500Y57500D02*
X286000D01*
X284500Y67500D02*
X286000D01*
X282403Y72425D02*
X289575D01*
X282254Y62575D02*
X292425D01*
X285000Y35000D02*
X295000Y45000D01*
X288000Y32000D02*
X297500Y41500D01*
X289575Y72425D02*
X297500Y64500D01*
X292425Y62575D02*
X295000Y60000D01*
Y45000D02*
Y60000D01*
X297500Y41500D02*
Y64500D01*
X267500Y95000D02*
X270075Y92425D01*
X271000Y117500D02*
X276000D01*
X274500Y107500D02*
X276000D01*
X269575Y122425D02*
X281075D01*
X270075Y92425D02*
X281075D01*
X272925Y112575D02*
X280925D01*
X273000Y102500D02*
X281000D01*
X280925Y112575D02*
X286000Y107500D01*
X281000Y102500D02*
X286000Y97500D01*
X281075Y92425D02*
X286000Y87500D01*
X281075Y122425D02*
X286000Y117500D01*
D24*
X39000Y47500D02*
D03*
X286000D02*
D03*
D25*
X39000Y57500D02*
D03*
Y67500D02*
D03*
Y77500D02*
D03*
Y87500D02*
D03*
Y97500D02*
D03*
Y107500D02*
D03*
Y117500D02*
D03*
Y127500D02*
D03*
Y137500D02*
D03*
X29000Y47500D02*
D03*
Y57500D02*
D03*
Y67500D02*
D03*
Y77500D02*
D03*
Y87500D02*
D03*
Y97500D02*
D03*
Y107500D02*
D03*
Y117500D02*
D03*
Y127500D02*
D03*
Y137500D02*
D03*
X276000D02*
D03*
Y127500D02*
D03*
Y117500D02*
D03*
Y107500D02*
D03*
Y97500D02*
D03*
Y87500D02*
D03*
Y77500D02*
D03*
Y67500D02*
D03*
Y57500D02*
D03*
Y47500D02*
D03*
X286000Y137500D02*
D03*
Y127500D02*
D03*
Y117500D02*
D03*
Y107500D02*
D03*
Y97500D02*
D03*
Y87500D02*
D03*
Y77500D02*
D03*
Y67500D02*
D03*
Y57500D02*
D03*
D33*
X349500Y11500D02*
D03*
Y21500D02*
D03*
Y31500D02*
D03*
Y41500D02*
D03*
Y51500D02*
D03*
Y61500D02*
D03*
Y71500D02*
D03*
Y81500D02*
D03*
Y91500D02*
D03*
Y101500D02*
D03*
Y111500D02*
D03*
Y121500D02*
D03*
Y131500D02*
D03*
Y141500D02*
D03*
Y151500D02*
D03*
Y161500D02*
D03*
Y171500D02*
D03*
Y181500D02*
D03*
Y191500D02*
D03*
Y201500D02*
D03*
X419500D02*
D03*
Y191500D02*
D03*
Y181500D02*
D03*
Y171500D02*
D03*
Y161500D02*
D03*
Y151500D02*
D03*
Y141500D02*
D03*
Y131500D02*
D03*
Y121500D02*
D03*
Y111500D02*
D03*
Y101500D02*
D03*
Y91500D02*
D03*
Y81500D02*
D03*
Y71500D02*
D03*
Y61500D02*
D03*
Y51500D02*
D03*
Y41500D02*
D03*
Y31500D02*
D03*
Y21500D02*
D03*
Y11500D02*
D03*
D34*
X98000Y180500D02*
D03*
D35*
Y190500D02*
D03*
D36*
X211898Y199028D02*
D03*
X143000D02*
D03*
X225677Y169500D02*
D03*
D37*
X143000D02*
D03*
D38*
X99500Y49000D02*
D03*
Y65000D02*
D03*
X128500Y79500D02*
D03*
X100000Y81500D02*
D03*
Y98500D02*
D03*
Y115000D02*
D03*
Y131500D02*
D03*
X99850Y148500D02*
D03*
X193000Y32000D02*
D03*
X218500D02*
D03*
X129000Y47500D02*
D03*
X218500Y48000D02*
D03*
X192500Y49000D02*
D03*
X128500Y64000D02*
D03*
X192500Y64500D02*
D03*
X218500D02*
D03*
X192500Y81000D02*
D03*
X218500D02*
D03*
X129000Y97500D02*
D03*
X193000Y98000D02*
D03*
X219000D02*
D03*
X129000Y114000D02*
D03*
X218500D02*
D03*
X193500Y114500D02*
D03*
X219000Y130000D02*
D03*
X128500Y131000D02*
D03*
X219000Y145500D02*
D03*
X129000Y147000D02*
D03*
X194500Y147500D02*
D03*
X262500Y182000D02*
D03*
X258000Y185500D02*
D03*
X252000Y189000D02*
D03*
X309500Y52500D02*
D03*
X306000Y92500D02*
D03*
X303000Y102425D02*
D03*
X309500Y112500D02*
D03*
X312500Y132500D02*
D03*
X266500Y178000D02*
D03*
X315500Y193000D02*
D03*
X312500Y202000D02*
D03*
X265500Y219500D02*
D03*
X269000Y223000D02*
D03*
X312500Y230000D02*
D03*
X307000Y233500D02*
D03*
X325000Y62425D02*
D03*
X315500Y150000D02*
D03*
X316500Y226500D02*
D03*
X318500Y157500D02*
D03*
Y206000D02*
D03*
X322000Y208650D02*
D03*
X193000Y130000D02*
D03*
X258000Y211500D02*
D03*
X262000Y215500D02*
D03*
D39*
X19685Y220472D02*
D03*
X216535Y220472D02*
D03*
X314961Y11811D02*
D03*
X19685Y11811D02*
D03*
D41*
X225677Y169500D02*
X263912D01*
X288412Y145000D01*
X307000D01*
X325000Y127000D01*
Y76000D02*
Y127000D01*
Y76000D02*
X350143Y50857D01*
M02*
